<svg viewBox="0 0 330.0000305175781 200.00001525878906" xmlns="http://www.w3.org/2000/svg"><g><g><g><g><g><line x1="58" y1="178" x2="53" y2="178" style="visibility: inherit;" fill="rgb(0, 0, 0)" stroke="rgb(204, 204, 204)" stroke-width="1px"></line><line x1="58" y1="155.75" x2="53" y2="155.75" style="visibility: inherit;" fill="rgb(0, 0, 0)" stroke="rgb(204, 204, 204)" stroke-width="1px"></line><line x1="58" y1="133.5" x2="53" y2="133.5" style="visibility: inherit;" fill="rgb(0, 0, 0)" stroke="rgb(204, 204, 204)" stroke-width="1px"></line><line x1="58" y1="111.25" x2="53" y2="111.25" style="visibility: inherit;" fill="rgb(0, 0, 0)" stroke="rgb(204, 204, 204)" stroke-width="1px"></line><line x1="58" y1="89" x2="53" y2="89" style="visibility: inherit;" fill="rgb(0, 0, 0)" stroke="rgb(204, 204, 204)" stroke-width="1px"></line><line x1="58" y1="66.75" x2="53" y2="66.75" style="visibility: inherit;" fill="rgb(0, 0, 0)" stroke="rgb(204, 204, 204)" stroke-width="1px"></line><line x1="58" y1="44.5" x2="53" y2="44.5" style="visibility: inherit;" fill="rgb(0, 0, 0)" stroke="rgb(204, 204, 204)" stroke-width="1px"></line><line x1="58" y1="22.25" x2="53" y2="22.25" style="visibility: inherit;" fill="rgb(0, 0, 0)" stroke="rgb(204, 204, 204)" stroke-width="1px"></line><line x1="58" y1="0" x2="53" y2="0" style="visibility: inherit;" fill="rgb(0, 0, 0)" stroke="rgb(204, 204, 204)" stroke-width="1px"></line></g><g transform="translate(48, 0)"><text x="0" y="178" dx="0em" dy="0.3em" style="text-anchor: end; visibility: hidden; font-family: &quot;Helvetica Neue&quot;, sans-serif; font-size: 12px; font-weight: 200;" fill="rgb(50, 49, 63)" stroke="none" stroke-width="1px">-400</text><text x="0" y="155.75" dx="0em" dy="0.3em" style="text-anchor: end; visibility: inherit; font-family: &quot;Helvetica Neue&quot;, sans-serif; font-size: 12px; font-weight: 200;" fill="rgb(50, 49, 63)" stroke="none" stroke-width="1px">-300</text><text x="0" y="133.5" dx="0em" dy="0.3em" style="text-anchor: end; visibility: hidden; font-family: &quot;Helvetica Neue&quot;, sans-serif; font-size: 12px; font-weight: 200;" fill="rgb(50, 49, 63)" stroke="none" stroke-width="1px">-200</text><text x="0" y="111.25" dx="0em" dy="0.3em" style="text-anchor: end; visibility: inherit; font-family: &quot;Helvetica Neue&quot;, sans-serif; font-size: 12px; font-weight: 200;" fill="rgb(50, 49, 63)" stroke="none" stroke-width="1px">-100</text><text x="0" y="89" dx="0em" dy="0.3em" style="text-anchor: end; visibility: hidden; font-family: &quot;Helvetica Neue&quot;, sans-serif; font-size: 12px; font-weight: 200;" fill="rgb(50, 49, 63)" stroke="none" stroke-width="1px">0</text><text x="0" y="66.75" dx="0em" dy="0.3em" style="text-anchor: end; visibility: inherit; font-family: &quot;Helvetica Neue&quot;, sans-serif; font-size: 12px; font-weight: 200;" fill="rgb(50, 49, 63)" stroke="none" stroke-width="1px">100</text><text x="0" y="44.5" dx="0em" dy="0.3em" style="text-anchor: end; visibility: hidden; font-family: &quot;Helvetica Neue&quot;, sans-serif; font-size: 12px; font-weight: 200;" fill="rgb(50, 49, 63)" stroke="none" stroke-width="1px">200</text><text x="0" y="22.25" dx="0em" dy="0.3em" style="text-anchor: end; visibility: inherit; font-family: &quot;Helvetica Neue&quot;, sans-serif; font-size: 12px; font-weight: 200;" fill="rgb(50, 49, 63)" stroke="none" stroke-width="1px">300</text><text x="0" y="0" dx="0em" dy="0.3em" style="text-anchor: end; visibility: hidden; font-family: &quot;Helvetica Neue&quot;, sans-serif; font-size: 12px; font-weight: 200;" fill="rgb(50, 49, 63)" stroke="none" stroke-width="1px">400</text></g><line x1="58" y1="0" x2="58" y2="178" fill="rgb(0, 0, 0)" stroke="rgb(204, 204, 204)" stroke-width="1px"></line></g></g><g transform="translate(58, 0)" clip-path="url(#clip_0)"><clipPath id="clip_0"><rect width="271" height="177"></rect></clipPath><g><g><g><line x1="0" y1="0" x2="0" y2="178" fill="rgb(0, 0, 0)" stroke="rgb(60, 60, 60)" stroke-width="1px" opacity="0.25"></line><line x1="24.727272727272727" y1="0" x2="24.727272727272727" y2="178" fill="rgb(0, 0, 0)" stroke="rgb(60, 60, 60)" stroke-width="1px" opacity="0.25"></line><line x1="49.45454545454545" y1="0" x2="49.45454545454545" y2="178" fill="rgb(0, 0, 0)" stroke="rgb(60, 60, 60)" stroke-width="1px" opacity="0.25"></line><line x1="74.18181818181817" y1="0" x2="74.18181818181817" y2="178" fill="rgb(0, 0, 0)" stroke="rgb(60, 60, 60)" stroke-width="1px" opacity="0.25"></line><line x1="98.9090909090909" y1="0" x2="98.9090909090909" y2="178" fill="rgb(0, 0, 0)" stroke="rgb(60, 60, 60)" stroke-width="1px" opacity="0.25"></line><line x1="123.63636363636363" y1="0" x2="123.63636363636363" y2="178" fill="rgb(0, 0, 0)" stroke="rgb(60, 60, 60)" stroke-width="1px" opacity="0.25"></line><line x1="148.36363636363635" y1="0" x2="148.36363636363635" y2="178" fill="rgb(0, 0, 0)" stroke="rgb(60, 60, 60)" stroke-width="1px" opacity="0.25"></line><line x1="173.0909090909091" y1="0" x2="173.0909090909091" y2="178" fill="rgb(0, 0, 0)" stroke="rgb(60, 60, 60)" stroke-width="1px" opacity="0.25"></line><line x1="197.8181818181818" y1="0" x2="197.8181818181818" y2="178" fill="rgb(0, 0, 0)" stroke="rgb(60, 60, 60)" stroke-width="1px" opacity="0.25"></line><line x1="222.54545454545456" y1="0" x2="222.54545454545456" y2="178" fill="rgb(0, 0, 0)" stroke="rgb(60, 60, 60)" stroke-width="1px" opacity="0.25"></line><line x1="247.27272727272725" y1="0" x2="247.27272727272725" y2="178" fill="rgb(0, 0, 0)" stroke="rgb(60, 60, 60)" stroke-width="1px" opacity="0.25"></line><line x1="272" y1="0" x2="272" y2="178" fill="rgb(0, 0, 0)" stroke="rgb(60, 60, 60)" stroke-width="1px" opacity="0.25"></line></g><g><line x1="0" y1="178" x2="272" y2="178" fill="rgb(0, 0, 0)" stroke="rgb(60, 60, 60)" stroke-width="1px" opacity="0.25"></line><line x1="0" y1="155.75" x2="272" y2="155.75" fill="rgb(0, 0, 0)" stroke="rgb(60, 60, 60)" stroke-width="1px" opacity="0.25"></line><line x1="0" y1="133.5" x2="272" y2="133.5" fill="rgb(0, 0, 0)" stroke="rgb(60, 60, 60)" stroke-width="1px" opacity="0.25"></line><line x1="0" y1="111.25" x2="272" y2="111.25" fill="rgb(0, 0, 0)" stroke="rgb(60, 60, 60)" stroke-width="1px" opacity="0.25"></line><line x1="0" y1="89" x2="272" y2="89" fill="rgb(0, 0, 0)" stroke="rgb(60, 60, 60)" stroke-width="1px" opacity="0.25"></line><line x1="0" y1="66.75" x2="272" y2="66.75" fill="rgb(0, 0, 0)" stroke="rgb(60, 60, 60)" stroke-width="1px" opacity="0.25"></line><line x1="0" y1="44.5" x2="272" y2="44.5" fill="rgb(0, 0, 0)" stroke="rgb(60, 60, 60)" stroke-width="1px" opacity="0.25"></line><line x1="0" y1="22.25" x2="272" y2="22.25" fill="rgb(0, 0, 0)" stroke="rgb(60, 60, 60)" stroke-width="1px" opacity="0.25"></line><line x1="0" y1="0" x2="272" y2="0" fill="rgb(0, 0, 0)" stroke="rgb(60, 60, 60)" stroke-width="1px" opacity="0.25"></line></g></g></g><g><g><line x1="0" y1="89" x2="272" y2="89" fill="rgb(0, 0, 0)" stroke="rgb(153, 153, 153)" stroke-width="1.5px"></line></g></g><g><g><line x1="24.727272727272727" y1="0" x2="24.727272727272727" y2="178" fill="rgb(0, 0, 0)" stroke="rgb(153, 153, 153)" stroke-width="1.5px"></line></g></g><g><g><g><g><g><path stroke="rgb(255, 112, 67)" stroke-width="2px" d="M24.774254545454546,92.54653956651688L24.84151272727273,93.15400634616614L24.934487272727274,95.588710602011L25.025483636363635,97.88008887209436L25.06949818181818,100.18880211648306L25.15258181818182,102.61189454803757L25.229236363636364,105.60587564323363L25.275723636363637,108.2926355685722L25.31429818181818,109.50986530991183L25.395898181818183,110.81793495956065L25.446341818181818,112.63612740496714L25.495796363636366,115.50173838153319L25.54426181818182,117.04044806103366L25.60706909090909,117.81325293296086L25.680756363636366,119.15708921139195L25.72180363636364,120.85098537610436L25.76285090909091,123.31814370558753L25.81725090909091,124.35785807341253L25.85434181818182,124.71076073205967L25.89242181818182,124.57798936566601L25.982429090909093,124.20472071849929L26.031883636363638,123.5930075156125L26.068479999999997,122.92901334641542L26.118429090909093,122.7085653647719L26.19904,122.50821889524404L26.341963636363634,123.94663712944813L26.42010181818182,124.51804742243834L26.459170909090908,124.35912716873722L26.51456,123.898757610498L26.56005818181818,123.47495044123403L26.65797818181818,123.73420751226416L26.698036363636362,124.36810146210485L26.737105454545453,124.28414421370789L26.788043636363636,125.00249353733167L26.85085090909091,125.73790740518288L26.99624727272727,127.68764706636959L27.04125090909091,129.98952750882805L27.07933090909091,131.1468208186761L27.13472,131.5555917596945L27.192087272727274,132.6359219212745L27.231156363636366,133.28772559286267L27.326109090909092,133.93769491108412L27.364683636363633,133.53909842236544L27.460625454545454,132.8728543322345L27.512552727272727,133.93584167354788L27.570414545454543,134.7450666344282L27.638661818181816,135.9449564388317L27.723229090909093,136.45073407144025L27.810763636363635,136.11983799534994L27.931927272727275,135.20134363887735L27.99028363636364,135.03076222275428L28.038254545454546,135.16391517361876L28.10402909090909,136.15280174089173L28.151999999999997,136.16601898093643L28.19304727272727,135.67401692139845L28.241512727272728,136.00989461939196L28.329047272727273,135.72961720681576L28.376523636363636,136.08300710997818L28.425483636363634,137.12602640343817L28.483839999999997,137.76134556313227L28.57285818181818,138.01450449669284L28.63813818181818,138.0566939394708L28.693527272727273,137.5075640473983L28.74298181818182,137.345136298312L28.785512727272728,137.02220827434854L28.831505454545457,137.21421545228003L28.885410909090908,137.72008624768637L28.93931636363636,138.30115927729832L29.011025454545454,139.34460497494834L29.136145454545456,139.78958830235183L29.190545454545454,140.9757447569238L29.28450909090909,141.9719097142617L29.375505454545454,142.350450805974L29.43584,143.02731227740765L29.50309818181818,143.04495589366627L29.555025454545454,142.25549404401227L29.60645818181818,142.10332698976185L29.69597090909091,141.71103928467744L29.733061818181817,140.6123153280086L29.791912727272727,139.68387550967137L29.943738181818183,139.24268436036826L30.438283636363636,138.0638496604104L30.932829090909088,136.88619981089468L31.172683636363637,134.2487406690075L31.537658181818184,132.77844271988596L32.014894545454545,132.32402508932904L32.24139636363636,131.60820785450073L32.561367272727274,129.47374743608913L33.04008727272727,126.83147140782046L33.27104,123.56823796249014L33.701294545454545,120.3843628214394L33.84669090909091,118.07949202910632L34.296727272727274,113.56740256151896L34.550923636363635,110.39373474980201L35.04546909090909,107.84834254208091L35.538036363636365,104.98048055042554L35.694312727272724,103.04051142901021L36.18885818181818,101.96484211283826L36.683403636363636,101.4925998172635L36.92919272727273,100.2563289981767L37.11860363636364,98.44099025664833L37.34807272727273,96.6418045383579L37.468247272727275,96.1171660627059L37.54341818181818,95.6880526207168L37.761512727272724,94.66598830689664L37.89108363636363,94.67558132260844L38.01125818181818,93.30343214088562L38.50580363636364,92.15848238643338L39.00034909090909,91.27846282062725L39.075025454545454,91.02630719123958L39.135360000000006,91.0933204647224L39.18778181818182,91.36185930993085L39.34306909090909,92.710834562933L39.39845818181818,93.57699038467142L40.063621818181815,93.29263933921655L40.558167272727275,93.0630756842184L40.69911272727273,92.91570327109622L40.760436363636366,92.77689784614162L41.18871272727272,93.27358822588872L41.83656727272727,92.0549319896981L42.331112727272725,91.11444368969708L42.82565818181818,90.5037390034873L42.99330909090909,90.44161671122781L43.112,91.3755041797213L43.16194909090909,91.9060466961415L43.386472727272725,92.54048900630184L43.442356363636364,92.69977205292052L43.936901818181816,92.95609385309021L44.431447272727276,93.53618190656543L44.977920000000005,95.16999333888555L45.02193454545455,96.95784933966556L45.516479999999994,98.22532105780935L45.57780363636363,100.21048977289972L45.749905454545456,101.36157963797079L45.79490909090909,101.79851748874562L45.935854545454546,102.55953805977569L46.21725090909091,104.17428707536736L46.71179636363636,105.09767499790597L47.265192727272726,105.91131801906829L47.759738181818186,106.27695025052789L48.09207272727273,107.07514057878353L48.442705454545454,106.74035853245077L48.937250909090906,106.72391008101832L49.26167272727273,107.60015567995865L49.40558545454545,108.2724632352457L49.53466181818182,109.04090176927241L50.37786181818182,110.4024896394443L50.87240727272727,111.08435346384236L51.366952727272725,111.11176828252906L51.861498181818185,110.96454237668296L52.68293818181819,112.40965811949121L52.83525818181818,112.96521873796671L53.329803636363636,113.07124835398608L53.43712,113.90212920800933L53.64235636363636,115.03909583077484L54.13690181818182,115.20157384673149L54.63144727272727,115.10812268328304L55.12599272727273,114.45179562992833L55.17198545454545,113.62294834200729L55.43607272727273,112.32598917427174L55.930618181818176,111.10414318718023L56.53445818181818,108.85991782759135L56.86036363636363,107.09808820876184L56.91031272727273,105.74142754073561L57.01812363636364,104.1745180425383L57.05768727272727,102.86027249010426L57.28468363636364,100.76524417490972L58.27377454545454,100.29236212307939L58.58682181818182,100.98581550535398L58.66149818181818,101.0052277103474L58.70254545454546,100.92504761024774L59.04773818181818,101.09183355119504L60.02397090909091,102.06824602762865L60.08925090909091,102.77103774261478L60.39240727272727,103.75437453002931L60.46114909090909,104.30404304534913L60.57736727272727,105.03751923388673L60.69605818181818,106.01112895671388L61.19060363636364,106.35196597113524L61.29693090909091,107.10862235459277L61.37952,107.6048061718499L61.460130909090914,108.81000044810507L61.517498181818176,109.47058709900219L61.58327272727273,110.49291793322944L61.71927272727273,112.99899779973259L61.80285090909091,115.30124743472237L61.907199999999996,118.5492288075131L62.05210181818182,119.79417261470806L62.1792,120.89765630930336L62.24002909090909,121.48557895403904L62.30679272727273,121.67808745421053L62.36119272727273,121.52924071715523L62.42993454545455,121.38733880285173L62.53477818181818,121.13760279037803L62.68759272727272,120.76777354251294L62.78501818181818,120.03928651625485L62.966516363636366,121.97048978695017L63.054545454545455,123.78406167917694L63.11488,126.40234182318L63.28994909090909,128.4292298467156L63.399243636363636,130.31549588532428L63.498647272727275,131.88455003363597L63.611898181818184,133.1451866394443L63.709323636363635,134.67769760073202L63.79339636363637,135.6495087887107L63.88043636363636,136.65007769449107L64.02830545454545,137.85559350695343L64.17469090909091,138.49933181217986L64.32948363636363,138.6135324216585L64.8240290909091,138.28270032457712L65.31857454545454,137.53306134159686L65.81312,136.72933129653526L66.40855272727272,135.75545844283815L66.56532363636364,135.03722324685523L66.71714909090909,134.27948253820102L66.81902545454545,133.5682270595417L67.08855272727273,137.84851803809318L67.1632290909091,139.87321763437936L67.28587636363636,140.68209304095475L67.53512727272727,141.6477556414674L68.13055999999999,144.1654046971363L68.2893090909091,145.97989186613336L68.35557818181817,147.4534613647972L68.44064,148.68028076785293L68.50690909090909,150.4576110266297L68.58010181818182,150.65016433326298L68.68642909090909,151.1526051307195L68.78138181818181,150.53412499859772L68.83528727272727,150.61489226600435L68.91936,149.98032760203424L69.0128290909091,149.7032881444725L69.46385454545454,150.41426637423234L69.62359272727274,150.5965922036898L69.70420363636363,150.49314331049513L70.10725818181818,148.44570283505195L70.28232727272729,147.69550083311125L70.38717090909091,147.12922170348003L70.60279272727273,146.20586024681947L70.67549090909091,145.71394618654384L70.7590690909091,145.44313776197512L70.84561454545455,145.09592637361573L70.99150545454545,144.61413394916946L71.04986181818181,144.3374518966013L71.1814109090909,143.83092423244318L71.25856,143.39352528836727L71.31988363636363,143.13144036833287L71.41533090909091,142.94354270305539L71.51275636363637,142.52930057910862L71.75706181818181,141.61900249712338L71.85943272727273,140.69073177476326L71.91581090909091,140.2492360314107L72.11066181818182,140.09829921772337L72.19424,139.6352804949895L72.51767272727272,139.86257169360013L72.64229818181818,140.03076782389934L73.13684363636364,139.59330177405153L73.27976727272727,145.9656501928489L73.77431272727273,149.12446000096324L73.88261818181817,150.45527164266778L73.97806545454546,150.72804262427255L74.10615272727273,150.36886823813774L74.36875636363636,149.70098134327327L74.76785454545454,149.04863571148155L74.90039272727273,148.30432464588307L75.07447272727273,147.5796184386529L75.22283636363636,146.8668394683431L75.50621090909091,146.22488682309572L75.73963636363636,145.43710756993164L76.23418181818182,144.31481172213478L76.6159709090909,144.1675834291549L76.7138909090909,143.45360236462184L76.96610909090909,142.46020170197625L77.9552,140.16313902655682L78.38842181818181,138.1668663871255L78.5817890909091,136.5821002857665L79.07633454545454,134.82211280207514L79.57088,132.92155327999996L80.06542545454545,131.08886965110545L80.55997090909091,129.9605805492082L80.76174545454545,127.62931198308937L81.15293090909091,126.47956370657725L81.64747636363637,125.20575952521588L82.14202181818182,123.6606736716725L82.63656727272726,122.56741802746639L83.13111272727272,121.39141163190952L83.41696,120.34061229896994L83.57867636363636,119.50700638695032L83.9664,119.36557655861063L84.22010181818182,119.85258603221226L84.35016727272728,120.59054135016234L84.45105454545455,121.06388792044896L84.52721454545456,120.92220572285042L84.6399709090909,120.76150512011162L84.79377454545454,120.56835483903474L84.93076363636364,119.59210508176558L85.3536,119.48537121861501L85.52817454545453,119.7004744248946L85.88622545454545,120.0025754569387L86.21410909090909,120.2152690900812L86.70865454545454,120.2134254158407L87.2032,120.0648817265552L87.39508363636364,120.11293442228566L87.7135709090909,120.54133035551985L87.79467636363637,121.5430706895082L87.97172363636365,123.51343372229867L88.84459636363637,123.68442679526885L88.92916363636364,123.65181016041328L89.28177454545455,123.62143839116985L89.42321454545454,123.90630911014135L89.68334545454545,124.14396388710531L90.1778909090909,124.07475533116455L90.67243636363636,124.19978062789795L91.16698181818182,124.20782852078173L91.66152727272727,123.66753225651202L92.65061818181817,123.16265880398045L93.14516363636363,122.85270284159238L94.13425454545454,122.12997653283628L94.6288,121.75541379140587L94.70496,121.67387113861307L95.19950545454546,121.34946327765026L95.69405090909092,121.15653103971027L96.26178909090909,120.75452973832812L96.75633454545455,120.50761164182501L96.99322181818182,121.53331532188699L97.48776727272728,121.73368349855211L98.32008727272726,120.9025227059428L98.55351272727273,120.55604534658814L98.70138181818183,120.30628672333374L99.16130909090909,121.009513443302L99.5346909090909,122.04610165118628L99.9337890909091,123.04177825450572L100.42833454545455,123.11615983295245L100.92287999999999,123.21677365856053L101.91197090909091,122.41049875019003L102.40651636363637,121.46304456566577L103.39560727272726,119.9018233366895L104.38469818181818,118.35618425775101L104.87924363636364,117.11540024428683L105.37378909090909,116.26880581277084L105.88663272727273,117.08361803661268L106.18731636363636,118.3096031644969L106.68186181818182,118.6682561003583L107.67095272727273,117.13227888604506L107.75848727272727,114.64450318825544L108.25303272727272,112.53929054362955L108.48052363636363,109.920753090521L108.97506909090909,108.37538773688094L109.46961454545455,107.51181474204311L109.62836363636363,105.4512260904041L110.2861090909091,105.65474150598807L111.00517818181818,106.10752413332916L111.99426909090909,105.9812794030932L112.34144,104.65147909434005L112.93093818181819,102.07047170037845L113.3542690909091,99.58910299894106L113.67671272727273,95.82856835530336L113.87947636363637,92.54799700168452L114.37402181818183,90.93781906263638L114.86856727272726,89.86336774549848L115.36311272727272,88.69717088438252L115.98871272727273,89.40895929561364L116.24043636363636,89.03761319772188L116.73498181818181,89.05347480115762L117.22952727272727,89.02290062810462L117.53664,88.19026536789823L117.97777454545454,87.13424468140178L118.30170181818181,88.04615488147958L118.79624727272727,88.30986210630074L119.19237818181819,89.79439160803399L119.68692363636364,90.70850362097883L120.01876363636364,90.43148368284501L120.25812363636364,89.25343997529386L121.10181818181819,87.69054902393364L121.23979636363636,85.76512627219405L121.33672727272727,83.63277573356179L121.83127272727273,83.03963613181797L121.9766690909091,81.7989539737075L122.47121454545456,80.84879023471889L122.58990545454546,79.17440978383671L122.9613090909091,79.43380735406667L123.09632,78.72451109701032L123.50827636363637,79.61524749835512L123.91034181818182,81.20897196054567L123.95979636363636,82.16424413251941L124.01419636363637,82.791895592976L124.15365818181817,81.9702182464411L124.28718545454545,80.37515171126189L124.50132363636364,78.70049734542168L124.58440727272728,76.86346455257771L124.81189818181818,77.1142724151709L125.30644363636364,77.8646145660459L125.95182545454546,77.52621767227525L126.07744,76.51280402102873L126.9542690909091,76.79895418690923L127.12637090909091,77.83559640054274L127.21143272727272,77.65879464223606L127.31133090909091,76.59611127325665L127.47601454545455,76.94517141788467L127.58728727272728,76.27611852532188L127.64168727272727,75.9129147179458L127.76433454545455,76.68265158650479L127.9225890909091,78.39340125463725L128.13870545454546,78.3675553401847L128.40872727272728,79.38571571830148L128.70693818181817,82.18903411008856L128.83403636363636,82.90825329076016L129.16637090909092,83.26679056698539L129.45568,81.42319820722615L129.73361454545454,79.62295693397924L129.79790545454546,78.69786583900692L129.90818909090908,78.87136932945396L129.95467636363637,79.7195104595193L130.03083636363635,81.04511877418571L130.1757381818182,82.27013341546662L130.67028363636362,83.4087485291994L130.73111272727272,84.29919150986888L131.22565818181818,85.00957404708039L131.33445818181818,86.09755391559106L131.87351272727273,87.12771436751545L131.93632,87.91182856649554L132.12721454545454,89.42213098293779L132.2454109090909,90.49046394208811L132.2909090909091,91.4004854880556L132.33739636363637,92.16595353763012L132.39229090909092,92.98186636162227L132.87348363636363,92.73715616245524L133.06734545454546,93.45663127720032L133.2409309090909,92.5618492020349L133.29038545454546,91.9631135256994L133.63557818181818,92.80752146052767L133.74487272727274,92.91690088443428L133.78245818181819,93.25741021831315L133.8249890909091,93.5641559240787L133.87691636363635,94.00281130347065L133.92241454545456,94.08705373879322L133.96593454545453,94.4645084521535L134.02033454545455,94.6411564358093L134.05792,95.17571558237182L134.1088581818182,96.09503840398851L134.5900509090909,98.01555438394584L134.65879272727273,99.77950844594979L134.71517090909092,100.94213667767728L134.75621818181818,101.7329880231469L134.90260363636364,102.45241179429587L134.94464,102.87445186783728L134.9945890909091,103.46045356088791L135.04701090909091,103.58714542754836L135.32049454545455,102.46690492849558L135.39566545454545,101.99313213098651L135.44462545454545,101.60584099810485L135.63502545454546,101.7303195021222L135.75668363636362,101.44771206031261L135.81058909090908,101.22531436997663L135.86103272727271,100.97744150971181L135.90504727272727,100.44077925214056L136.3995927272727,100.12480511003068L136.49306181818181,99.91430794699986L136.75269818181818,99.82594560041427L136.86248727272726,100.23466831621171L137.2042181818182,101.43412770328904L137.5044072727273,102.83070770870438L137.61370181818182,103.96300444394821L137.73733818181816,104.99992385167165L137.98510545454548,106.17516263925006L138.44107636363637,108.36344210411887L138.88270545454546,110.50302974001039L139.37725090909092,111.82814051398915L139.7066181818182,111.37969489341546L140.20116363636365,110.98184125092965L140.39156363636366,109.26140183155144L141.16552727272727,107.3656259194875L141.66007272727273,106.15726294182923L142.05620363636365,105.41578308858386L142.2406690909091,103.86080432580655L142.62295272727272,103.5649667454168L143.08831999999998,104.11938211634188L143.58286545454544,104.68184570046918L143.9443781818182,104.21271585686597L144.06306909090907,102.39870537318943L144.24753454545456,99.86698973201607L144.40578909090908,97.058580893653L144.52002909090908,94.28604702185235L144.60509090909093,91.51593906182434L144.73713454545452,88.74823756848804L145.27767272727272,85.55057933232206L145.3760872727273,82.53092207754266L145.87063272727272,81.18702516653902L146.31077818181816,78.76929486905794L146.46656,76.30794358250654L146.67822545454547,74.29882491872999L146.93390545454545,72.48645319250996L147.4284509090909,71.70513876883851L147.68116363636364,72.11770691852966L147.89035636363636,71.8177883509469L148.1173527272727,71.04582003663016L148.26472727272727,70.01645775836724L148.61437090909092,68.65229680467856L148.85373090909093,69.02778691917187L149.0797381818182,68.81239545625166L149.62423272727273,67.55647864795753L149.85914181818183,67.10660833440441L150.00404363636363,66.50426158572566L150.20779636363636,65.56574144545392L150.9229090909091,64.8671147204828L151.92683636363634,62.52034027394008L152.0890472727273,60.749565568782984L152.19339636363637,58.9996743388284L152.2898327272727,57.24089838381461L152.67904000000001,56.13844526502996L152.81157818181816,55.014219838461344L153.01384727272728,53.82197961120667L153.12215272727275,52.604422935181034L153.57960727272726,50.54863824292015L154.07415272727272,50.29359569599622L154.16069818181816,49.81277513915538L154.27345454545457,49.00227830370804L154.6127127272727,48.00782762980785L154.78976,47.18653733716204L154.99944727272728,46.35567560664293L155.31744,45.11441407675434L155.4054690909091,43.95092557617954L155.55383272727272,42.95064042871553L155.6522472727273,42.102610804470544L155.74423272727273,41.299573990006536L155.85204363636365,40.68811550301271L156.00139636363636,40.02876508427835L156.17102545454546,39.385949510772065L156.30405818181816,38.84745709659998L156.5434181818182,38.506743896021504L156.65864727272728,38.36945844698792L156.75508363636365,38.13665523176698L156.9341090909091,37.95640616396253L157.36238545454546,38.337160547132385L157.44992000000002,38.410652193757954L157.5992727272727,38.21707388766589L158.44791272727272,38.888007073688414L158.58045090909093,38.95110781782145L158.71150545454546,38.82882231398386L158.84552727272728,38.44090630342939L158.98152727272728,38.121734242262704L159.16352,37.941260943306844L159.27231999999998,37.57851160138449L159.60366545454548,37.723347958145155L159.74411636363635,37.89799223435975L159.8454981818182,37.95179419620666L160.27476363636362,38.20198386635681L160.3776290909091,38.00403129271447L160.49928727272726,37.83140969664919L160.61995636363636,37.46540923351685L160.95179636363636,36.99971993586206L161.0981818181818,36.59097008407585L161.20896,36.13322887051385L161.30094545454546,35.68410959403684L161.5600872727273,35.64880895710567L161.76334545454546,35.76250969372143L161.90132363636363,35.745971270334394L162.08430545454544,35.73332943578464L162.24552727272726,35.533704997896535L162.41762909090912,35.23554601204361L162.66836363636364,35.14573346049764L162.99130181818182,35.27007136291965L163.19752727272729,35.47670607153597L163.35232,35.455218558693076L163.58277818181816,35.63224414180766L163.69652363636365,35.80763629526527L163.84488727272728,36.027216542784146L164.21332363636364,36.39961750806796L164.3196509090909,36.54719433296577L164.4610909090909,36.625314814501166L164.77661090909092,36.905839264066884L165.46551272727274,39.130586825652074L165.81713454545454,40.36065502813051L166.06885818181817,41.674930751863656L166.23749818181818,44.113061264838876L166.36509090909092,45.11192983751661L166.46845090909093,45.242057637007036L166.7612218181818,44.94142258574425L167.25576727272727,45.30982101970827L167.37248,45.46039314588259L167.4278690909091,46.494509065630155L167.5203490909091,46.89405393486149L167.67316363636363,46.81739194038465L167.98324363636362,48.4651922900853L168.07374545454545,49.018836382351964L168.17018181818182,48.94042994220416L168.96096,48.59404454063986L169.0450327272727,48.30730347914465L169.24977454545456,47.97159151436668L169.82245818181818,48.487847700368064L170.07072000000002,48.87749308982529L170.15578181818182,49.100938908094406L170.32095999999999,48.91662524976388L170.4342109090909,48.62133652375971L170.55586909090908,49.251388507883775L170.72302545454545,49.18404623949587L170.8565527272727,50.9678828523401L170.94458181818183,51.62507005869411L171.21608727272726,52.183010327452806L171.3446690909091,52.28058058001659L171.6127127272727,52.39933380638398L171.82437818181816,52.26462657472395L172.11022545454546,52.300586217051176L172.38667636363638,51.470518264654544L172.8569890909091,51.38758584587768L173.05826909090908,50.928595605427006L173.23680000000002,50.45751309140563L173.33125818181819,49.76909305992149L173.47714909090908,49.153876215591566L173.5904,48.76683230589305L173.76398545454546,48.38129091185613L173.86784,47.95213473082947L174.36238545454546,48.844245178707666L174.47118545454543,49.0646353793193L174.72933818181818,49.24788805437382L174.83616,48.951352095319606L175.02804363636363,48.57919796068293L175.3312,47.603209328167594L175.4825309090909,46.99474416989861L175.71793454545454,46.280007085435244L175.88212363636362,45.977461831827554L176.00328727272728,45.739891405737154L176.1264290909091,45.32375997771965L176.48497454545455,45.33480565399017L176.61504,45.20646910101229L177.03392,45.378569662511666L177.10711272727272,45.08595002504606L177.5388509090909,44.90005991370927L178.01015272727273,46.582373701521476L178.1372509090909,47.0482122915916L178.2994618181818,46.952379782791894L178.4864,46.870718168137046L178.58036363636364,46.54494744140953L178.97352727272727,46.32970390796095L179.0576,45.819355425831276L179.17233454545453,45.494649937627656L179.28261818181818,45.11260967998382L179.42306909090908,44.45165350025104L179.69556363636363,44.59721983757737L179.86420363636364,44.627974511189024L179.99822545454546,44.60903525602981L180.33451636363637,44.13252393682103L180.46260363636364,43.74122569632112L180.57931636363634,43.32781798310029L180.73509818181816,42.94113999335136L180.85922909090908,42.605063115883866L180.97495272727272,42.126458539085974L181.11144727272728,41.49906390518987L181.25783272727273,40.82530769736198L181.3438836363636,40.19483296436445L181.45070545454544,39.504297132744625L181.58027636363636,39.05428926292316L181.64456727272727,38.51124537171873L181.87601454545452,38.15191638196677L182.00558545454547,37.8820493042777L182.50013090909093,38.86112736393872L182.72910545454548,39.402440486966725L183.2236509090909,40.86561381305407L183.36311272727272,41.70060942247599L183.56785454545454,42.16448497721609L183.6425309090909,42.14981078308256L183.76715636363636,42.0840123701181L183.83985454545453,41.87620658588921L183.99514181818182,41.33626130504916L184.26763636363634,40.99980838825411L184.34577454545456,40.55343244201009L184.41847272727273,40.89553717211524L184.5594181818182,40.8005363688209L184.71915636363636,40.698544279178265L184.97384727272726,41.93464326062221L185.04407272727272,42.44921385859499L185.53861818181818,43.78718032321365L186.03761454545455,46.131658138996556L186.5148509090909,47.14170571408641L186.9693381818182,47.43054410411102L187.08605090909091,47.10778105231037L187.22452363636364,48.45653548319285L187.40206545454546,50.60605730676143L187.99799272727273,51.55825457753829L188.12261818181818,51.82087320245559L188.25515636363636,51.70842003963742L188.41637818181817,51.41201785935375L188.64288000000002,50.454174445470656L188.76552727272727,49.532189680099776L188.86245818181817,48.584453792190715L188.9593890909091,47.59380646110546L189.1117090909091,46.35166656709299L189.22545454545454,45.26024330268251L189.38272,44.321347397625146L189.51476363636363,43.39768587998131L189.61861818181816,42.47974003751028L189.7605527272727,41.555121198409495L189.86885818181818,40.739211162038856L189.97122909090908,40.10349062544597L190.07805090909093,39.6516755672842L190.18635636363635,39.19919824198183L190.2679563636364,38.81652431628285L190.39208727272728,40.56007560051191L190.53550545454544,41.22401671956007L191.00482909090908,41.53172594970482L191.13390545454544,41.39125486913932L191.45585454545454,40.82747956027754L191.6749381818182,40.59744411128858L191.77335272727274,40.256824804175494L191.86385454545456,39.93086723663126L192.1689890909091,40.37569723712039L192.27630545454548,40.351203620592514L192.53544727272728,39.99961903820022L192.69320727272728,39.73242674213401L192.88113454545456,39.08546594823454L193.08043636363635,38.24394843795923L193.33067636363637,37.66017156826874L193.42760727272724,37.18383116666925L193.58635636363638,36.89376134648589L193.69317818181818,36.693550173370085L193.82027636363637,36.59562729640484L194.2994909090909,36.16165062405872L194.39246545454543,35.56068915068036L194.5007709090909,35.07485416423634L194.6976,34.666150917120916L194.85239272727273,34.37924009556065L195.09076363636362,34.05809573885492L195.17236363636366,33.7103123383325L195.25989818181816,33.229530664718254L195.37067636363636,32.66485420205359L195.52744727272727,32.280461898673565L195.64366545454544,32.01141050102055L195.73466181818182,31.90371971369825L195.9314909090909,32.11054600668578L196.0323781818182,32.163062619880606L196.32317090909092,32.25357365591273L196.99872,32.87602392377224L197.29989818181818,33.3231578265534L197.39979636363634,33.54377395313415L197.49227636363636,33.673058179863915L197.5817890909091,33.796875145345126L197.6915781818182,33.776989863818386L197.7746618181818,33.80140099531741L197.88593454545455,33.62609020046193L197.99671272727272,33.44255612833379L198.06990545454548,33.20700239648272L198.1485381818182,32.97464668935447L198.2563490909091,32.64031897369571L198.75089454545457,33.38657636346545L199.07828363636364,33.829756944788244L199.2093381818182,34.03296222961711L199.34187636363637,33.884338220338606L199.44474181818183,33.87028336738382L199.95412363636362,33.75451837858458L200.05847272727272,33.51645696831284L200.18705454545454,33.16465019722307L200.27013818181817,32.95621972953987L200.37547636363638,32.78070376155205L200.86804363636364,32.68865264938728L200.95607272727273,32.47894310025251L201.18949818181818,32.43935513322279L201.31758545454545,32.272782177834074L201.68503272727273,32.51203818792604L202.1795781818182,33.113600384679444L202.39223272727273,33.569011930636776L202.67758545454546,33.895708290584196L202.81012363636364,33.95980142393549L203.1261381818182,34.06052172350189L203.32791272727272,35.71568843082966L203.52968727272727,36.46612303469411L203.7922909090909,36.88698375733992L204.02324363636362,37.03616887684049L204.09248,37.91138035747633L204.16320000000002,39.141865110237774L204.2373818181818,39.65472532834971L204.42926545454546,39.49402355150201L204.52421818181818,39.20050583622347L205.11421090909093,39.861670963892294L205.21608727272726,40.10033990438518L205.40945454545454,40.30104850134694L205.65425454545453,40.19115139389899L205.76008727272728,39.913300348668486L206.25463272727274,40.93150679001161L206.83572363636364,42.20162764578433L207.06865454545454,42.56077878778797L207.32433454545455,42.558729006681574L207.40741818181817,42.17186959089861L207.49445818181817,41.63546780861631L207.57853090909092,41.22336376927623L207.67546181818182,40.717369045867486L207.91037090909091,40.97853435781835L208.1319272727273,40.84050524298692L208.27237818181817,40.40048455753532L208.50382545454545,39.55244631313448L208.6576290909091,38.82290510477523L208.7614836363636,38.16939177502334L208.84901818181817,37.69440307038508L209.08689454545453,36.921595165595306L209.17294545454547,36.308879966178466L209.3302109090909,36.049870338105535L209.50181818181818,35.86796256236039L209.59924363636364,35.59516550738692L209.84107636363635,35.432719009632365L209.9439418181818,35.026532360979616L210.05076363636365,34.88920590035238L210.44145454545452,35.22929384965968L210.5344290909091,35.468110886211804L210.8370909090909,35.5281822513316L210.95578181818183,35.593390170501095L211.1615127272727,36.97924696240807L211.39938909090907,37.63112325068707L211.53341090909092,37.954301239230574L211.72875636363636,38.043924737678964L212.00916363636364,38.31594819587889L212.14120727272729,38.17273995329393L212.43150545454546,38.411384709891394L212.61250909090907,38.242757858405554L212.75889454545455,37.87688904426699L213.25344,38.171069248093374L213.34839272727274,38.10433342812851L213.4393890909091,37.92389992259976L213.52939636363635,37.578703936714135L213.62781090909093,37.13710442684783L213.7311709090909,36.650877814189755L214.10900363636364,36.07269075101385L214.19554909090908,35.64639202324014L214.29297454545454,35.35778507356321L214.3948509090909,34.9655933921604L214.49771636363636,34.691210512224956L214.5897018181818,34.376472050132804L214.7647709090909,33.91046681772619L214.93044363636363,33.34113429290622L215.21530181818184,33.13431404437165L215.40421818181818,32.91242048839061L215.89876363636364,33.15558693658903L215.99371636363637,33.259004841396774L216.09064727272727,33.201780971854674L216.17620363636365,33.14749036656008L216.67074909090908,33.91064955440871L216.87598545454546,34.292269829080766L217.33888,34.869260838488515L217.68011636363636,35.081814208781594L217.8621090909091,35.083024789307046L218.28642909090908,35.066592400439674L218.41352727272726,34.86118447468763L218.50897454545455,34.73048276428034L218.60392727272728,34.54504336645397L218.81707636363637,34.27885676938408L218.94565818181817,33.97450623081991L219.0396218181818,33.64860721139232L219.1306181818182,33.41316338079051L219.30914909090907,32.922108721833666L219.3798690909091,32.599474659980075L219.47136,32.50926491988943L219.7042909090909,32.41540441091803L219.78935272727273,32.24623291144337L219.86749090909092,32.036120026407076L219.99805090909092,31.833372363744587L220.18894545454546,31.696589855014338L220.28933818181818,31.37865459660236L220.37588363636365,31.17169483315672L220.47281454545453,31.167115441153783L220.5583709090909,31.06099167680165L220.64491636363638,30.976903477760686L220.74481454545455,30.87966906419547L220.89812363636366,31.12839851493328L220.98862545454546,31.38831581184087L221.10336,31.535702438764645L221.35013818181818,31.59047422815135L221.84468363636364,33.23279289870723L221.97425454545453,34.07510725777905L222.07613090909092,34.485429543266065L222.1522909090909,34.66296487927991L222.26455272727273,34.521091122392164L222.36741818181818,34.36559907040794L222.71755636363636,34.13089737559437L222.8313018181818,33.87477670660664L222.93218909090908,33.651480709022564L223.03802181818182,33.57838097912449L223.16561454545456,33.444311134471775L223.3001309090909,33.32270998695748L223.56768,33.38745784031903L223.6656,33.376472201750005L223.80357818181818,33.41803799939473L224.29812363636364,34.2171726378937L224.40989090909093,34.71123868710632L224.91877818181817,34.63047128538389L225.03351272727272,34.550007456899294L225.16110545454544,34.44859479091204L225.25457454545455,34.296613722691745L225.35744,34.16554103329764L225.42123636363635,34.918030796736446L225.56366545454546,35.31688596766588L225.65960727272727,35.33527438760635L225.92369454545457,35.119746923213256L226.00974545454545,34.967900689938716L226.18976,35.01255407363115L226.29015272727273,35.013574726283196L226.37818181818182,34.84561321955897L226.47511272727272,34.733646129977586L226.56660363636365,34.50282978308908L226.6704581818182,34.163015771464785L226.79409454545456,33.822184752795835L226.88014545454547,33.57908950768339L227.02603636363636,33.227961715474294L227.11010909090908,32.98196397996816L227.19220363636364,32.72927129874748L227.2752872727273,32.64341025239304L227.38112,32.56071592072294L227.52058181818182,32.4453474754074L227.64817454545457,32.23164943373078L228.0329309090909,32.1740768031828L228.53588363636365,31.96093704870654L228.74903272727272,31.85033823020052L228.87613090909093,31.81351885608902L229.0249890909091,31.826323227715932L229.21934545454545,31.827308035750633L229.4364509090909,31.74752242521015L229.6288290909091,31.826496700975724L229.73614545454546,31.70329340632759L229.81824,31.62194570932391L229.94336,31.52115433355334L230.2623418181818,31.654204532505048L230.3503709090909,31.620497725606555L230.44680727272728,31.650876638293596L230.53681454545455,31.5578865786793L230.64660363636364,31.416493055606026L230.90673454545455,31.333848805775716L231.0412509090909,31.123118151873598L231.13224727272728,31.027846599132005L231.25439999999998,31.274013745612024L231.4818909090909,31.49196232451564L231.56596363636362,31.508436763605857L231.70888727272728,31.74241304082952L232.22914909090912,32.43611953165106L232.34437818181817,32.92043923608048L232.43784727272728,33.15496469826451L232.5881890909091,33.309612028187246L232.69105454545456,33.430346013299015L233.1494981818182,33.50465505670991L233.3725381818182,33.51444498104743L233.83592727272728,33.530701092022014L233.92692363636363,33.59102244659505L234.0263272727273,33.29807985284472L234.10891636363638,33.19706310640896L234.2172218181818,32.98746198493913L234.31761454545455,32.57814146708654L234.92491636363638,32.81765048999313L235.04954181818184,32.831787407033005L235.1430109090909,32.743963343877994L235.38879999999997,32.582882995950854L235.4768290909091,32.335986175744324L235.5910690909091,32.24935336316142L235.69640727272727,32.12274437263318L235.8002618181818,31.966416063277165L235.8882909090909,31.73390966604248L235.9782981818182,31.45394727057277L236.07077818181818,31.324575973427642L236.19886545454546,31.316864694164025L236.28986181818183,31.262550243500357L236.38679272727273,31.242064356305264L236.5999418181818,32.17835018604879L236.75325090909092,32.698669108211305L236.91150545454545,32.93490979317386L237.06382545454545,32.903689787647494L237.17559272727271,32.792155294097284L237.28933818181818,32.752177957342155L237.39566545454545,32.72595351817972L237.48765090909092,32.73096687103967L237.57963636363638,32.683340651188246L237.72206545454543,32.44578820418951L237.86103272727271,32.24860680312895L237.95301818181818,32.28233374435294L238.09643636363637,32.335017373076624L238.19633454545453,32.124884233660424L238.7868218181818,33.27571587955171L238.9005672727273,33.75835852858552L239.03211636363636,33.92538035152634L239.13003636363635,33.973515625466604L239.21954909090908,33.8822706911979L239.35604363636364,33.97829925859082L239.49154909090907,33.95501706125802L239.90795636363637,33.47218847466985L240.3392,33.229403187951334L240.5033890909091,33.02759232170632L240.6853818181818,32.87924194697888L240.9667781818182,33.025471422459816L241.05134545454544,33.010920762411416L241.13492363636362,32.900014737720284L241.22987636363638,32.79260114304719L241.54984727272728,34.13217225809396L241.74370909090908,34.999789972898384L241.88119272727272,35.51543637692751L241.96279272727273,35.87290942442311L242.0592290909091,37.018241504263244L242.2748509090909,37.95254693808042L242.43409454545454,38.43512075318026L242.54091636363634,38.719336123783165L242.64180363636362,38.62348053474352L242.71648000000002,38.29180220329238L242.8559418181818,38.07094989802525L242.98996363636363,37.669778999484095L243.31537454545455,37.50332415628225L243.46670545454543,37.337330019282035L243.55968000000001,37.00654213083192L243.63979636363635,36.782340119197386" style="fill: none;" fill="none"></path></g></g></g></g><g opacity="0.2"><g><g><g><path stroke="rgb(255, 112, 67)" stroke-width="2px" d="M24.774254545454546,92.54653956651688L24.84151272727273,93.51848641395569L24.934487272727274,97.92602668762207L25.025483636363635,100.5747497177124L25.06949818181818,103.20305812835694L25.15258181818182,105.96390369415283L25.229236363636364,109.88731651306152L25.275723636363637,112.20995733261108L25.31429818181818,111.30504274368286L25.395898181818183,112.76026594161986L25.446341818181818,115.34692520141601L25.495796363636366,119.78456031799317L25.54426181818182,119.3434884262085L25.60706909090909,118.97094623565674L25.680756363636366,121.17126399993896L25.72180363636364,123.39063495635986L25.76285090909091,127.01783718109131L25.81725090909091,125.91716564178466L25.85434181818182,125.2400609588623L25.89242181818182,124.3788444519043L25.982429090909093,123.64483821868896L26.031883636363638,122.67545783996582L26.068479999999997,121.93303520202636L26.118429090909093,122.37789600372315L26.19904,122.2077006149292L26.341963636363634,126.10425834655761L26.42010181818182,125.37516139984132L26.459170909090908,124.12074703216553L26.51456,123.2082036972046L26.56005818181818,122.83923992156983L26.65797818181818,124.12309303283692L26.698036363636362,125.31894226074219L26.737105454545453,124.15820835113524L26.788043636363636,126.08001747131348L26.85085090909091,126.84102817535401L26.99624727272727,130.61225650787352L27.04125090909091,133.44234813690184L27.07933090909091,132.88276077270507L27.13472,132.1687481689453L27.192087272727274,134.25641716003418L27.231156363636366,134.265431098938L27.326109090909092,134.91264888763428L27.364683636363633,132.9412036895752L27.460625454545454,131.87348819732665L27.512552727272727,135.53032268524169L27.570414545454543,135.95890407562257L27.638661818181816,137.7447911453247L27.723229090909093,137.20940052032472L27.810763636363635,135.62349388122558L27.931927272727275,133.82360210418702L27.99028363636364,134.77489009857177L28.038254545454546,135.36364459991455L28.10402909090909,137.63613159179687L28.151999999999997,136.18584484100342L28.19304727272727,134.93601383209227L28.241512727272728,136.51371116638182L28.329047272727273,135.30920108795166L28.376523636363636,136.61309196472166L28.425483636363634,138.69055534362792L28.483839999999997,138.71432430267333L28.57285818181818,138.39424289703368L28.63813818181818,138.1199781036377L28.693527272727273,136.68386920928955L28.74298181818182,137.1014946746826L28.785512727272728,136.5378162384033L28.831505454545457,137.50222621917726L28.885410909090908,138.4788924407959L28.93931636363636,139.17276882171632L29.011025454545454,140.90977352142335L29.136145454545456,140.45706329345703L29.190545454545454,142.75497943878173L29.28450909090909,143.46615715026854L29.375505454545454,142.9182624435425L29.43584,144.0426044845581L29.50309818181818,143.0714213180542L29.555025454545454,141.07130126953126L29.60645818181818,141.87507640838624L29.69597090909091,141.12260772705076L29.733061818181817,138.96422939300538L29.791912727272727,138.29121578216552L29.943738181818183,138.58089763641357L30.438283636363636,136.29559761047364L30.932829090909088,135.1197250366211L31.172683636363637,130.29255195617677L31.537658181818184,130.5729957962036L32.014894545454545,131.64239864349366L32.24139636363636,130.5344820022583L32.561367272727274,126.27205680847169L33.04008727272727,122.86805736541749L33.27104,118.67338779449463L33.701294545454545,115.60855010986327L33.84669090909091,114.62218584060669L34.296727272727274,106.79926836013793L34.550923636363635,105.63323303222657L35.04546909090909,104.03025423049927L35.538036363636365,100.67868756294251L35.694312727272724,100.1305577468872L36.18885818181818,100.35133813858033L36.683403636363636,100.78423637390136L36.92919272727273,98.40192276954652L37.11860363636364,95.71798214435577L37.34807272727273,93.94302596092224L37.468247272727275,95.3302083492279L37.54341818181818,95.04438245773316L37.761512727272724,93.13289183616638L37.89108363636363,94.68997084617614L38.01125818181818,91.24520836830139L38.50580363636364,90.44105775475502L39.00034909090909,89.9584334719181L39.075025454545454,90.64807374715805L39.135360000000006,91.1938403749466L39.18778181818182,91.76466757774354L39.34306909090909,94.73429744243622L39.39845818181818,94.87622411727905L40.063621818181815,92.86611277103424L40.558167272727275,92.7187302017212L40.69911272727273,92.69464465141297L40.760436363636366,92.56868970870973L41.18871272727272,94.01862379550934L41.83656727272727,90.22694763541222L42.331112727272725,89.70371123969555L42.82565818181818,89.58768197417258L42.99330909090909,90.34843327283859L43.112,92.77633538246154L43.16194909090909,92.70186047077179L43.386472727272725,93.49215247154237L43.442356363636364,92.93869662284851L43.936901818181816,93.34057655334472L44.431447272727276,94.40631398677826L44.977920000000005,97.62071048736571L45.02193454545455,99.63963334083557L45.516479999999994,100.12652863502502L45.57780363636363,103.18824284553527L45.749905454545456,103.08821443557738L45.79490909090909,102.45392426490784L45.935854545454546,103.70106891632079L46.21725090909091,106.59641059875489L46.71179636363636,106.48275688171387L47.265192727272726,107.13178255081178L47.759738181818186,106.82539859771728L48.09207272727273,108.27242607116699L48.442705454545454,106.23818546295166L48.937250909090906,106.69923740386963L49.26167272727273,108.91452407836914L49.40558545454545,109.28092456817626L49.53466181818182,110.1935595703125L50.37786181818182,112.44487144470216L50.87240727272727,112.10714920043945L51.366952727272725,111.15289051055909L51.861498181818185,110.74370351791381L52.68293818181819,114.57733173370362L52.83525818181818,113.79855966567993L53.329803636363636,113.23029277801513L53.43712,115.1484504890442L53.64235636363636,116.74454576492309L54.13690181818182,115.4452908706665L54.63144727272727,114.96794593811035L55.12599272727273,113.46730504989624L55.17198545454545,112.37967741012572L55.43607272727273,110.38055042266845L55.930618181818176,109.27137420654296L56.53445818181818,105.49357978820801L56.86036363636363,104.45534378051758L56.91031272727273,103.70643653869628L57.01812363636364,101.82415379524231L57.05768727272727,100.88890416145325L57.28468363636364,97.62270170211792L58.27377454545454,99.58303904533386L58.58682181818182,102.02599557876587L58.66149818181818,101.03434601783752L58.70254545454546,100.80477746009826L59.04773818181818,101.34201246261597L60.02397090909091,103.53286474227905L60.08925090909091,103.825225315094L60.39240727272727,105.22937971115113L60.46114909090909,105.12854581832886L60.57736727272727,106.13773351669312L60.69605818181818,107.4715435409546L61.19060363636364,106.86322149276734L61.29693090909091,108.24360692977906L61.37952,108.34908189773559L61.460130909090914,110.61779186248779L61.517498181818176,110.4614670753479L61.58327272727273,112.02641418457031L61.71927272727273,116.7581175994873L61.80285090909091,118.75462188720704L61.907199999999996,123.42120086669922L62.05210181818182,121.66158832550049L62.1792,122.55288185119629L62.24002909090909,122.36746292114258L62.30679272727273,121.96685020446778L62.36119272727273,121.30597061157226L62.42993454545455,121.17448593139648L62.53477818181818,120.76299877166748L62.68759272727272,120.21302967071533L62.78501818181818,118.94655597686767L62.966516363636366,124.86729469299317L63.054545454545455,126.50441951751709L63.11488,130.32976203918457L63.28994909090909,131.46956188201904L63.399243636363636,133.14489494323732L63.498647272727275,134.23813125610351L63.611898181818184,135.03614154815673L63.709323636363635,136.97646404266357L63.79339636363637,137.1072255706787L63.88043636363636,138.15093105316163L64.02830545454545,139.66386722564698L64.17469090909091,139.46493927001953L64.32948363636363,138.78483333587647L64.8240290909091,137.78645217895507L65.31857454545454,136.40860286712646L65.81312,135.52373622894288L66.40855272727272,134.29464916229247L66.56532363636364,133.95987045288086L66.71714909090909,133.14287147521972L66.81902545454545,132.50134384155274L67.08855272727273,144.26895450592042L67.1632290909091,142.9102670288086L67.28587636363636,141.89540615081788L67.53512727272727,143.09624954223634L68.13055999999999,147.94187828063966L68.2893090909091,148.7016226196289L68.35557818181817,149.66381561279297L68.44064,150.52050987243652L68.50690909090909,153.12360641479492L68.58010181818182,150.9389942932129L68.68642909090909,151.9062663269043L68.78138181818181,149.60640480041505L68.83528727272727,150.73604316711425L68.91936,149.02848060607909L69.0128290909091,149.2877289581299L69.46385454545454,151.48073371887207L69.62359272727274,150.87008094787598L69.70420363636363,150.3379699707031L70.10725818181818,145.3745421218872L70.28232727272729,146.5701978302002L70.38717090909091,146.2798030090332L70.60279272727273,144.82081806182862L70.67549090909091,144.9760750961304L70.7590690909091,145.03692512512208L70.84561454545455,144.57510929107667L70.99150545454545,143.8914453125L71.04986181818181,143.92242881774902L71.1814109090909,143.07113273620604L71.25856,142.73742687225342L71.31988363636363,142.73831298828125L71.41533090909091,142.66169620513915L71.51275636363637,141.9079373931885L71.75706181818181,140.2535553741455L71.85943272727273,139.29832569122314L71.91581090909091,139.58699241638183L72.11066181818182,139.8718939971924L72.19424,138.94075241088868L72.51767272727272,140.20350849151612L72.64229818181818,140.28306201934814L73.13684363636364,138.9371026992798L73.27976727272727,155.5241728210449L73.77431272727273,153.86267471313477L73.88261818181817,152.4514891052246L73.97806545454546,151.1371990966797L74.10615272727273,149.83010665893556L74.36875636363636,148.69915100097657L74.76785454545454,148.07011726379395L74.90039272727273,147.18785804748535L75.07447272727273,146.49255912780762L75.22283636363636,145.79767101287842L75.50621090909091,145.2619578552246L75.73963636363636,144.25543869018554L76.23418181818182,142.63136795043945L76.6159709090909,143.94674098968505L76.7138909090909,142.38263076782226L76.96610909090909,140.9701007080078L77.9552,136.71754501342775L78.38842181818181,135.17245742797851L78.5817890909091,134.20495113372803L79.07633454545454,132.1821315765381L79.57088,130.0707139968872L80.06542545454545,128.33984420776366L80.55997090909091,128.2681468963623L80.76174545454545,124.13240913391112L81.15293090909091,124.75494129180908L81.64747636363637,123.29505325317382L82.14202181818182,121.34304489135742L82.63656727272726,120.92753456115722L83.13111272727272,119.62740203857422L83.41696,118.76441329956054L83.57867636363636,118.2565975189209L83.9664,119.15343181610108L84.22010181818182,120.58310024261475L84.35016727272728,121.6974743270874L84.45105454545455,121.77390777587891L84.52721454545456,120.70968242645264L84.6399709090909,120.52045421600342L84.79377454545454,120.27862941741944L84.93076363636364,118.12773044586181L85.3536,119.32527042388915L85.52817454545453,120.02312923431396L85.88622545454545,120.45572700500489L86.21410909090909,120.53430953979492L86.70865454545454,120.21065990447998L87.2032,119.84206619262696L87.39508363636364,120.18501346588135L87.7135709090909,121.1839242553711L87.79467636363637,123.04568119049073L87.97172363636365,126.46897827148437L88.84459636363637,123.94091640472412L88.92916363636364,123.60288520812989L89.28177454545455,123.57588073730469L89.42321454545454,124.33361518859863L89.68334545454545,124.50044605255127L90.1778909090909,123.97094249725342L90.67243636363636,124.38731857299805L91.16698181818182,124.21990036010743L91.66152727272727,122.85708786010741L92.65061818181817,122.40534862518311L93.14516363636363,122.38776889801025L94.13425454545454,121.04588706970215L94.6288,121.19356967926026L94.70496,121.55155715942382L95.19950545454546,120.86285148620605L95.69405090909092,120.8671326828003L96.26178909090909,120.15152778625489L96.75633454545455,120.13723449707031L96.99322181818182,123.07187084197997L97.48776727272728,122.0342357635498L98.32008727272726,119.6557815170288L98.55351272727273,120.03632930755614L98.70138181818183,119.93164878845215L99.16130909090909,122.0643535232544L99.5346909090909,123.6009839630127L99.9337890909091,124.53529315948487L100.42833454545455,123.22773220062257L100.92287999999999,123.36769439697267L101.91197090909091,121.20108638763428L102.40651636363637,120.0418632888794L103.39560727272726,117.5599914932251L104.38469818181818,116.03772563934326L104.87924363636364,115.25422422409058L105.37378909090909,114.99891416549683L105.88663272727273,118.3058363723755L106.18731636363636,120.14858085632324L106.68186181818182,119.20623550415038L107.67095272727273,114.8283130645752L107.75848727272727,110.91283964157105L108.25303272727272,109.38147157669067L108.48052363636363,105.99294691085815L108.97506909090909,106.05733970642089L109.46961454545455,106.21645524978638L109.62836363636363,102.36034311294556L110.2861090909091,105.96001462936401L111.00517818181818,106.78669807434082L111.99426909090909,105.79191230773927L112.34144,102.65677863121033L112.93093818181819,98.19896060943604L113.3542690909091,95.86704994678497L113.67671272727273,90.1877663898468L113.87947636363637,87.62713997125626L114.37402181818183,88.52255215406417L114.86856727272726,88.25169076979161L115.36311272727272,86.94787559270858L115.98871272727273,90.47664191246034L116.24043636363636,88.48059405088425L116.73498181818181,89.07726720631123L117.22952727272727,88.97703936852514L117.53664,86.94131247758865L117.97777454545454,85.5502136516571L118.30170181818181,89.41402018159627L118.79624727272727,88.70542294353247L119.19237818181819,92.02118586063385L119.68692363636364,92.07967164039613L120.01876363636364,90.0159537756443L120.25812363636364,87.48637441396713L121.10181818181819,85.34621259689331L121.23979636363636,82.87699214458466L121.33672727272727,80.4342499256134L121.83127272727273,82.14992672920226L121.9766690909091,79.93793073654174L122.47121454545456,79.42354462623597L122.58990545454546,76.66283910751343L122.9613090909091,79.82290370941162L123.09632,77.66056671142579L123.50827636363637,80.95135210037232L123.91034181818182,83.59955865383148L123.95979636363636,83.59715239048005L124.01419636363637,83.73337278366088L124.15365818181817,80.73770222663879L124.28718545454545,77.98255190849304L124.50132363636364,76.18851579666138L124.58440727272728,74.10791536331176L124.81189818181818,77.49048420906067L125.30644363636364,78.9901277923584L125.95182545454546,77.01862233161927L126.07744,74.99268354415894L126.9542690909091,77.22817943572998L127.12637090909091,79.39055972099304L127.21143272727272,77.393592004776L127.31133090909091,75.0020862197876L127.47601454545455,77.46876163482666L127.58728727272728,75.27253918647766L127.64168727272727,75.36810900688171L127.76433454545455,77.83725688934327L127.9225890909091,80.95952575683594L128.13870545454546,78.32878646850585L128.40872727272728,80.91295628547668L128.70693818181817,86.39401169776916L128.83403636363636,83.98708206176758L129.16637090909092,83.80459648132324L129.45568,78.65780966758729L129.73361454545454,76.92259502410889L129.79790545454546,77.31022919654846L129.90818909090908,79.13162456512451L129.95467636363637,80.9917221546173L130.03083636363635,83.0335312461853L130.1757381818182,84.107655377388L130.67028363636362,85.11667119979859L130.73111272727272,85.63485598087311L131.22565818181818,86.07514785289764L131.33445818181818,87.72952371835709L131.87351272727273,88.67295504540205L131.93632,89.08799986496567L132.12721454545454,91.68758460760117L132.2454109090909,92.0929633808136L132.2909090909091,92.76551780700684L132.33739636363637,93.31415561199188L132.39229090909092,94.20573559761047L132.87348363636363,92.37009086370469L133.06734545454546,94.53584394931792L133.2409309090909,91.2196760892868L133.29038545454546,91.06501001119614L133.63557818181818,94.07413336277008L133.74487272727274,93.08097002029419L133.78245818181819,93.76817421913147L133.8249890909091,94.02427448272705L133.87691636363635,94.66079437255858L133.92241454545456,94.21341739177703L133.96593454545453,95.03069052219391L134.02033454545455,94.90612841129304L134.05792,95.97755430221557L134.1088581818182,97.47402263641357L134.5900509090909,100.89632835388183L134.65879272727273,102.42543953895569L134.71517090909092,102.68607902526855L134.75621818181818,102.91926504135131L134.90260363636364,103.53154745101928L134.94464,103.50751197814942L134.9945890909091,104.33945610046388L135.04701090909091,103.77718322753906L135.32049454545455,100.78654417991639L135.39566545454545,101.2824729347229L135.44462545454545,101.02490429878235L135.63502545454546,101.91703725814818L135.75668363636362,101.02380089759826L135.81058909090908,100.89171783447266L135.86103272727271,100.60563221931457L135.90504727272727,99.63578586578369L136.3995927272727,99.65084389686584L136.49306181818181,99.59856220245362L136.75269818181818,99.69340208053589L136.86248727272726,100.84775238990784L137.2042181818182,103.23331678390504L137.5044072727273,104.92557771682739L137.61370181818182,105.66144954681396L137.73733818181816,106.55530296325684L137.98510545454548,107.93802082061767L138.44107636363637,111.64586130142212L138.88270545454546,113.71241119384766L139.37725090909092,113.81580667495727L139.7066181818182,110.70702646255492L140.20116363636365,110.38506078720093L140.39156363636366,106.68074270248414L141.16552727272727,104.52196205139161L141.66007272727273,104.34471847534181L142.05620363636365,104.30356330871582L142.2406690909091,101.52833618164063L142.62295272727272,103.12121037483215L143.08831999999998,104.9510051727295L143.58286545454544,105.52554107666015L143.9443781818182,103.50902109146118L144.06306909090907,99.67768964767457L144.24753454545456,96.06941627025604L144.40578909090908,92.8459676361084L144.52002909090908,90.12724621415138L144.60509090909093,87.3607771217823L144.73713454545452,84.59668532848359L145.27767272727272,80.75409197807312L145.3760872727273,78.00143619537353L145.87063272727272,79.17117980003357L146.31077818181816,75.1426994228363L146.46656,72.61591665267945L146.67822545454547,71.28514692306518L146.93390545454545,69.76789560317994L147.4284509090909,70.5331671333313L147.68116363636364,72.7365591430664L147.89035636363636,71.36791049957276L148.1173527272727,69.88786756515503L148.26472727272727,68.4724143409729L148.61437090909092,66.60605537414551L148.85373090909093,69.59102209091186L149.0797381818182,68.48930826187134L149.62423272727273,65.67260343551635L149.85914181818183,66.43180286407471L150.00404363636363,65.60074146270752L150.20779636363636,64.15796123504639L150.9229090909091,63.81917463302612L151.92683636363634,59.00017860412598L152.0890472727273,58.09340351104737L152.19339636363637,56.37483749389648L152.2898327272727,54.60273445129394L152.67904000000001,54.48476558685303L152.81157818181816,53.327881698608394L153.01384727272728,52.03361927032471L153.12215272727275,50.77808792114257L153.57960727272726,47.464961204528805L154.07415272727272,49.91103187561035L154.16069818181816,49.09154430389404L154.27345454545457,47.786533050537116L154.6127127272727,46.51615161895754L154.78976,45.954601898193374L154.99944727272728,45.10938301086426L155.31744,43.25252178192139L155.4054690909091,42.205692825317385L155.55383272727272,41.45021270751951L155.6522472727273,40.83056636810301L155.74423272727273,40.09501876831055L155.85204363636365,39.77092777252196L156.00139636363636,39.03973945617676L156.17102545454546,38.42172615051271L156.30405818181816,38.0397184753418L156.5434181818182,37.99567409515379L156.65864727272728,38.163530273437516L156.75508363636365,37.78745040893554L156.9341090909091,37.68603256225586L157.36238545454546,38.9082921218872L157.44992000000002,38.520889663696295L157.5992727272727,37.92670642852784L158.44791272727272,39.89440685272217L158.58045090909093,39.045758934020995L158.71150545454546,38.64539405822754L158.84552727272728,37.85903228759767L158.98152727272728,37.64297615051268L159.16352,37.670550994873054L159.27231999999998,37.03438758850098L159.60366545454548,37.94060249328615L159.74411636363635,38.159958648681624L159.8454981818182,38.03249713897705L160.27476363636362,38.57726837158205L160.3776290909091,37.70710243225099L160.49928727272726,37.57247730255125L160.61995636363636,36.91640853881836L160.95179636363636,36.30118598937989L161.0981818181818,35.97784530639649L161.20896,35.446617050170914L161.30094545454546,35.010430679321274L161.5600872727273,35.59585800170899L161.76334545454546,35.933060798645016L161.90132363636363,35.7211636352539L162.08430545454544,35.71436668395998L162.24552727272726,35.23426834106445L162.41762909090912,34.788307533264145L162.66836363636364,35.01101463317872L162.99130181818182,35.456578216552714L163.19752727272729,35.78665813446045L163.35232,35.422987289428704L163.58277818181816,35.89778251647951L163.69652363636365,36.07072452545168L163.84488727272728,36.35658691406252L164.21332363636364,36.95821895599366L164.3196509090909,36.768559570312505L164.4610909090909,36.7424955368042L164.77661090909092,37.32662593841553L165.46551272727274,42.46770816802979L165.81713454545454,42.20575733184816L166.06885818181817,43.646344337463375L166.23749818181818,47.77025703430178L166.36509090909092,46.61023269653319L166.46845090909093,45.43724933624267L166.7612218181818,44.49047000885008L167.25576727272727,45.86241867065428L167.37248,45.68625133514405L167.4278690909091,48.045682945251485L167.5203490909091,47.49337123870848L167.67316363636363,46.70239894866944L167.98324363636362,50.936892814636224L168.07374545454545,49.849302520751934L168.17018181818182,48.822820281982416L168.96096,48.074466438293456L169.0450327272727,47.87719188690184L169.24977454545456,47.46802356719971L169.82245818181818,49.262231979370114L170.07072000000002,49.461961174011236L170.15578181818182,49.43610763549805L170.32095999999999,48.64015476226808L170.4342109090909,48.17840343475342L170.55586909090908,50.19646648406983L170.72302545454545,49.08303283691404L170.8565527272727,53.64363777160645L170.94458181818183,52.6108508682251L171.21608727272726,53.019920730590826L171.3446690909091,52.4269359588623L171.6127127272727,52.577463645935055L171.82437818181816,52.06256572723389L172.11022545454546,52.354525680542L172.38667636363638,50.22541633605957L172.8569890909091,51.2631872177124L173.05826909090908,50.24011024475098L173.23680000000002,49.75088932037352L173.33125818181819,48.73646301269531L173.47714909090908,48.2310509490967L173.5904,48.1862664413452L173.76398545454546,47.802978820800774L173.86784,47.308400459289544L174.36238545454546,50.1824108505249L174.47118545454543,49.39522068023683L174.72933818181818,49.522767066955566L174.83616,48.50654815673826L175.02804363636363,48.02096675872801L175.3312,46.13922637939453L175.4825309090909,46.08204643249513L175.71793454545454,45.20790145874025L175.88212363636362,45.523643951416034L176.00328727272728,45.38353576660157L176.1264290909091,44.69956283569334L176.48497454545455,45.35137416839598L176.61504,45.013964271545404L177.03392,45.636720504760746L177.10711272727272,44.64702056884764L177.5388509090909,44.62122474670409L178.01015272727273,49.10584438323974L178.1372509090909,47.74697017669678L178.2994618181818,46.80863101959227L178.4864,46.74822574615479L178.58036363636364,46.05629135131838L178.97352727272727,46.00683860778807L179.0576,45.053832702636726L179.17233454545453,45.007591705322284L179.28261818181818,44.539549293518064L179.42306909090908,43.46021923065186L179.69556363636363,44.81556934356689L179.86420363636364,44.67410652160646L179.99822545454546,44.58062637329101L180.33451636363637,43.41775695800783L180.46260363636364,43.15427833557129L180.57931636363634,42.70770641326902L180.73509818181816,42.36112300872804L180.85922909090908,42.100947799682615L180.97495272727272,41.40855167388918L181.11144727272728,40.5579719543457L181.25783272727273,39.8146733856201L181.3438836363636,39.24912086486816L181.45070545454544,38.46849338531496L181.58027636363636,38.3792774581909L181.64456727272727,37.69667953491211L181.87601454545452,37.61292289733885L182.00558545454547,37.47724868774412L182.50013090909093,40.32974445343018L182.72910545454548,40.214410171508774L183.2236509090909,43.06037380218504L183.36311272727272,42.953102836608906L183.56785454545454,42.86029830932617L183.6425309090909,42.12779949188234L183.76715636363636,41.98531475067139L183.83985454545453,41.56449790954588L183.99514181818182,40.52634338378908L184.26763636363634,40.49512901306153L184.34577454545456,39.883868522644036L184.41847272727273,41.40869426727295L184.5594181818182,40.65803516387939L184.71915636363636,40.54555614471434L184.97384727272726,43.78879173278807L185.04407272727272,43.2210697555542L185.53861818181818,45.79413002014161L186.03761454545455,49.64837486267089L186.5148509090909,48.6567770767212L186.9693381818182,47.86380168914795L187.08605090909091,46.623636474609356L187.22452363636364,50.4796671295166L187.40206545454546,53.83034004211426L187.99799272727273,52.98655048370361L188.12261818181818,52.214801139831536L188.25515636363636,51.539740295410155L188.41637818181817,50.96741458892822L188.64288000000002,49.017409324645996L188.76552727272727,48.149212532043464L188.86245818181817,47.16284996032715L188.9593890909091,46.107835464477546L189.1117090909091,44.48845672607422L189.22545454545454,43.623108406066876L189.38272,42.91300354003906L189.51476363636363,42.01219360351564L189.61861818181816,41.10282127380373L189.7605527272727,40.168192939758285L189.86885818181818,39.51534610748291L189.97122909090908,39.149909820556644L190.07805090909093,38.9739529800415L190.18635636363635,38.52048225402834L190.2679563636364,38.242513427734394L190.39208727272728,43.175402526855464L190.53550545454544,42.21992839813234L191.00482909090908,41.99328979492188L191.13390545454544,41.18054824829102L191.45585454545454,39.98181659698486L191.6749381818182,40.25239093780516L191.77335272727274,39.74589584350588L191.86385454545456,39.441930885314946L192.1689890909091,41.04294223785402L192.27630545454548,40.31446319580078L192.53544727272728,39.4722421646118L192.69320727272728,39.33163829803465L192.88113454545456,38.11502475738527L193.08043636363635,36.98167217254638L193.33067636363637,36.78450626373291L193.42760727272724,36.46932056427002L193.58635636363638,36.45865661621093L193.69317818181818,36.393233413696294L193.82027636363637,36.448742980957036L194.2994909090909,35.51068561553956L194.39246545454543,34.659246940612775L194.5007709090909,34.34610168457033L194.6976,34.053096046447735L194.85239272727273,33.9488738632202L195.09076363636362,33.57637920379639L195.17236363636366,33.188637237548846L195.25989818181816,32.50835815429687L195.37067636363636,31.817839508056636L195.52744727272727,31.7038734436035L195.64366545454544,31.607833404540997L195.73466181818182,31.742183532714847L195.9314909090909,32.420785446166974L196.0323781818182,32.24183753967287L196.32317090909092,32.38934020996092L196.99872,33.809699325561525L197.29989818181818,33.99385868072508L197.39979636363634,33.87469814300539L197.49227636363636,33.86698451995849L197.5817890909091,33.9826005935669L197.6915781818182,33.747161941528304L197.7746618181818,33.8380176925659L197.88593454545455,33.363124008178715L197.99671272727272,33.167255020141596L198.06990545454548,32.853671798706074L198.1485381818182,32.626113128662126L198.2563490909091,32.138827400207504L198.75089454545457,34.5059624481201L199.07828363636364,34.49452781677246L199.2093381818182,34.33777015686036L199.34187636363637,33.66140220642092L199.44474181818183,33.849201087951656L199.95412363636362,33.58087089538574L200.05847272727272,33.15936485290527L200.18705454545454,32.6369400405884L200.27013818181817,32.64357402801514L200.37547636363638,32.51742980957033L200.86804363636364,32.550575981140156L200.95607272727273,32.16437877655031L201.18949818181818,32.37997318267824L201.31758545454545,32.02292274475096L201.68503272727273,32.87092220306397L202.1795781818182,34.01594367980957L202.39223272727273,34.25212924957276L202.67758545454546,34.38575283050537L202.81012363636364,34.055941123962384L203.1261381818182,34.21160217285154L203.32791272727272,38.19843849182129L203.52968727272727,37.59177494049072L203.7922909090909,37.518274841308596L204.02324363636362,37.25994655609131L204.09248,39.22419757843019L204.16320000000002,40.987592239379865L204.2373818181818,40.42401565551759L204.42926545454546,39.252970886230486L204.52421818181818,38.76022926330566L205.11421090909093,40.8534186553955L205.21608727272726,40.458343315124495L205.40945454545454,40.60211139678955L205.65425454545453,40.02630573272705L205.76008727272728,39.49652378082277L206.25463272727274,42.45881645202638L206.83572363636364,44.10680892944336L207.06865454545454,43.09950550079344L207.32433454545455,42.555654335021956L207.40741818181817,41.591580467224105L207.49445818181817,40.83086513519285L207.57853090909092,40.605207710266114L207.67546181818182,39.95837696075438L207.91037090909091,41.370282325744625L208.1319272727273,40.63346157073974L208.27237818181817,39.74045352935789L208.50382545454545,38.28038894653321L208.6576290909091,37.728593292236326L208.7614836363636,37.18912178039551L208.84901818181817,36.981920013427754L209.08689454545453,35.76238330841065L209.17294545454547,35.38980716705322L209.3302109090909,35.66135589599611L209.50181818181818,35.59510089874266L209.59924363636364,35.18596992492675L209.84107636363635,35.18904926300047L209.9439418181818,34.41725238800049L210.05076363636365,34.683216209411626L210.44145454545452,35.73942577362061L210.5344290909091,35.82633644104004L210.8370909090909,35.618289299011224L210.95578181818183,35.69120204925537L211.1615127272727,39.05803215026856L211.39938909090907,38.60893768310547L211.53341090909092,38.439068222045904L211.72875636363636,38.17835998535156L212.00916363636364,38.723983383178705L212.14120727272729,37.9579275894165L212.43150545454546,38.76935184478759L212.61250909090907,37.98981758117674L212.75889454545455,37.3280858230591L213.25344,38.61233955383301L213.34839272727274,38.00422969818115L213.4393890909091,37.65324966430666L213.52939636363635,37.06090995788574L213.62781090909093,36.47470516204834L213.7311709090909,35.92153789520262L214.10900363636364,35.20541015625L214.19554909090908,35.00694393157957L214.29297454545454,34.92487464904784L214.3948509090909,34.37730587005615L214.49771636363636,34.27963619232176L214.5897018181818,33.90436435699465L214.7647709090909,33.211458969116194L214.93044363636363,32.487135505676264L215.21530181818184,32.82408367156981L215.40421818181818,32.57958015441895L215.89876363636364,33.52033660888674L215.99371636363637,33.4141316986084L216.09064727272727,33.1159451675415L216.17620363636365,33.06605445861817L216.67074909090908,35.055388336181636L216.87598545454546,34.86470024108888L217.33888,35.734747352600095L217.68011636363636,35.40064426422117L217.8621090909091,35.08484066009521L218.28642909090908,35.04194381713867L218.41352727272726,34.553072586059585L218.50897454545455,34.53443019866944L218.60392727272728,34.26688426971435L218.81707636363637,33.879576873779314L218.94565818181817,33.517980422973636L219.0396218181818,33.15975868225098L219.1306181818182,33.05999763488768L219.30914909090907,32.18552673339843L219.3798690909091,32.11552356719969L219.47136,32.37395030975341L219.7042909090909,32.27461364746094L219.78935272727273,31.992475662231442L219.86749090909092,31.720950698852533L219.99805090909092,31.529250869750996L220.18894545454546,31.49141609191895L220.28933818181818,30.901751708984392L220.37588363636365,30.861255187988263L220.47281454545453,31.160246353149432L220.5583709090909,30.901806030273434L220.64491636363638,30.8507711791992L220.74481454545455,30.73381744384764L220.89812363636366,31.501492691040056L220.98862545454546,31.778191757202165L221.10336,31.756782379150394L221.35013818181818,31.672631912231452L221.84468363636364,35.696270904540995L221.97425454545453,35.33857879638671L222.07613090909092,35.1009129714966L222.1522909090909,34.92926788330078L222.26455272727273,34.30828048706053L222.36741818181818,34.13236099243164L222.71755636363636,33.77884483337402L222.8313018181818,33.490595703124995L222.93218909090908,33.31653671264647L223.03802181818182,33.46873138427736L223.16561454545456,33.24320636749266L223.3001309090909,33.14030826568603L223.56768,33.48457962036133L223.6656,33.35999374389647L223.80357818181818,33.480386695861796L224.29812363636364,35.415874595642094L224.40989090909093,35.452337760925275L224.91877818181817,34.50932018280031L225.03351272727272,34.42931171417234L225.16110545454544,34.29647579193116L225.25457454545455,34.068642120361346L225.35744,33.968931999206546L225.42123636363635,36.046765441894536L225.56366545454546,35.91516872406004L225.65960727272727,35.362857017517086L225.92369454545457,34.79645572662352L226.00974545454545,34.740131340026835L226.18976,35.079534149169916L226.29015272727273,35.01510570526125L226.37818181818182,34.59367095947266L226.47511272727272,34.56569549560547L226.56660363636365,34.15660526275633L226.6704581818182,33.65329475402834L226.79409454545456,33.310938224792466L226.88014545454547,33.21444664001464L227.02603636363636,32.70127002716066L227.11010909090908,32.61296737670898L227.19220363636364,32.3502322769165L227.2752872727273,32.51461868286131L227.38112,32.43667442321777L227.52058181818182,32.272294807434065L227.64817454545457,31.911102371215804L228.0329309090909,32.08771785736084L228.53588363636365,31.641227416992194L228.74903272727272,31.68444000244139L228.87613090909093,31.758289794921893L229.0249890909091,31.84552978515623L229.21934545454545,31.828785247802728L229.4364509090909,31.62784400939941L229.6288290909091,31.94495811462403L229.73614545454546,31.51848846435547L229.81824,31.499924163818378L229.94336,31.369967269897444L230.2623418181818,31.853779830932638L230.3503709090909,31.569937515258772L230.44680727272728,31.6964450073242L230.53681454545455,31.418401489257832L230.64660363636364,31.204402770996097L230.90673454545455,31.20988243103028L231.0412509090909,30.807022171020492L231.13224727272728,30.884939270019515L231.25439999999998,31.643264465332038L231.4818909090909,31.81888519287108L231.56596363636362,31.533148422241226L231.70888727272728,32.093377456665024L232.22914909090912,33.4766792678833L232.34437818181817,33.64691879272459L232.43784727272728,33.50675289154054L232.5881890909091,33.54158302307127L232.69105454545456,33.61144699096681L233.1494981818182,33.61611862182619L233.3725381818182,33.529129867553706L233.83592727272728,33.55508525848387L233.92692363636363,33.68150447845457L234.0263272727273,32.85866596221922L234.10891636363638,33.04553798675539L234.2172218181818,32.67306030273437L234.31761454545455,31.964160690307637L234.92491636363638,33.17691402435301L235.04954181818184,32.85299278259279L235.1430109090909,32.61222724914549L235.38879999999997,32.34126247406007L235.4768290909091,31.965640945434586L235.5910690909091,32.1194041442871L235.69640727272727,31.932830886840804L235.8002618181818,31.731923599243146L235.8882909090909,31.385150070190434L235.9782981818182,31.034003677368162L236.07077818181818,31.130519027709965L236.19886545454546,31.30529777526857L236.28986181818183,31.181078567504898L236.38679272727273,31.21133552551268L236.5999418181818,33.58277893066406L236.75325090909092,33.47914749145508L236.91150545454545,33.28927082061767L237.06382545454545,32.856859779357904L237.17559272727271,32.62485355377197L237.28933818181818,32.692211952209476L237.39566545454545,32.686616859436015L237.48765090909092,32.738486900329605L237.57963636363638,32.61190132141115L237.72206545454543,32.08945953369141L237.86103272727271,31.95283470153808L237.95301818181818,32.332924156188966L238.09643636363637,32.414042816162095L238.19633454545453,31.809684524536152L238.7868218181818,35.00196334838867L238.9005672727273,34.48232250213621L239.03211636363636,34.17591308593748L239.13003636363635,34.04571853637694L239.21954909090908,33.74540328979492L239.35604363636364,34.122342109680176L239.49154909090907,33.92009376525877L239.90795636363637,32.74794559478758L240.3392,32.86522525787353L240.5033890909091,32.72487602233886L240.6853818181818,32.656716384887716L240.9667781818182,33.244815635681135L241.05134545454544,32.98909477233889L241.13492363636362,32.73365570068361L241.22987636363638,32.6314807510376L241.54984727272728,36.141528930664066L241.74370909090908,36.30121654510498L241.88119272727272,36.28890598297119L241.96279272727273,36.40911899566649L242.0592290909091,38.736239624023455L242.2748509090909,39.35400508880613L242.43409454545454,39.158981475830075L242.54091636363634,39.1456591796875L242.64180363636362,38.4796971511841L242.71648000000002,37.79428470611572L242.8559418181818,37.73967144012451L242.98996363636363,37.06802265167238L243.31537454545455,37.253641891479475L243.46670545454543,37.08833881378172L243.55968000000001,36.51036029815674L243.63979636363635,36.44603710174559" style="fill: none;" fill="none"></path></g></g></g></g></g></g><g transform="translate(58, 178)" clip-path="url(#clip_1)"><clipPath id="clip_1"><rect width="271" height="21"></rect></clipPath><g><g><line x1="0" y1="0" x2="0" y2="5" style="visibility: inherit;" fill="rgb(0, 0, 0)" stroke="rgb(204, 204, 204)" stroke-width="1px"></line><line x1="24.727272727272727" y1="0" x2="24.727272727272727" y2="5" style="visibility: inherit;" fill="rgb(0, 0, 0)" stroke="rgb(204, 204, 204)" stroke-width="1px"></line><line x1="49.45454545454545" y1="0" x2="49.45454545454545" y2="5" style="visibility: inherit;" fill="rgb(0, 0, 0)" stroke="rgb(204, 204, 204)" stroke-width="1px"></line><line x1="74.18181818181817" y1="0" x2="74.18181818181817" y2="5" style="visibility: inherit;" fill="rgb(0, 0, 0)" stroke="rgb(204, 204, 204)" stroke-width="1px"></line><line x1="98.9090909090909" y1="0" x2="98.9090909090909" y2="5" style="visibility: inherit;" fill="rgb(0, 0, 0)" stroke="rgb(204, 204, 204)" stroke-width="1px"></line><line x1="123.63636363636363" y1="0" x2="123.63636363636363" y2="5" style="visibility: inherit;" fill="rgb(0, 0, 0)" stroke="rgb(204, 204, 204)" stroke-width="1px"></line><line x1="148.36363636363635" y1="0" x2="148.36363636363635" y2="5" style="visibility: inherit;" fill="rgb(0, 0, 0)" stroke="rgb(204, 204, 204)" stroke-width="1px"></line><line x1="173.0909090909091" y1="0" x2="173.0909090909091" y2="5" style="visibility: inherit;" fill="rgb(0, 0, 0)" stroke="rgb(204, 204, 204)" stroke-width="1px"></line><line x1="197.8181818181818" y1="0" x2="197.8181818181818" y2="5" style="visibility: inherit;" fill="rgb(0, 0, 0)" stroke="rgb(204, 204, 204)" stroke-width="1px"></line><line x1="222.54545454545456" y1="0" x2="222.54545454545456" y2="5" style="visibility: inherit;" fill="rgb(0, 0, 0)" stroke="rgb(204, 204, 204)" stroke-width="1px"></line><line x1="247.27272727272725" y1="0" x2="247.27272727272725" y2="5" style="visibility: inherit;" fill="rgb(0, 0, 0)" stroke="rgb(204, 204, 204)" stroke-width="1px"></line><line x1="272" y1="0" x2="272" y2="5" style="visibility: inherit;" fill="rgb(0, 0, 0)" stroke="rgb(204, 204, 204)" stroke-width="1px"></line></g><g transform="translate(0, 8)"><text x="0" y="0" dx="0em" dy="0.95em" style="text-anchor: middle; visibility: hidden; font-family: &quot;Helvetica Neue&quot;, sans-serif; font-size: 12px; font-weight: 200;" fill="rgb(50, 49, 63)" stroke="none" stroke-width="1px">-50k</text><text x="24.727272727272727" y="0" dx="0em" dy="0.95em" style="text-anchor: middle; visibility: inherit; font-family: &quot;Helvetica Neue&quot;, sans-serif; font-size: 12px; font-weight: 200;" fill="rgb(50, 49, 63)" stroke="none" stroke-width="1px">0</text><text x="49.45454545454545" y="0" dx="0em" dy="0.95em" style="text-anchor: middle; visibility: hidden; font-family: &quot;Helvetica Neue&quot;, sans-serif; font-size: 12px; font-weight: 200;" fill="rgb(50, 49, 63)" stroke="none" stroke-width="1px">50k</text><text x="74.18181818181817" y="0" dx="0em" dy="0.95em" style="text-anchor: middle; visibility: inherit; font-family: &quot;Helvetica Neue&quot;, sans-serif; font-size: 12px; font-weight: 200;" fill="rgb(50, 49, 63)" stroke="none" stroke-width="1px">100k</text><text x="98.9090909090909" y="0" dx="0em" dy="0.95em" style="text-anchor: middle; visibility: hidden; font-family: &quot;Helvetica Neue&quot;, sans-serif; font-size: 12px; font-weight: 200;" fill="rgb(50, 49, 63)" stroke="none" stroke-width="1px">150k</text><text x="123.63636363636363" y="0" dx="0em" dy="0.95em" style="text-anchor: middle; visibility: inherit; font-family: &quot;Helvetica Neue&quot;, sans-serif; font-size: 12px; font-weight: 200;" fill="rgb(50, 49, 63)" stroke="none" stroke-width="1px">200k</text><text x="148.36363636363635" y="0" dx="0em" dy="0.95em" style="text-anchor: middle; visibility: hidden; font-family: &quot;Helvetica Neue&quot;, sans-serif; font-size: 12px; font-weight: 200;" fill="rgb(50, 49, 63)" stroke="none" stroke-width="1px">250k</text><text x="173.0909090909091" y="0" dx="0em" dy="0.95em" style="text-anchor: middle; visibility: inherit; font-family: &quot;Helvetica Neue&quot;, sans-serif; font-size: 12px; font-weight: 200;" fill="rgb(50, 49, 63)" stroke="none" stroke-width="1px">300k</text><text x="197.8181818181818" y="0" dx="0em" dy="0.95em" style="text-anchor: middle; visibility: hidden; font-family: &quot;Helvetica Neue&quot;, sans-serif; font-size: 12px; font-weight: 200;" fill="rgb(50, 49, 63)" stroke="none" stroke-width="1px">350k</text><text x="222.54545454545456" y="0" dx="0em" dy="0.95em" style="text-anchor: middle; visibility: inherit; font-family: &quot;Helvetica Neue&quot;, sans-serif; font-size: 12px; font-weight: 200;" fill="rgb(50, 49, 63)" stroke="none" stroke-width="1px">400k</text><text x="247.27272727272725" y="0" dx="0em" dy="0.95em" style="text-anchor: middle; visibility: hidden; font-family: &quot;Helvetica Neue&quot;, sans-serif; font-size: 12px; font-weight: 200;" fill="rgb(50, 49, 63)" stroke="none" stroke-width="1px">450k</text><text x="272" y="0" dx="0em" dy="0.95em" style="text-anchor: middle; visibility: hidden; font-family: &quot;Helvetica Neue&quot;, sans-serif; font-size: 12px; font-weight: 200;" fill="rgb(50, 49, 63)" stroke="none" stroke-width="1px">500k</text></g><line x1="0" y1="0" x2="272" y2="0" fill="rgb(0, 0, 0)" stroke="rgb(204, 204, 204)" stroke-width="1px"></line></g></g></g></g></svg>