<svg viewBox="0 0 330.0000305175781 200.00001525878906" xmlns="http://www.w3.org/2000/svg"><g><g><g><g><g><line x1="58" y1="178" x2="53" y2="178" style="visibility: inherit;" fill="rgb(0, 0, 0)" stroke="rgb(204, 204, 204)" stroke-width="1px"></line><line x1="58" y1="163.16666666666666" x2="53" y2="163.16666666666666" style="visibility: inherit;" fill="rgb(0, 0, 0)" stroke="rgb(204, 204, 204)" stroke-width="1px"></line><line x1="58" y1="148.33333333333334" x2="53" y2="148.33333333333334" style="visibility: inherit;" fill="rgb(0, 0, 0)" stroke="rgb(204, 204, 204)" stroke-width="1px"></line><line x1="58" y1="133.5" x2="53" y2="133.5" style="visibility: inherit;" fill="rgb(0, 0, 0)" stroke="rgb(204, 204, 204)" stroke-width="1px"></line><line x1="58" y1="118.66666666666667" x2="53" y2="118.66666666666667" style="visibility: inherit;" fill="rgb(0, 0, 0)" stroke="rgb(204, 204, 204)" stroke-width="1px"></line><line x1="58" y1="103.83333333333333" x2="53" y2="103.83333333333333" style="visibility: inherit;" fill="rgb(0, 0, 0)" stroke="rgb(204, 204, 204)" stroke-width="1px"></line><line x1="58" y1="89" x2="53" y2="89" style="visibility: inherit;" fill="rgb(0, 0, 0)" stroke="rgb(204, 204, 204)" stroke-width="1px"></line><line x1="58" y1="74.16666666666666" x2="53" y2="74.16666666666666" style="visibility: inherit;" fill="rgb(0, 0, 0)" stroke="rgb(204, 204, 204)" stroke-width="1px"></line><line x1="58" y1="59.33333333333334" x2="53" y2="59.33333333333334" style="visibility: inherit;" fill="rgb(0, 0, 0)" stroke="rgb(204, 204, 204)" stroke-width="1px"></line><line x1="58" y1="44.5" x2="53" y2="44.5" style="visibility: inherit;" fill="rgb(0, 0, 0)" stroke="rgb(204, 204, 204)" stroke-width="1px"></line><line x1="58" y1="29.666666666666657" x2="53" y2="29.666666666666657" style="visibility: inherit;" fill="rgb(0, 0, 0)" stroke="rgb(204, 204, 204)" stroke-width="1px"></line><line x1="58" y1="14.833333333333343" x2="53" y2="14.833333333333343" style="visibility: inherit;" fill="rgb(0, 0, 0)" stroke="rgb(204, 204, 204)" stroke-width="1px"></line><line x1="58" y1="0" x2="53" y2="0" style="visibility: inherit;" fill="rgb(0, 0, 0)" stroke="rgb(204, 204, 204)" stroke-width="1px"></line></g><g transform="translate(48, 0)"><text x="0" y="178" dx="0em" dy="0.3em" style="text-anchor: end; visibility: hidden; font-family: &quot;Helvetica Neue&quot;, sans-serif; font-size: 12px; font-weight: 200;" fill="rgb(50, 49, 63)" stroke="none" stroke-width="1px">-300</text><text x="0" y="163.16666666666666" dx="0em" dy="0.3em" style="text-anchor: end; visibility: inherit; font-family: &quot;Helvetica Neue&quot;, sans-serif; font-size: 12px; font-weight: 200;" fill="rgb(50, 49, 63)" stroke="none" stroke-width="1px">-250</text><text x="0" y="148.33333333333334" dx="0em" dy="0.3em" style="text-anchor: end; visibility: hidden; font-family: &quot;Helvetica Neue&quot;, sans-serif; font-size: 12px; font-weight: 200;" fill="rgb(50, 49, 63)" stroke="none" stroke-width="1px">-200</text><text x="0" y="133.5" dx="0em" dy="0.3em" style="text-anchor: end; visibility: inherit; font-family: &quot;Helvetica Neue&quot;, sans-serif; font-size: 12px; font-weight: 200;" fill="rgb(50, 49, 63)" stroke="none" stroke-width="1px">-150</text><text x="0" y="118.66666666666667" dx="0em" dy="0.3em" style="text-anchor: end; visibility: hidden; font-family: &quot;Helvetica Neue&quot;, sans-serif; font-size: 12px; font-weight: 200;" fill="rgb(50, 49, 63)" stroke="none" stroke-width="1px">-100</text><text x="0" y="103.83333333333333" dx="0em" dy="0.3em" style="text-anchor: end; visibility: inherit; font-family: &quot;Helvetica Neue&quot;, sans-serif; font-size: 12px; font-weight: 200;" fill="rgb(50, 49, 63)" stroke="none" stroke-width="1px">-50</text><text x="0" y="89" dx="0em" dy="0.3em" style="text-anchor: end; visibility: hidden; font-family: &quot;Helvetica Neue&quot;, sans-serif; font-size: 12px; font-weight: 200;" fill="rgb(50, 49, 63)" stroke="none" stroke-width="1px">0</text><text x="0" y="74.16666666666666" dx="0em" dy="0.3em" style="text-anchor: end; visibility: inherit; font-family: &quot;Helvetica Neue&quot;, sans-serif; font-size: 12px; font-weight: 200;" fill="rgb(50, 49, 63)" stroke="none" stroke-width="1px">50</text><text x="0" y="59.33333333333334" dx="0em" dy="0.3em" style="text-anchor: end; visibility: hidden; font-family: &quot;Helvetica Neue&quot;, sans-serif; font-size: 12px; font-weight: 200;" fill="rgb(50, 49, 63)" stroke="none" stroke-width="1px">100</text><text x="0" y="44.5" dx="0em" dy="0.3em" style="text-anchor: end; visibility: inherit; font-family: &quot;Helvetica Neue&quot;, sans-serif; font-size: 12px; font-weight: 200;" fill="rgb(50, 49, 63)" stroke="none" stroke-width="1px">150</text><text x="0" y="29.666666666666657" dx="0em" dy="0.3em" style="text-anchor: end; visibility: hidden; font-family: &quot;Helvetica Neue&quot;, sans-serif; font-size: 12px; font-weight: 200;" fill="rgb(50, 49, 63)" stroke="none" stroke-width="1px">200</text><text x="0" y="14.833333333333343" dx="0em" dy="0.3em" style="text-anchor: end; visibility: inherit; font-family: &quot;Helvetica Neue&quot;, sans-serif; font-size: 12px; font-weight: 200;" fill="rgb(50, 49, 63)" stroke="none" stroke-width="1px">250</text><text x="0" y="0" dx="0em" dy="0.3em" style="text-anchor: end; visibility: hidden; font-family: &quot;Helvetica Neue&quot;, sans-serif; font-size: 12px; font-weight: 200;" fill="rgb(50, 49, 63)" stroke="none" stroke-width="1px">300</text></g><line x1="58" y1="0" x2="58" y2="178" fill="rgb(0, 0, 0)" stroke="rgb(204, 204, 204)" stroke-width="1px"></line></g></g><g transform="translate(58, 0)" clip-path="url(#clip_0)"><clipPath id="clip_0"><rect width="271" height="177"></rect></clipPath><g><g><g><line x1="0" y1="0" x2="0" y2="178" fill="rgb(0, 0, 0)" stroke="rgb(60, 60, 60)" stroke-width="1px" opacity="0.25"></line><line x1="34" y1="0" x2="34" y2="178" fill="rgb(0, 0, 0)" stroke="rgb(60, 60, 60)" stroke-width="1px" opacity="0.25"></line><line x1="68" y1="0" x2="68" y2="178" fill="rgb(0, 0, 0)" stroke="rgb(60, 60, 60)" stroke-width="1px" opacity="0.25"></line><line x1="102" y1="0" x2="102" y2="178" fill="rgb(0, 0, 0)" stroke="rgb(60, 60, 60)" stroke-width="1px" opacity="0.25"></line><line x1="136" y1="0" x2="136" y2="178" fill="rgb(0, 0, 0)" stroke="rgb(60, 60, 60)" stroke-width="1px" opacity="0.25"></line><line x1="170" y1="0" x2="170" y2="178" fill="rgb(0, 0, 0)" stroke="rgb(60, 60, 60)" stroke-width="1px" opacity="0.25"></line><line x1="204" y1="0" x2="204" y2="178" fill="rgb(0, 0, 0)" stroke="rgb(60, 60, 60)" stroke-width="1px" opacity="0.25"></line><line x1="238" y1="0" x2="238" y2="178" fill="rgb(0, 0, 0)" stroke="rgb(60, 60, 60)" stroke-width="1px" opacity="0.25"></line><line x1="272" y1="0" x2="272" y2="178" fill="rgb(0, 0, 0)" stroke="rgb(60, 60, 60)" stroke-width="1px" opacity="0.25"></line></g><g><line x1="0" y1="178" x2="272" y2="178" fill="rgb(0, 0, 0)" stroke="rgb(60, 60, 60)" stroke-width="1px" opacity="0.25"></line><line x1="0" y1="163.16666666666666" x2="272" y2="163.16666666666666" fill="rgb(0, 0, 0)" stroke="rgb(60, 60, 60)" stroke-width="1px" opacity="0.25"></line><line x1="0" y1="148.33333333333334" x2="272" y2="148.33333333333334" fill="rgb(0, 0, 0)" stroke="rgb(60, 60, 60)" stroke-width="1px" opacity="0.25"></line><line x1="0" y1="133.5" x2="272" y2="133.5" fill="rgb(0, 0, 0)" stroke="rgb(60, 60, 60)" stroke-width="1px" opacity="0.25"></line><line x1="0" y1="118.66666666666667" x2="272" y2="118.66666666666667" fill="rgb(0, 0, 0)" stroke="rgb(60, 60, 60)" stroke-width="1px" opacity="0.25"></line><line x1="0" y1="103.83333333333333" x2="272" y2="103.83333333333333" fill="rgb(0, 0, 0)" stroke="rgb(60, 60, 60)" stroke-width="1px" opacity="0.25"></line><line x1="0" y1="89" x2="272" y2="89" fill="rgb(0, 0, 0)" stroke="rgb(60, 60, 60)" stroke-width="1px" opacity="0.25"></line><line x1="0" y1="74.16666666666666" x2="272" y2="74.16666666666666" fill="rgb(0, 0, 0)" stroke="rgb(60, 60, 60)" stroke-width="1px" opacity="0.25"></line><line x1="0" y1="59.33333333333334" x2="272" y2="59.33333333333334" fill="rgb(0, 0, 0)" stroke="rgb(60, 60, 60)" stroke-width="1px" opacity="0.25"></line><line x1="0" y1="44.5" x2="272" y2="44.5" fill="rgb(0, 0, 0)" stroke="rgb(60, 60, 60)" stroke-width="1px" opacity="0.25"></line><line x1="0" y1="29.666666666666657" x2="272" y2="29.666666666666657" fill="rgb(0, 0, 0)" stroke="rgb(60, 60, 60)" stroke-width="1px" opacity="0.25"></line><line x1="0" y1="14.833333333333343" x2="272" y2="14.833333333333343" fill="rgb(0, 0, 0)" stroke="rgb(60, 60, 60)" stroke-width="1px" opacity="0.25"></line><line x1="0" y1="0" x2="272" y2="0" fill="rgb(0, 0, 0)" stroke="rgb(60, 60, 60)" stroke-width="1px" opacity="0.25"></line></g></g></g><g><g><line x1="0" y1="89" x2="272" y2="89" fill="rgb(0, 0, 0)" stroke="rgb(153, 153, 153)" stroke-width="1.5px"></line></g></g><g><g><line x1="34" y1="0" x2="34" y2="178" fill="rgb(0, 0, 0)" stroke="rgb(153, 153, 153)" stroke-width="1.5px"></line></g></g><g><g><g><g><g><path stroke="rgb(255, 112, 67)" stroke-width="2px" d="M34.045559999999995,89.99400277614593L34.11356,91.92632746875286L34.182919999999996,93.45826027432265L34.24004,95.61752655389847L34.31008,97.27797086249672L34.39644,98.38991972645701L34.46036,99.89489990669752L34.51408,101.72145379799868L34.59228,103.21788598822445L34.66708,104.62809582706295L34.70856,106.49302320866579L34.78676,109.56609250051456L34.83164,111.61030111715881L34.89896,114.23312807587081L34.98056,117.23111282826257L35.04176,119.37653737961776L35.10227999999999,120.46228228436637L35.17096,121.2535592602631L35.21924,122.03465841361222L35.29404,124.13811743736039L35.382439999999995,125.35644119507204L35.47696,125.83803417230712L35.54564,125.91791337868065L35.606159999999996,126.01631517438183L35.647639999999996,125.74885057973387L35.71972,125.49984656452376L35.76596000000001,125.09998409806241L35.82172,126.00932951823776L35.88836,126.57536484658542L35.95024,126.95790517009254L36.037279999999996,129.35811374106765L36.12636,130.47100358711796L36.17736,131.01413525926108L36.23448,130.50559395430014L36.30588,131.43088804538758L36.36368,132.19038315651812L36.433040000000005,133.627988223934L36.50852,134.37240245453992L36.573800000000006,134.82061363355325L36.6486,137.05659026970943L36.698240000000006,138.27784010844317L36.768280000000004,138.30170986341724L36.84852,139.05458939483023L36.90428,139.0087087557053L36.97976,139.23263361933186L37.054559999999995,138.9662821165695L37.09876,138.36895125641024L37.14636,137.40649638452115L37.196000000000005,136.66838454538373L37.26468,137.23380023813976L37.31092,137.4432036658341L37.3524,137.14709885558682L37.41292,136.76503220153504L37.482960000000006,137.34858355025105L37.53532,137.97899229323696L37.57476,137.3791428938456L37.64752,136.58124794333844L37.7264,135.31344898166043L37.77468,134.53274858821493L37.855599999999995,134.30209806650316L37.94672,135.09027141314414L37.9916,135.1416548929711L38.0732,135.347913773185L38.12556,136.81678553604644L38.166360000000005,137.0770931315237L38.229600000000005,138.10406062744937L38.27788,138.1584702713264L38.337039999999995,139.21544717337525L38.39076,141.32101415363454L38.454679999999996,143.3655270712823L38.5288,144.17455118743084L38.573679999999996,144.06097566688558L38.622640000000004,143.30784252089958L38.665479999999995,142.33926577458402L38.740280000000006,141.48973634463323L38.811,141.63804505385025L38.854519999999994,141.41982347192604L38.905519999999996,140.9796955561374L38.978959999999994,142.32213109507566L39.07076,143.10070338035268L39.1374,143.40804981548376L39.18704,143.08792516516917L39.266600000000004,142.98597301495437L39.31624,142.4930905228398L39.374719999999996,141.81644747369737L39.43864000000001,140.97915423047493L39.53112,139.51317112715213L39.57532,138.2439835478733L39.64332,138.27018401300134L39.706559999999996,138.386829625737L39.777280000000005,139.52442406938752L39.81672,140.23063765696452L39.88064,139.61356447894434L39.939119999999996,138.7298395337208L40.02072,137.72316159376763L40.09892000000001,136.8839038125431L40.153319999999994,137.04685325350894L40.217240000000004,138.61677330871345L40.27776,139.31154899092468L40.354600000000005,140.79986199139725L40.40152,141.2036720979959L40.46,141.74845712435743L40.52936,142.09061415091656L40.606880000000004,142.63966978042623L40.67556,142.93901640682995L40.72112,143.05160639764614L40.76668,143.14870574125695L40.8408,144.0438029125276L40.902,145.49972935900746L40.96796,147.71436196843183L41.10464,148.03909760911898L41.21004,147.38344867777607L41.30184,147.9968700082607L41.49156,148.3145959429447L41.88324,149.16694809717958L42.00836,148.9308423202218L42.14572,149.20975057035574L42.63736,151.09418965699209L42.75636,152.36109090194265L42.88488,156.13308819595073L43.03312,159.16800558684128L43.17592,161.85811475347194L43.35612,163.30929243606755L43.534279999999995,163.24914038270174L43.76888,164.28306447050645L44.03204,165.43719077377523L44.251000000000005,166.04181092422607L44.6216,166.4411122706815L45.3016,165.75088824863934L45.46412,164.38771564775132L46.14412,162.8864991599724L46.82412,161.24467116346392L46.9472,159.44298777701715L47.6272,157.74072870136655L48.16236,153.94389579829388L48.84236,151.0370488640675L49.52236,148.9078788138832L50.20236,147.0573161555174L50.88236,145.69982755952137L51.56236,144.48783474778966L52.24236,143.39669547758007L52.92236,143.21546540666523L53.602360000000004,142.96767210695486L53.8934,141.98604796632134L54.5734,140.8596965084712L55.2534,139.66051449932098L55.9334,138.2542828003413L56.6134,136.69724369143526L57.2934,135.25522843735465L57.8986,134.97914633975654L58.5786,134.3850071316534L58.61736,133.85523869468216L58.71664,133.0291367877728L58.85536,131.8098943447991L59.026039999999995,130.8679100158964L59.21984,129.49174784059252L59.482319999999994,128.35379275342777L59.62648,127.73332621968362L60.30648,126.90067246927761L60.98648,125.96989231213297L61.66648,124.75995986237743L62.04116,124.20683534328909L62.721160000000005,123.64048007153335L62.79052,122.88756799083669L63.47052,121.99299721540046L64.15052,121.25497355100134L64.82032,121.55575533014508L65.50032,121.20245073633575L66.00556,121.21842274282685L66.48972,121.67018305039987L66.66788,121.6936310297842L67.30776,122.2234786463536L67.98776000000001,122.33815226146125L68.37128,122.63763993272309L69.05128,122.75504321866705L69.34027999999999,122.85009182882393L70.02028,122.92659336633733L70.07332,122.87857549612076L70.11955999999999,122.47373198793939L70.3018,121.66037991948889L70.44188000000001,121.02899306806702L70.65948,121.33187050107784L70.99676000000001,121.47767067100804L71.67676,121.48847174668035L72.35676000000001,121.16978243969115L73.03676,120.84703166474242L73.3278,120.91625821393335L74.00779999999999,120.5452954760488L74.6878,119.91934333177187L75.3678,119.01344416434631L76.0478,118.06476562580505L76.7278,117.16269484504684L77.4078,116.25896188790375L78.0878,115.3029604762481L78.22924,114.57961937453467L78.90924000000001,113.69004197994542L79.58924,112.9254635628045L79.65656,112.44493729702513L79.87008,111.56232852811742L79.96119999999999,110.46173968685744L80.1992,111.46576713975118L80.8792,111.51350259138651L81.328,112.13873828375444L82.008,111.97006836901568L82.08688000000001,111.78503146940746L82.76688,111.29393322897519L82.83828,110.82822469365139L82.95931999999999,110.64015802175724L83.24152,111.25977360537206L83.6842,110.20237156882219L84.3642,109.48435704366962L84.49544,108.65687300000548L84.73411999999999,108.23807288142419L84.90412,106.1128744702282L85.58412000000001,105.23492371778146L86.17232,106.84143267508618L86.36204,108.93994228734338L87.04204,110.06056407642622L87.24128,111.83505544618124L87.92128000000001,112.53579944202515L88.49452000000001,113.47200565601914L89.09836,114.94702235316552L89.77836,115.23228369388173L90.45836,115.53931343328867L91.13836,115.36992956184494L91.81836000000001,115.13482187284916L92.43784000000001,115.6311297671828L92.83767999999999,116.2797005653878L93.14232,116.84018868640065L93.66388,117.70661207251747L94.34388,118.20090974839329L94.83552,119.05141521345655L95.51552000000001,119.20385255621521L95.60936000000001,119.32435331229357L95.92352,119.43435274054997L96.60351999999999,119.48152101729548L97.28352,119.07459800466438L97.96351999999999,118.41598362579668L98.64352,117.49350104380483L99.32352,116.48754684413773L100.00352,115.54726743550282L100.68352,114.78582116483358L101.36352,113.7708854499581L102.04352,112.50580795251066L102.72352,111.41318799823165L103.40352,110.56940181261088L104.08352,109.7323197883315L104.76352,108.91191440514407L105.44352,108.08091094167044L106.12352,107.01836968511945L106.75932,105.07021029272043L107.02724,102.15391037312168L107.56240000000001,99.26946552471529L108.2424,97.87384078333503L108.9224,97.31519639454122L109.60239999999999,96.70683116731148L110.2824,96.02099570356071L110.51836,94.07285742172954L111.0236,91.95437534107381L111.08344,90.9610559813993L111.38264,88.92587527025641L111.78996,88.46441430959443L112.19184,87.09481407749657L112.52232000000001,86.56356758722467L112.79364,84.71592958431722L112.99968,82.28254153049757L113.3424,79.75763715177835L113.58924,77.15568116802015L114.26924000000001,76.17181477279289L114.54328000000001,74.43954148004944L115.22328,73.7796008442471L115.44087999999999,72.37391732112346L115.65576,70.3353369954573L115.85704000000001,67.84536201783101L116.1746,65.49419342733273L116.40036,63.21009014290679L116.6166,61.01828213343289L116.86616000000001,59.11214367784619L117.11912,57.270946281577494L117.33604,55.42403697671017L117.5788,53.74123462499095L118.09968,52.304048290456805L118.29688,50.57578090298503L118.55188,49.03228350354232L118.83204,47.85761808796522L119.06188,46.62915617992758L119.28152,45.44624791938236L119.50932,44.06853398925958L119.70108,42.83481826953232L119.90644,41.689000743620426L120.32600000000001,40.70246972107461L120.59187999999999,39.52156166662914L120.77548,38.246587024391545L121.04748000000001,37.257197372512536L121.21136000000001,36.13647868148277L121.36843999999999,34.975981548896186L121.42012,35.467711589656716L121.48948,36.76470941229013L121.57788000000001,38.43225806111104L121.84307999999999,38.974071124915355L121.99268000000001,38.70988886228642L122.1518,38.324598987131L122.33948,37.39800391945957L122.54484,36.34756199523045L122.68288,35.144286912307535L123.32548,34.533606266036855L123.56756,33.85777295151664L123.8008,33.178144198969875L124.04423999999999,32.50466341554079L124.20403999999999,31.626398981127863L124.3788,30.71287373112463L124.60184,29.79284244342739L124.72695999999999,30.350122336173627L124.98808,30.548469764008843L125.16148000000001,30.38343038949256L125.28659999999999,31.66757526250413L125.60687999999999,32.281566173941286L126.15904,32.65119562477494L126.31408,33.95761371682457L126.48067999999999,35.977196037711934L126.64796000000001,38.051687007392786L126.89412,38.82771742497604L127.08655999999999,38.76134918464058L127.16000000000001,39.70120182442366L127.47756000000001,39.95959056080005L127.66047999999999,41.12647188612195L127.97464,41.22704212825519L128.1154,42.08330704371744L128.37584,42.02505195490883L128.571,43.08878318710546L128.74372,42.948992588858346L128.92596,42.175802800222556L129.09596000000002,41.21197553592779L129.33872,39.945928200788444L129.64947999999998,38.71340038564233L129.83308,37.477175261496086L129.91808,37.570412721188035L130.12616,38.42850680833129L130.27712,38.494218546261806L130.44236,37.99960213198884L130.60147999999998,38.75845608306699L130.7844,38.548050191995145L130.9204,37.912792639611155L131.07816,37.17045585720419L131.31072,36.238852900715756L131.41816,36.54567831757791L131.5732,36.11108667804672L131.73164,35.45520044839705L131.86832,34.613061777013485L132.03900000000002,33.907349313929444L132.719,33.93466721775221L132.84752,33.36784468286484L133.093,32.60877649152229L133.24396000000002,35.32901245659957L133.44523999999998,36.52721385009906L133.86888000000002,37.01229059033287L134.36732,36.93675665807342L134.56995999999998,36.52346388660837L134.69916,35.9006206293283L134.89228,35.28022721565037L135.17584,34.44436982955298L135.48524,33.45996629877345L135.66476,32.377410504361734L135.88032,31.282279493535015L136.14416,30.492573649083255L136.37127999999998,29.686273071285882L136.53379999999999,28.811265368650425L137.21380000000002,28.659304956867345L137.44772,28.492037258788372L137.68232,30.47164241956338L137.77616,32.8065063664516L137.98968,33.692134797247235L138.31199999999998,35.987695307059255L138.52483999999998,36.72820322346084L138.87572,36.604569842605144L139.08651999999998,36.03790395390291L139.18375999999998,36.349814210720666L139.37688,35.920935218326946L139.67472,35.49284704001309L139.86784,34.57936382296617L139.9304,35.15339057161174L140.39212,35.56349554495273L140.44516000000002,36.75923046499247L140.68452000000002,37.098959197778015L141.02247999999997,36.98668456000797L141.11632,37.88565386344618L141.25164,37.98593835892058L141.39444,37.61441415060625L141.52636,36.842521435513476L141.68684,35.68631134356721L141.84120000000001,34.599250266426765L142.04384000000002,33.59681694452402L142.33488,32.431013079312066L142.52188,34.510814329520855L142.6708,35.30876632801849L142.99448,35.24083539902466L143.29504,34.9717572208601L143.4936,34.39259227603819L143.59696,33.53050954856562L143.77308000000002,35.14386037594926L143.94172,35.5631751529784L144.06344,35.28150278872715L144.6326,35.3414110929954L144.81076000000002,34.891667619338904L144.95628,37.03411590770361L145.13103999999998,37.67063016880837L145.24527999999998,37.41683840808841L145.44248000000002,36.64610099000279L145.60364,35.73064614901469L145.91644000000002,34.5888058412643L146.01776,34.812013363157035L146.15851999999998,34.49041041047232L146.35232,33.86806238804772L146.52368,33.022264780647646L146.65356,32.16045206907219L146.90380000000002,33.309563152250604L147.10711999999998,33.78043912426051L147.57768,35.8867712056761L147.70484000000002,36.61456962037832L148.05504000000002,36.62208694638062L148.20736,36.18355471909791L148.4168,35.782624083086375L148.59088000000003,35.206144660626535L148.8622,34.44568598257382L148.98664000000002,33.66274970396489L149.3212,32.72962371967711L149.42796,31.62349324629193L149.57212,30.50620141652516L149.71424000000002,29.550078231099974L149.87064,28.80298360451286L150.06988,28.058148886666032L150.21063999999998,27.37929071953218L150.40036,26.658612599037014L150.53772,25.82042388673341L150.58736,27.1190852646572L150.71792,27.37497071038939L151.00964000000002,27.269954370406822L151.07968000000002,28.394273952810494L151.20344,28.903430216412858L151.30816,28.720883406540423L151.3986,29.54375308673025L151.55635999999998,29.71915576235716L151.72636,29.822693489966383L151.92831999999999,29.625145879136085L152.16768000000002,29.15425321758582L152.31932,28.366770456755916L152.49748,27.64570114937905L152.67428,27.087043227876137L153.03332,26.845098210488715L153.1292,27.735597358096612L153.26656,28.006951025535045L153.50116,27.746207460210343L153.61472,27.25407386170565L153.94044,26.73610719951037L154.1662,26.076356376997893L154.27975999999998,25.48748242564534L154.56196,27.592788486962746L154.68164,28.472496415745354L154.87951999999999,28.74932784619199L155.0536,28.615131375683944L155.16987999999998,28.27544300184266L155.26304,27.64504127311079L155.36368,27.024641361359954L155.58264,26.546684942955295L155.75943999999998,25.96790700255707L155.88932,25.327294413122758L156.07904,24.91841528312756L156.22456,24.43866066076194L156.3558,24.03024540768763L156.48228,23.604027513981094L156.59924,23.09010769084307L156.73592000000002,22.56171292993554L156.8964,22.079613593736042L157.10039999999998,21.670236946931738L157.23164,21.214083370958548L157.35744,20.735886057731364L157.41048,21.559519346227376L157.59544,21.896087909819755L157.75592,21.931041783977776L157.89600000000002,21.83352489135021L158.12448,21.44647416739474L158.30672,21.072675210886075L158.41075999999998,20.8334882645525L158.52908000000002,20.58579691787864L158.62088,20.158968385102185L158.797,19.638576465631616L158.9126,19.23169552130605L159.04996000000003,18.766859557249774L159.20839999999998,18.354601024877212L159.33828,17.913990676775285L159.68372,17.75957618910556L159.83332000000001,17.60991368221329L159.94756,17.332867073260303L160.0686,17.11819719301218L160.12027999999998,18.370785645722663L160.19371999999998,20.322265210675766L160.293,21.19730291302659L160.40655999999998,22.926963494235196L160.48407999999998,25.481321508813267L160.60648,26.80687804933092L161.28647999999998,28.063580788745696L161.4082,28.50940516676954L161.52584,28.25586266386381L161.69788,27.85318202702922L161.81143999999998,27.292302079173282L161.95832000000001,26.602256593369844L162.00796,27.12127168063128L162.15756,26.98945522843087L162.28064,26.47616442937621L162.90556,26.537663440340566L163.05584,26.288387431880125L163.18368,25.753821501283028L163.35028,25.357119052299737L163.50668000000002,24.647664843651995L163.5944,25.447328500103964L163.82559999999998,25.63602977014702L163.93712,25.406477766059567L164.03368,24.958613649381846L164.09692,25.927526079440298L164.2404,26.17148220039857L164.37776000000002,26.068752927009967L164.48792,25.76755304608227L164.69736,25.30784440902957L164.82996,24.934851115632597L164.96528,24.777366947862618L165.0632,24.194997032324352L165.20123999999998,23.453263111972745L165.31004,22.854471783199273L165.39572,23.984742864027652L165.47868,25.84999226382675L165.62284000000002,26.600888831603328L165.68064,28.329608514619565L165.75136,30.36624340060115L165.85812,30.907026313798212L166.01316,30.791913704945586L166.0832,31.65116256622909L166.20628,31.87807571356558L166.31575999999998,31.63009060636199L166.40279999999998,32.30999796733283L166.51636000000002,32.35225327665623L166.583,32.9568162604273L166.69112,32.87467536823556L166.78904,33.88922982217832L166.8754,35.31332504337212L166.98012,35.68620403074328L167.14128,35.400093532541035L167.29088000000002,34.667547249081906L167.39696,33.853533944338466L167.49012,34.444164047429894L167.62951999999999,34.45853972891368L167.80224,33.99745981553832L167.89540000000002,34.803835325358136L168.0314,34.86930522353521L168.11096,36.092007226731795L168.22044,36.11865676930728L168.37344000000002,35.525550934142956L168.69031999999999,34.64626197731522L168.84672,33.769574731962024L168.98068,32.90309827342202L169.13368,31.92843637697638L169.22888,32.28090419272229L169.4322,31.939758112150287L169.53691999999998,31.494742216736796L169.62668,32.585127536259535L169.86332000000002,32.8427264037544L169.93472,34.1166139102865L170.06188,34.40341882631512L170.13532,35.48221643657686L170.23936,35.649870613085426L170.32436,36.78042916309866L170.39983999999998,38.307603241674315L170.57732000000001,38.61970647625458L170.64872,39.93059160629309L170.77384,40.049387292063614L170.90032000000002,39.689688649652254L170.97784000000001,40.26967453826137L171.07508,41.74315067022246L171.207,42.070028484001966L171.36068,42.06493101048582L171.4348,42.92388076612224L171.51844,44.63758006693246L171.61228,46.657420293577445L171.69116,48.94729781823631L172.37116,50.3827015465733L172.49560000000002,50.41396518657028L172.8152,49.69912884745651L172.8764,50.02819371879289L173.01239999999999,49.606112825514L173.28984,49.03888180663654L173.48704,48.285757530433756L173.54416,48.70760106367041L173.6788,48.04993110125562L173.79916,46.994063397081504L173.944,45.54845942089864L174.07932,44.212664641797005L174.14392,44.33247321541674L174.23095999999998,45.32336049581906L174.3384,45.04290364693804L174.43496,45.61693357406776L174.50092,46.4401448042714L174.6308,46.00937472435973L174.70288,46.271091529765584L174.82392,45.53424850509893L174.93272000000002,44.334659474966884L175.09388,43.084842539635076L175.23056,41.73221059783705L175.30196,41.74710811732854L175.42775999999998,41.17549690571613L175.51004,41.8604229603242L175.62088,41.66905870783515L175.86228,41.193304161875545L176.29136,40.2160553324118L176.40764000000001,39.09642307574916L176.52732,37.93557104922553L176.6028,38.17128920342856L176.67283999999998,40.241270714439935L176.77688,40.75764127387882L176.82992,41.83786804883249L176.88772,43.61384987796487L176.99176,43.90448965496901L177.1162,43.47477370834599L177.2454,42.592037463126076L177.36644,41.504094181977194L177.42152,41.70216075316421L177.5412,41.308061059645894L177.67516,40.752485398808375L177.78464,41.76477067857542L177.86556000000002,43.01949045890305L177.96959999999999,42.98467449995121L178.10968,42.4120635093783L178.29531999999998,44.31316303238478L178.54760000000002,44.8349493534478L178.66320000000002,45.91723594914549L178.80124,45.972742224597994L178.92636000000002,45.25053825874966L179.04468,44.04461504916256L179.51864,43.14372746455612L179.6186,41.92082174484696L179.68864,41.82467082197326L179.76139999999998,42.564101728210005L180.2238,46.480297564432504L180.48152,48.1031781114134L180.52776,49.960018500148834L180.63792,50.301205029125754L180.70456000000001,51.105288091124535L180.8358,50.911150882018475L181.05612,50.1595404234168L181.17444,50.415889842428996L181.32948,49.67327147463058L181.44304000000002,48.381412795260104L181.51988,48.61932444310659L181.62596,47.956262187022816L181.84628,46.7929201743556L182.19716,45.52956434012768L182.32363999999998,44.13715785456489L182.43312,42.59150294434701L182.64731999999998,40.95748599512385L182.78400000000002,39.488573526599055L182.94652,38.56461280492425L183.07503999999997,39.41635742497928L183.31032,39.36778627709043L183.55784,41.93284366159932L183.80468,42.618387430683555L183.906,42.35346615388539L184.07328,41.86730004959034L184.34596000000002,40.879027633107086L184.40648000000002,41.6414165595192L184.49828000000002,43.00518251627793L184.64516,43.16942282356885L184.82263999999998,42.78306802112698L184.87568000000002,43.33525076547568L185.15176,42.97774835967604L185.34896,42.21216468149572L185.52508,41.15585610056411L185.73044,39.92843160874341L185.90248,38.53733295206246L185.98748,38.66661770743539L186.11260000000001,38.144624575470345L186.1704,38.766569687502255L186.30912,38.46430946793757L186.37848,39.92229197959065L186.4458,41.896779769460124L186.57023999999998,42.323000580588854L186.6464,43.776580865931436L186.81843999999998,43.88896070624506L186.92043999999999,43.30862715616891L187.03876000000002,42.097404788981294L187.15300000000002,40.69343518295909L187.33524,39.35146595596686L187.49844000000002,37.87395525717386L187.56236,38.2368294327874L187.71331999999998,37.94768198991332L187.7854,38.69720819297143L187.85408,39.946187444265945L187.97852,39.9143751049059L188.22467999999998,39.08206541125085L188.27704,39.58439856885337L188.34708,41.1589935114292L188.60072,41.39301978442913L188.66667999999999,42.76557275526034L188.89652,42.909878382160116L189.1522,42.762528937661955L189.37184,41.87004468600213L189.57515999999998,40.89295826912078L189.63976,41.08845495414826L189.8152,40.69438321418818L189.95868,41.75175014742567L190.06952,41.689588499913725L190.2436,41.17301115658887L190.30616,41.67710910280749L190.44147999999998,41.40256894882643L190.56932,40.68259980028543L190.69648,39.73980806946162L190.89028,38.832988092816294L190.98548,39.29498975510384L191.05756,40.404644589553186L191.20852,40.699957245268365L191.3418,40.4116349306571L191.52608,39.61276432427971L191.7566,38.64671596761468L192.05104,37.869677957033645L192.14896,36.77494516126447L192.21424000000002,37.30450235473393L192.35364,37.107951677326014L192.64332000000002,38.56893472302974L192.74056000000002,38.708786635412906L192.9126,38.20570193323343L192.96632,38.596876685656184L193.20703999999998,38.23937808658903L193.38044,37.52511582493517L193.5076,38.32962637972676L193.61775999999998,38.11917676777745L193.75988,37.631677671180796L193.90676000000002,36.67011557080744L194.03256,35.69738977705478L194.17195999999998,34.61676701646073L194.24063999999998,35.126711556718874L194.38072,35.11365659304826L194.45144,36.115315965106305L194.58268,35.95701223124479L194.9832,35.537233950075006L195.0342,36.71930234514264L195.1736,36.802298590516585L195.30892,36.31791345606777L195.4422,35.60616201407035L195.50680000000003,36.44071041238104L195.75772,36.734511554232L195.93248,36.3341174346551L196.08548,35.60040826596884L196.27588,34.797184372016176L196.33912,35.30233485416676L196.44588000000002,35.182807325260455L196.53155999999998,36.9376876096745L196.67775999999998,37.3570611538581L196.80016,37.19240675660521L196.92324,39.49155137411287L197.06332,40.29518178068517L197.19796000000002,40.20606121684861L197.26664,41.10699400956881L197.51688,40.872466750793365L198.19688,40.81027362957758L198.3968,40.14214273406165L198.50016,39.216489762344565L198.75448,38.31161472329214L199.36104,40.63103776301173L199.52695999999997,41.37477622226015L199.66567999999998,40.98921369478188L199.80303999999998,40.11170271638082L199.92068,40.489078840114985L200.06619999999998,39.76519701923826L200.17703999999998,38.81048808458985L200.37491999999997,37.838374088546885L200.43135999999998,37.97841357259426L200.63944,40.93893421126489L200.70268,43.77177031679801L200.84820000000002,44.66170271335352L200.94544000000002,47.794689576417056L201.09776000000002,48.875726974203104L201.263,48.67518453657263L201.34528,50.688691654560785L201.54316,51.04868126064012L201.60572,51.69820327339252L201.72744,51.04026976270087L201.88996,52.91835403698249L202.02256,54.37662965037963L202.10415999999998,55.67978891693676L202.23132,55.63644993911063L202.37344000000002,54.60329635506794L202.47476,53.09652767876342L202.67672,51.332917176919494L202.82224000000002,49.45673563736915L202.90995999999998,48.9176839605465L203.14524,47.73223022902971L203.22072,49.33345962789633L203.39955999999998,49.234436901412266L203.52331999999998,48.52408763726666L203.6668,47.36375482845375L203.7688,45.98699811598502L203.89052,45.55731748124464L203.9626,46.1922215434343L204.10948,45.73403224653583L204.41819999999998,44.66443442360509L204.52564,43.38102723131152L204.6154,43.47175987312934L204.73916,43.18894935649482L204.8466,46.46803477502968L204.95948,47.81570003575348L205.11180000000002,47.54996895130236L205.34640000000002,46.744179389173354L205.52592,45.52781549483214L205.64968,44.21777155194485L205.86115999999998,43.04225611150545L205.99104,41.79866814037334L206.21884,40.35228678103388L206.516,38.90055299716849L206.58604,39.532115632122725L206.6826,39.492163646037966L206.79888,38.868349619914426L206.95528000000002,37.90435653301637L207.19192,36.92977560193873L207.30208000000002,37.531746220538224L207.417,37.36470475543493L207.56115999999997,38.371567665272664L207.76448,38.30540053975605L207.85152,39.96089024654245L208.2772,40.42495891192286L208.4948,39.87674054490762L208.55259999999998,40.92558029699666L208.70764,40.72582177032038L208.76952,41.6558414508641L208.88784,43.05856741120857L209.08504,43.38428654454415L209.18431999999999,44.410142056121L209.27884,45.48436605642652L209.4264,45.437267318588994L209.661,44.88356005749452L209.83780000000002,47.078286018220695L209.92212,48.94877594239401L210.03908,49.27085302881531L210.17168,48.777811357491004L210.2832,47.56252973034748L210.4056,46.06639666307828L210.6164,44.55145315084178L210.83332000000001,42.82036149418343L211.03052,41.124299395696255L211.1502,41.240892462938604L211.3474,40.7242616740522L211.52692,39.97917691816829L211.63368,40.64350704608327L211.7112,41.76887870274763L211.80096,43.4645108153986L211.94036,43.79574339516361L212.03215999999998,44.744513277495315L212.18788,44.55451568540997L212.23956,45.386388386669154L212.3266,46.442451887795755L212.43676000000002,49.39555652086105L212.56799999999998,50.21130485978226L212.65572,51.308294024267795L212.81484,51.15424482683282L212.93656,50.240759888449944L213.14803999999998,48.95068538456738L213.33640000000003,47.31489499538884L213.52816,45.615039821126544L213.69271999999998,43.89647707871109L213.80492,42.30155869188809L213.9518,42.023645501591204L214.12724,41.29827917920994L214.26664,40.29463960632154L214.39311999999998,39.19488552974346L214.50124,39.79183577748148L214.5944,42.934102361671165L214.7474,44.197999604665455L214.87592,44.00481365846986L215.01192,43.226443106377474L215.0772,43.72411435829264L215.21456,43.419415819565444L215.32744000000002,44.10343953080175L215.46616,43.84393464947064L215.59468,42.89739523385555L215.71232,41.78772899008547L215.86327999999997,40.47166176742368L215.95712,40.265372324939875L216.05776,39.41497174701473L216.21688,38.24467522757081L216.32023999999998,36.905913372219544L216.44196,37.08930650721845L216.58272,38.337981792514654L216.66704,39.92753187336038L216.80168,40.129850015943305L217.0118,39.752890152795146L217.23756,41.38429046781641L217.34364,42.968472616464595L217.49052,43.14057412977456L217.62652,42.48560943147805L217.73192,41.326044959830824L217.9434,40.0427509179558L218.161,38.78683434797398L218.28816,37.50515834804219L218.40308,36.25070873766646L218.56492,37.608862864670186L218.70908,37.77271469145839L218.87295999999998,37.30603730283076L219.13544,36.24737502655523L219.2762,35.01066354132374L219.45708000000002,33.77668857075781L219.62572,32.58663014684922L219.85352,31.6386242469637L219.91268,32.3958739907238L220.17244000000002,33.78774047923244L220.33563999999998,34.07892138714885L220.47912,33.6509841189104L220.67156,32.80278423762229L220.78307999999998,31.977721649344204L221.15300000000002,31.102302891136475L221.38352,31.51282094366627L221.48824,31.371024271928917L221.64192,32.12396260596336L221.76024,32.19161252858453L221.87584,31.590273323628566L221.98804,30.86856277754302L222.19747999999998,30.01810269338128L222.27499999999998,30.5456348704233L222.37292,31.85014434998834L222.43956,34.52483156442008L222.57828,35.5800898973109L222.67212,36.92008437458446L222.75576,38.43315857559702L223.15152,39.03174113331394L223.2814,41.69782890036595L223.42012,42.59268275281724L223.53368,42.40560816650154L223.74788,41.4867592683905L223.89068,40.32976212434812L224.0532,39.096274755077616L224.31364,37.76524094761035L224.72708,36.95657846749202L225.39212,36.85527858277385L225.54988,36.297312189540605L225.68248,37.22778381844441L225.9368,37.23065334363827L225.9946,38.2961289446595L226.1714,38.342421385350406L226.27544,37.756536490064406L226.3856,36.72407008739802L226.47740000000002,37.294639318063815L226.67528000000001,37.17223687859868L226.74192,38.07780627917745L226.89288000000002,37.899141938079396L227.00168,37.1127678776914L227.09756,36.04403757801458L227.3478,34.84458658896369L227.47632,33.63459936548759L227.64972,32.59384413263891L227.73268,32.86615399341798L227.86936,32.64364690451433L228.03663999999998,32.07509068990913L228.17332000000002,31.386814952682442L228.30931999999999,31.940216189220138L228.44872,31.739875705556813L229.02196,31.45197616389399L229.18244,30.77197156666321L229.32184,31.825865150284386L229.5544,33.86841093587378L229.66184,34.678085400228696L229.82028000000003,34.66469553945362L229.93928,34.1225964374417L230.03040000000001,34.66438442089603L230.13784,34.58940445624853L230.32552,36.05868759562412L230.53428000000002,36.482135266521624L230.66891999999999,36.35550941105231L230.79132,35.7698951852056L230.9518,34.85204614025747L231.07487999999998,33.99702885196049L231.19116,33.02289954180779L231.336,32.01972251317062L231.6284,31.31022030803257L231.76032,30.450374189214074L231.90788,29.438178167499785L232.11936,28.42143556667827L232.22884,27.482661104004336L232.43624,26.74213338522162L232.56408,25.75559432149754L232.7266,24.982473170047L232.87688,24.023805964202666L232.99248,23.089474923736446L233.12712,22.24342878969108L233.2944,21.32018349451775L233.45759999999999,20.33167324775232L233.65956,19.457505128664423L233.84792000000002,18.64284890239398L234.02132,17.71509207255619L234.18044,16.911567633670415L234.29536000000002,16.337756823691848L234.4946,15.771915528134372L234.62992,15.328850834621477L234.73668,14.821986648233832L234.87608,14.47345686117336L235.02568,14.118325174646742" style="fill: none;" fill="none"></path></g></g></g></g><g opacity="0.2"><g><g><g><path stroke="rgb(255, 112, 67)" stroke-width="2px" d="M34.045559999999995,89.99400277614593L34.11356,93.08572228431701L34.182919999999996,94.92891576766968L34.24004,98.1568236986796L34.31008,99.44584695180258L34.39644,99.92814530690511L34.46036,102.04704564412435L34.51408,104.38458690643311L34.59228,105.42483280181884L34.66708,106.72209308624267L34.70856,109.27349952697753L34.78676,114.1589729309082L34.83164,114.66993934631347L34.89896,118.16223012288411L34.98056,121.7245659383138L35.04176,122.59316108703612L35.10227999999999,122.09044019063315L35.17096,122.44027381896973L35.21924,123.20618815104167L35.29404,127.2931137084961L35.382439999999995,127.18386001586914L35.47696,126.56040779113769L35.54564,126.03773061116537L35.606159999999996,126.16391670227051L35.647639999999996,125.34765558878581L35.71972,125.12634160359701L35.76596000000001,124.50019142150879L35.82172,127.37334625244141L35.88836,127.42441731770833L35.95024,127.53171544392903L36.037279999999996,132.95842580159504L36.12636,132.1403381347656L36.17736,131.8288327026367L36.23448,129.74278203328453L36.30588,132.81882914225258L36.36368,133.32962580362957L36.433040000000005,135.78439580281577L36.50852,135.48902379353842L36.573800000000006,135.49293039957684L36.6486,140.41055521647135L36.698240000000006,140.10971486409505L36.768280000000004,138.3375144958496L36.84852,140.18390869140626L36.90428,138.93988779703776L36.97976,139.56852091471353L37.054559999999995,138.56675486246746L37.09876,137.4729549662272L37.14636,135.96281407674155L37.196000000000005,135.56121678670246L37.26468,138.08192377726238L37.31092,137.75730880737305L37.3524,136.7029416402181L37.41292,136.19193222045897L37.482960000000006,138.22391057332356L37.53532,138.92460540771484L37.57476,136.47936879475913L37.64752,135.38440551757813L37.7264,133.4117505391439L37.77468,133.36169799804688L37.855599999999995,133.95612228393554L37.94672,136.27253143310548L37.9916,135.2187301127116L38.0732,135.65730209350585L38.12556,139.02009318033853L38.166360000000005,137.46755452473957L38.229600000000005,139.6445118713379L38.27788,138.24008473714193L38.337039999999995,140.80091252644857L38.39076,144.47936462402345L38.454679999999996,146.4322964477539L38.5288,145.38808736165365L38.573679999999996,143.89061238606772L38.622640000000004,142.17814280192056L38.665479999999995,140.88640065511066L38.740280000000006,140.215442199707L38.811,141.86050811767578L38.854519999999994,141.0924910990397L38.905519999999996,140.3195036824544L38.978959999999994,144.33578440348307L39.07076,144.26856180826823L39.1374,143.86906946818033L39.18704,142.60773818969727L39.266600000000004,142.83304478963217L39.31624,141.75376678466796L39.374719999999996,140.80148289998374L39.43864000000001,139.72321436564127L39.53112,137.31419647216796L39.57532,136.34020217895508L39.64332,138.30948471069337L39.706559999999996,138.5617980448405L39.777280000000005,141.23081573486328L39.81672,141.28995803833007L39.88064,138.68795471191407L39.939119999999996,137.4042521158854L40.02072,136.2131446838379L40.09892000000001,135.62501714070638L40.153319999999994,137.29127741495768L40.217240000000004,140.9716533915202L40.27776,140.35371251424152L40.354600000000005,143.03233149210612L40.40152,141.8093872578939L40.46,142.56563466389974L40.52936,142.6038496907552L40.606880000000004,143.46325322469076L40.67556,143.38803634643554L40.72112,143.22049138387044L40.76668,143.2943547566732L40.8408,145.3864486694336L40.902,147.6836190287272L40.96796,151.03631088256836L41.10464,148.52620107014974L41.21004,146.3999752807617L41.30184,148.91700200398762L41.49156,148.7911848449707L41.88324,150.4454763285319L42.00836,148.57668365478514L42.14572,149.62811294555664L42.63736,153.9208482869466L42.75636,154.2614427693685L42.88488,161.7910841369629L43.03312,163.7203816731771L43.17592,165.89327850341797L43.35612,165.48605895996093L43.534279999999995,163.158912302653L43.76888,165.83395060221355L44.03204,167.1683802286784L44.251000000000005,166.94874114990233L44.6216,167.04006429036457L45.3016,164.71555221557617L45.46412,162.34295674641928L46.14412,160.63467442830404L46.82412,158.78192916870117L46.9472,156.740462697347L47.6272,155.18734008789062L48.16236,148.2486464436849L48.84236,146.67677846272787L49.52236,145.71412373860676L50.20236,144.28147216796876L50.88236,143.66359466552734L51.56236,142.66984553019205L52.24236,141.75998657226563L52.92236,142.94362030029296L53.602360000000004,142.59598215738933L53.8934,140.5136117553711L54.5734,139.17016932169597L55.2534,137.8617414855957L55.9334,136.14493525187174L56.6134,134.36168502807618L57.2934,133.09220555623372L57.8986,134.56502319335937L58.5786,133.4937983194987L58.61736,133.06058603922526L58.71664,131.78998392740885L58.85536,129.98103068033853L59.026039999999995,129.45493352254232L59.21984,127.42750457763671L59.482319999999994,126.64686012268066L59.62648,126.80262641906738L60.30648,125.65169184366863L60.98648,124.57372207641602L61.66648,122.94506118774413L62.04116,123.37714856465658L62.721160000000005,122.79094716389974L62.79052,121.75819986979167L63.47052,120.65114105224609L64.15052,120.14793805440266L64.82032,122.00692799886068L65.50032,120.67249384562174L66.00556,121.24238075256348L66.48972,122.34782351175944L66.66788,121.72880299886067L67.30776,123.01825007120767L67.98776000000001,122.51016268412272L68.37128,123.08687143961589L69.05128,122.931148147583L69.34027999999999,122.99266474405925L70.02028,123.04134567260742L70.07332,122.80654869079589L70.11955999999999,121.86646672566732L70.3018,120.44035181681315L70.44188000000001,120.08191279093424L70.65948,121.78618665059408L70.99676000000001,121.69637092590332L71.67676,121.5046733601888L72.35676000000001,120.69174847920735L73.03676,120.36290550231934L73.3278,121.02009803771972L74.00779999999999,119.988851369222L74.6878,118.98041511535644L75.3678,117.654595413208L76.0478,116.64174781799316L76.7278,115.8095886739095L77.4078,114.90336245218913L78.0878,113.86895835876466L78.22924,113.49460772196451L78.90924000000001,112.35567588806153L79.58924,111.7785959370931L79.65656,111.72414789835612L79.87008,110.23841537475586L79.96119999999999,108.81085642496744L80.1992,112.9718083190918L80.8792,111.58510576883951L81.328,113.07659182230631L82.008,111.71706349690756L82.08688000000001,111.50747611999512L82.76688,110.55728586832682L82.83828,110.12966189066569L82.95931999999999,110.35805801391601L83.24152,112.18919698079428L83.6842,108.6162685139974L84.3642,108.40733525594075L84.49544,107.41564693450927L84.73411999999999,107.60987270355226L84.90412,102.92507685343425L85.58412000000001,103.91799758911134L86.17232,109.2511961110433L86.36204,112.08770670572916L87.04204,111.74149676005045L87.24128,114.4967925008138L87.92128000000001,113.58691543579101L88.49452000000001,114.87631497701008L89.09836,117.15954739888508L89.77836,115.66017570495606L90.45836,115.9998580423991L91.13836,115.11585375467936L91.81836000000001,114.78216033935547L92.43784000000001,116.37559160868327L92.83767999999999,117.25255676269532L93.14232,117.68092086791992L93.66388,119.0062471516927L94.34388,118.94235626220703L94.83552,120.32717341105143L95.51552000000001,119.43250857035319L95.60936000000001,119.50510444641114L95.92352,119.59935188293457L96.60351999999999,119.55227343241374L97.28352,118.46421348571778L97.96351999999999,117.42806205749511L98.64352,116.10977717081707L99.32352,114.97861554463705L100.00352,114.13684832255046L100.68352,113.64365175882975L101.36352,112.24848187764486L102.04352,110.60819170633951L102.72352,109.77425806681315L103.40352,109.30372253417968L104.08352,108.47669675191244L104.76352,107.68130633036296L105.44352,106.83440574645996L106.12352,105.42455780029296L106.75932,102.1479712041219L107.02724,97.77946049372355L107.56240000000001,94.9427982521057L108.2424,95.78040367126465L108.9224,96.4772298113505L109.60239999999999,95.79428332646688L110.2824,94.99224250793456L110.51836,91.15064999898274L111.0236,88.77665222009024L111.08344,89.47107694188753L111.38264,85.87310420354208L111.78996,87.77222286860147L112.19184,85.04041372934977L112.52232000000001,85.76669785181683L112.79364,81.94447257995606L112.99968,78.63245944976806L113.3424,75.97028058369955L113.58924,73.25274719238281L114.26924000000001,74.69601517995198L114.54328000000001,71.84113154093424L115.22328,72.78968989054361L115.44087999999999,70.26539203643799L115.65576,67.277466506958L115.85704000000001,64.1103995513916L116.1746,61.96744054158529L116.40036,59.783935216267906L116.6166,57.73057011922201L116.86616000000001,56.252935994466156L117.11912,54.50915018717447L117.33604,52.65367301940918L117.5788,51.217031097412104L118.09968,50.1482687886556L118.29688,47.98337982177736L118.55188,46.71703740437826L118.83204,46.09561996459959L119.06188,44.786463317871096L119.28152,43.671885528564474L119.50932,42.001963094075506L119.70108,40.98424468994139L119.90644,39.9702744547526L120.32600000000001,39.22267318725588L120.59187999999999,37.75019958496094L120.77548,36.33412506103514L121.04748000000001,35.77311289469401L121.21136000000001,34.45540064493815L121.36843999999999,33.23523585001627L121.42012,36.205306650797525L121.48948,38.71020614624024L121.57788000000001,40.93358103434244L121.84307999999999,39.78679072062175L121.99268000000001,38.3136154683431L122.1518,37.74666417439778L122.33948,36.00811131795248L122.54484,34.771899108886714L122.68288,33.339374287923164L123.32548,33.617585296630864L123.56756,32.84402297973631L123.8008,32.15870107014973L124.04423999999999,31.49444224039715L124.20403999999999,30.309002329508473L124.3788,29.342585856119797L124.60184,28.412795511881512L124.72695999999999,31.186042175292954L124.98808,30.845990905761738L125.16148000000001,30.135871327718093L125.28659999999999,33.5937925720215L125.60687999999999,33.20255254109699L126.15904,33.20563980102537L126.31408,35.91724085489909L126.48067999999999,39.00656951904298L126.64796000000001,41.16342346191408L126.89412,39.991763051350915L127.08655999999999,38.66179682413738L127.16000000000001,41.1109807840983L127.47756000000001,40.34717366536458L127.66047999999999,42.876793874104806L127.97464,41.37789749145506L128.1154,43.36770441691081L128.37584,41.93766932169598L128.571,44.68438003540041L128.74372,42.73930669148763L128.92596,41.016018117268885L129.09596000000002,39.766234639485674L129.33872,38.04685719807944L129.64947999999998,36.86460866292319L129.83308,35.62283757527669L129.91808,37.710268910725915L130.12616,39.71564793904622L130.27712,38.59278615315756L130.44236,37.25767751057941L130.60147999999998,39.896737009684244L130.7844,38.23244135538738L130.9204,36.959906311035155L131.07816,36.056950683593755L131.31072,34.84144846598306L131.41816,37.0059164428711L131.5732,35.45919921875L131.73164,34.471371103922536L131.86832,33.349853769938164L132.03900000000002,32.8487806193034L132.719,33.97564407348631L132.84752,32.51761088053385L133.093,31.470174204508453L133.24396000000002,39.40936640421549L133.44523999999998,38.324515940348306L133.86888000000002,37.73990570068358L134.36732,36.82345575968424L134.56995999999998,35.903524729410805L134.69916,34.9663557434082L134.89228,34.34963709513346L135.17584,33.190583750406915L135.48524,31.98336100260417L135.66476,30.753576812744143L135.88032,29.639582977294907L136.14416,29.308014882405587L136.37127999999998,28.476822204589837L136.53379999999999,27.498753814697267L137.21380000000002,28.431364339192697L137.44772,28.241135711669926L137.68232,33.44105016072592L137.77616,36.308802286783845L137.98968,35.02057744344074L138.31199999999998,39.43103607177733L138.52483999999998,37.83896509806314L138.87572,36.41911977132162L139.08651999999998,35.18790512084959L139.18375999999998,36.81767959594728L139.37688,35.27761672973631L139.67472,34.85071477254232L139.86784,33.209138997395826L139.9304,36.014430694580085L140.39212,36.17865300496419L140.44516000000002,38.55283284505208L140.68452000000002,37.60855229695639L141.02247999999997,36.81827260335285L141.11632,39.23410781860352L141.25164,38.136365102132146L141.39444,37.05712783813476L141.52636,35.684682362874355L141.68684,33.95199620564779L141.84120000000001,32.96865865071615L142.04384000000002,32.09316696166994L142.33488,30.68230728149416L142.52188,37.63051620483398L142.6708,36.50569432576498L142.99448,35.13893900553384L143.29504,34.5681399536133L143.4936,33.52384485880535L143.59696,32.237385457356766L143.77308000000002,37.563886617024735L143.94172,36.19214731852213L144.06344,34.85899424235026L144.6326,35.43127354939779L144.81076000000002,34.21705240885416L144.95628,40.24778834025065L145.13103999999998,38.62540156046549L145.24527999999998,37.03615076700848L145.44248000000002,35.48999486287434L145.60364,34.35746388753256L145.91644000000002,32.87604537963867L146.01776,35.14682464599608L146.15851999999998,34.00800598144531L146.35232,32.934540354410814L146.52368,31.753568369547537L146.65356,30.867733001708984L146.90380000000002,35.03322977701822L147.10711999999998,34.486753082275385L147.57768,39.04626932779948L147.70484000000002,37.706267242431636L148.05504000000002,36.6333629353841L148.20736,35.52575637817381L148.4168,35.18122812906901L148.59088000000003,34.34142552693686L148.8622,33.304997965494806L148.98664000000002,32.48834528605144L149.3212,31.329934743245445L149.42796,29.96429753621419L149.57212,28.830263671875002L149.71424000000002,28.11589345296224L149.87064,27.682341664632162L150.06988,26.940896809895833L150.21063999999998,26.36100346883137L150.40036,25.577595418294266L150.53772,24.563140818277986L150.58736,29.067077331542976L150.71792,27.75879887898762L151.00964000000002,27.11242986043294L151.07968000000002,30.080753326416016L151.20344,29.66716461181639L151.30816,28.447063191731758L151.3986,30.778057607014972L151.55635999999998,29.98225977579753L151.72636,29.978000081380202L151.92831999999999,29.328824462890623L152.16768000000002,28.447914225260405L152.31932,27.18554631551106L152.49748,26.56409718831381L152.67428,26.24905634562174L153.03332,26.482180684407552L153.1292,29.07134607950846L153.26656,28.41398152669271L153.50116,27.355092112223304L153.61472,26.515873463948566L153.94044,25.95915720621744L154.1662,25.086730143229175L154.27975999999998,24.604171498616523L154.56196,30.750747578938814L154.68164,29.79205830891928L154.87951999999999,29.16457499186197L155.0536,28.413836669921892L155.16987999999998,27.765910441080734L155.26304,26.69943868001303L155.36368,26.094041493733727L155.58264,25.82975031534832L155.75943999999998,25.09974009195963L155.88932,24.36637552897136L156.07904,24.305096588134745L156.22456,23.719028727213555L156.3558,23.41762252807615L156.48228,22.96470067342122L156.59924,22.319227956136075L156.73592000000002,21.769120788574213L156.8964,21.356464589436854L157.10039999999998,21.056171976725267L157.23164,20.529853006998707L157.35744,20.01859008789063L157.41048,22.794969278971365L157.59544,22.400940755208325L157.75592,21.983472595214863L157.89600000000002,21.687249552408844L158.12448,20.86589808146158L158.30672,20.51197677612305L158.41075999999998,20.47470784505208L158.52908000000002,20.214259897867834L158.62088,19.518725585937517L158.797,18.857988586425762L158.9126,18.621374104817704L159.04996000000003,18.069605611165372L159.20839999999998,17.73621322631834L159.33828,17.253075154622394L159.68372,17.527954457600913L159.83332000000001,17.385419921874984L159.94756,16.917297159830724L160.0686,16.79619237263998L160.12027999999998,20.249668324788416L160.19371999999998,23.24948455810545L160.293,22.50985946655274L160.40655999999998,25.521454366048175L160.48407999999998,29.31285853068033L160.60648,28.795212860107426L161.28647999999998,29.948634897867834L161.4082,29.178141733805347L161.52584,27.8755489095052L161.69788,27.249161071777337L161.81143999999998,26.45098215738932L161.95832000000001,25.567188364664702L162.00796,27.899794311523436L162.15756,26.79173055013021L162.28064,25.706228230794267L162.90556,26.62991195678711L163.05584,25.91447341918945L163.18368,24.95197260538737L163.35028,24.76206537882487L163.50668000000002,23.583483530680354L163.5944,26.64682398478189L163.82559999999998,25.9190816752116L163.93712,25.06214975992839L164.03368,24.28681747436525L164.09692,27.38089472452799L164.2404,26.537416381835953L164.37776000000002,25.91465901692709L164.48792,25.315753224690752L164.69736,24.61828145345052L164.82996,24.37536117553711L164.96528,24.54114069620769L165.0632,23.321442159016925L165.20123999999998,22.340662231445293L165.31004,21.956284790039064L165.39572,25.680149485270192L165.47868,28.647866363525395L165.62284000000002,27.727233683268224L165.68064,30.92268803914388L165.75136,33.421195729573554L165.85812,31.71820068359375L166.01316,30.61924479166666L166.0832,32.94003585815432L166.20628,32.21844543457033L166.31575999999998,31.25811294555666L166.40279999999998,33.32985900878904L166.51636000000002,32.41563624064128L166.583,33.863660736084L166.69112,32.751464029947925L166.78904,35.41106150309244L166.8754,37.44946787516275L166.98012,36.24552251180012L167.14128,34.97092778523762L167.29088000000002,33.56872782389323L167.39696,32.63251398722332L167.49012,35.330109202067064L167.62951999999999,34.480103251139326L167.80224,33.30583994547527L167.89540000000002,36.01339859008789L168.0314,34.967510070800785L168.11096,37.92606023152669L168.22044,36.158631083170576L168.37344000000002,34.635892181396486L168.69031999999999,33.32732854207356L168.84672,32.45454386393229L168.98068,31.603383585611994L169.13368,30.46644353230795L169.22888,32.809605916341155L169.4322,31.42803899129231L169.53691999999998,30.827218373616546L169.62668,34.220705515543614L169.86332000000002,33.229124704996735L169.93472,36.02744517008463L170.06188,34.83362620035808L170.13532,37.100412851969395L170.23936,35.9013518778483L170.32436,38.47626698811848L170.39983999999998,40.598364359537754L170.57732000000001,39.087861328125L170.64872,41.89691930135092L170.77384,40.227580820719396L170.90032000000002,39.15014068603517L170.97784000000001,41.139653371175115L171.07508,43.953364868164044L171.207,42.56034520467122L171.36068,42.05728480021159L171.4348,44.21230539957682L171.51844,47.20812901814779L171.61228,49.687180633544926L171.69116,52.382114105224616L172.37116,52.53580713907877L172.49560000000002,50.46086064656576L172.8152,48.6268743387858L172.8764,50.521791025797526L173.01239999999999,48.972991485595685L173.28984,48.188035278320314L173.48704,47.15607111612957L173.54416,49.34036636352539L173.6788,47.06342615763347L173.79916,45.41026184082031L173.944,43.38005345662435L174.07932,42.20897247314451L174.14392,44.51218607584636L174.23095999999998,46.80969141642254L174.3384,44.62221837361653L174.43496,46.47797846476237L174.50092,47.67496164957683L174.6308,45.36321960449217L174.70288,46.66366673787434L174.82392,44.42898396809895L174.93272000000002,42.535275929768886L175.09388,41.210117136637365L175.23056,39.703262685139975L175.30196,41.76945439656575L175.42775999999998,40.318080088297535L175.51004,42.887812042236334L175.62088,41.38201232910154L175.86228,40.4796723429362L176.29136,38.75018208821615L176.40764000000001,37.41697469075521L176.52732,36.194293009440116L176.6028,38.52486643473307L176.67283999999998,43.346242980957015L176.77688,41.532197113037114L176.82992,43.45820821126301L176.88772,46.277822621663404L176.99176,44.34044932047527L177.1162,42.83019978841145L177.2454,41.26793309529623L177.36644,39.87217926025389L177.42152,41.999260609944656L177.5412,40.716911519368495L177.67516,39.91912190755207L177.78464,43.28319859822591L177.86556000000002,44.901570129394514L177.96959999999999,42.93245056152344L178.10968,41.553147023518875L178.29531999999998,47.16481231689451L178.54760000000002,45.617628835042325L178.66320000000002,47.54066584269205L178.80124,46.05600163777669L178.92636000000002,44.16723230997721L179.04468,42.2357302347819L179.51864,41.792396087646466L179.6186,40.08646316528322L179.68864,41.68044443766277L179.76139999999998,43.6732480875651L180.2238,52.35459131876627L180.48152,50.53749893188477L180.52776,52.74527908325196L180.63792,50.81298482259115L180.70456000000001,52.311412684122715L180.8358,50.61994506835937L181.05612,49.032124735514316L181.17444,50.80041397094726L181.32948,48.55934392293295L181.44304000000002,46.443624776204416L181.51988,48.976191914876296L181.62596,46.96166880289715L181.84628,45.04790715535481L182.19716,43.63453058878582L182.32363999999998,42.04854812622071L182.43312,40.2730205790202L182.64731999999998,38.50646057128907L182.78400000000002,37.28520482381185L182.94652,37.178671722412105L183.07503999999997,40.69397435506184L183.31032,39.29492955525717L183.55784,45.78042973836264L183.80468,43.646703084309905L183.906,41.95608423868816L184.07328,41.13805089314778L184.34596000000002,39.396619008382146L184.40648000000002,42.78499994913736L184.49828000000002,45.05083145141603L184.64516,43.41578328450521L184.82263999999998,42.2035358174642L184.87568000000002,44.16352488199871L185.15176,42.441494750976545L185.34896,41.063789164225255L185.52508,39.57139322916666L185.73044,38.087294871012375L185.90248,36.45068496704101L185.98748,38.86054484049478L186.11260000000001,37.36163487752279L186.1704,39.69948735555013L186.30912,38.01091913859051L186.37848,42.10926574707031L186.4458,44.85851145426432L186.57023999999998,42.962331797281905L186.6464,45.95695129394531L186.81843999999998,44.05753046671549L186.92043999999999,42.43812683105469L187.03876000000002,40.28057123819988L187.15300000000002,38.58748077392576L187.33524,37.33851211547852L187.49844000000002,35.65768920898438L187.56236,38.78114069620767L187.71331999999998,37.513960825602226L187.7854,39.821497497558596L187.85408,41.819656321207674L187.97852,39.86665659586589L188.22467999999998,37.83360087076824L188.27704,40.33789830525717L188.34708,43.52088592529299L188.60072,41.74405919392905L188.66667999999999,44.82440221150716L188.89652,43.126336822509785L189.1522,42.54150477091471L189.37184,40.53131830851237L189.57515999999998,39.42732864379883L189.63976,41.38169998168945L189.8152,40.10327560424804L189.95868,43.337800547281915L190.06952,41.596346028645826L190.2436,40.39814514160156L190.30616,42.433256022135424L190.44147999999998,40.99075871785482L190.56932,39.60264607747396L190.69648,38.32562047322591L190.89028,37.47275812784832L190.98548,39.987992248535136L191.05756,42.06912684122722L191.20852,41.142926228841134L191.3418,39.97915145874023L191.52608,38.41445841471355L191.7566,37.197643432617184L192.05104,36.7041209411621L192.14896,35.13284596761068L192.21424000000002,38.098838144938156L192.35364,36.8131256612142L192.64332000000002,40.76040929158529L192.74056000000002,38.918564503987625L192.9126,37.45107487996418L192.96632,39.18363881429036L193.20703999999998,37.70313018798828L193.38044,36.45372243245441L193.5076,39.53639221191406L193.61775999999998,37.80350234985352L193.75988,36.90042902628582L193.90676000000002,35.22777242024739L194.03256,34.238301086425764L194.17195999999998,32.99583287556965L194.24063999999998,35.89162836710611L194.38072,35.09407414754233L194.45144,37.61780502319334L194.58268,35.71955663045247L194.9832,34.90756652832033L195.0342,38.49240493774414L195.1736,36.926792958577465L195.30892,35.59133575439455L195.4422,34.53853485107422L195.50680000000003,37.69253300984701L195.75772,37.17521326700847L195.93248,35.73352625528972L196.08548,34.49984451293943L196.27588,33.592348531087225L196.33912,36.06006057739256L196.44588000000002,35.00351603190106L196.53155999999998,39.570008036295576L196.67775999999998,37.98612147013347L196.80016,36.945425160725904L196.92324,42.940268300374356L197.06332,41.50062739054363L197.19796000000002,40.07238037109374L197.26664,42.45839319864908L197.51688,40.52067586263021L198.19688,40.7169839477539L198.3968,39.13994639078777L198.50016,37.82801030476887L198.75448,36.95430216471354L199.36104,44.110172322591154L199.52695999999997,42.490383911132795L199.66567999999998,40.410869903564446L199.80303999999998,38.79543624877928L199.92068,41.05514302571615L200.06619999999998,38.67937428792317L200.17703999999998,37.37842468261721L200.37491999999997,36.380203094482425L200.43135999999998,38.18847279866537L200.63944,45.37971516927084L200.70268,48.021024475097676L200.84820000000002,45.996601308186854L200.94544000000002,52.49416987101236L201.09776000000002,50.49728307088216L201.263,48.374370880126946L201.34528,53.708952331542974L201.54316,51.58866566975912L201.60572,52.67248629252116L201.72744,50.05336949666342L201.88996,55.73548044840494L202.02256,56.56404307047525L202.10415999999998,57.63452781677246L202.23132,55.57144147237142L202.37344000000002,53.053565979003906L202.47476,50.836374664306646L202.67672,48.68750142415365L202.82224000000002,46.64246332804362L202.90995999999998,48.109106445312506L203.14524,45.95404963175457L203.22072,51.73530372619629L203.39955999999998,49.085902811686196L203.52331999999998,47.45856374104818L203.6668,45.62325561523437L203.7688,43.9218630472819L203.89052,44.91279652913411L203.9626,47.144577636718765L204.10948,45.04674830118816L204.41819999999998,43.06003768920897L204.52564,41.455916442871114L204.6154,43.60785883585612L204.73916,42.76473358154297L204.8466,51.38666290283203L204.95948,49.837197926839195L205.11180000000002,47.15137232462564L205.34640000000002,45.535495045979815L205.52592,43.70326965332032L205.64968,42.25270563761393L205.86115999999998,41.27898295084637L205.99104,39.933286183675136L206.21884,38.18271474202473L206.516,36.72295232137043L206.58604,40.479459584554036L206.6826,39.4322356669108L206.79888,37.93262858072916L206.95528000000002,36.45836690266927L207.19192,35.46790420532227L207.30208000000002,38.43470214843748L207.417,37.11414255777996L207.56115999999997,39.88186203002928L207.76448,38.206149851481115L207.85152,42.444124806722016L208.2772,41.1210619099935L208.4948,39.05441299438476L208.55259999999998,42.4988399251302L208.70764,40.42618398030598L208.76952,43.05087097167967L208.88784,45.162656351725275L209.08504,43.87286524454754L209.18431999999999,45.94892532348632L209.27884,47.09570205688476L209.4264,45.36661921183267L209.661,44.05299916585287L209.83780000000002,50.3703749593099L209.92212,51.75451082865396L210.03908,49.75396865844726L210.17168,48.03824885050457L210.2832,45.73960728963215L210.4056,43.82219706217447L210.6164,42.27903788248699L210.83332000000001,40.22372400919596L211.03052,38.58020624796549L211.1502,41.415782063802084L211.3474,39.949315490722654L211.52692,38.86154978434246L211.63368,41.64000223795574L211.7112,43.456936187744134L211.80096,46.007958984374994L211.94036,44.29259226481119L212.03215999999998,46.16766810099284L212.18788,44.2695192972819L212.23956,46.63419743855795L212.3266,48.02654713948567L212.43676000000002,53.82521347045899L212.56799999999998,51.43492736816407L212.65572,52.9537777709961L212.81484,50.92317103068034L212.93656,48.87053248087565L213.14803999999998,47.01557362874348L213.33640000000003,44.861209411621076L213.52816,43.065257059733085L213.69271999999998,41.318632965087886L213.80492,39.90918111165365L213.9518,41.60677571614582L214.12724,40.21022969563802L214.26664,38.789180246988934L214.39311999999998,37.5452544148763L214.50124,40.687261149088556L214.5944,47.647502237955734L214.7474,46.09384546915689L214.87592,43.715034739176446L215.01192,42.05888727823893L215.0772,44.47062123616536L215.21456,42.96236801147461L215.32744000000002,45.12947509765627L215.46616,43.454677327473945L215.59468,41.47758611043295L215.71232,40.12322962443034L215.86327999999997,38.497560933430975L215.95712,39.95593816121419L216.05776,38.13937088012693L216.21688,36.48923044840495L216.32023999999998,34.8977705891927L216.44196,37.3643962097168L216.58272,40.210994720458984L216.66704,42.311856994628926L216.80168,40.433327229817706L217.0118,39.18745035807291L217.23756,43.831390940348314L217.34364,45.344745839436854L217.49052,43.39872639973959L217.62652,41.5031623840332L217.73192,39.58669825236004L217.9434,38.117809855143236L218.161,36.902959493001305L218.28816,35.58264434814453L218.40308,34.36903432210286L218.56492,39.64609405517578L218.70908,38.018492431640624L218.87295999999998,36.60602121988933L219.13544,34.659381612141914L219.2762,33.155596313476565L219.45708000000002,31.925726114908855L219.62572,30.80154251098631L219.85352,30.216615397135428L219.91268,33.53174860636395L220.17244000000002,35.87554021199543L220.33563999999998,34.51569274902346L220.47912,33.00907821655275L220.67156,31.530484415690097L220.78307999999998,30.74012776692709L221.15300000000002,29.78917475382488L221.38352,32.12859802246092L221.48824,31.15832926432293L221.64192,33.25337010701497L221.76024,32.293087412516286L221.87584,30.688264516194664L221.98804,29.785996958414728L222.19747999999998,28.742412567138672L222.27499999999998,31.336933135986328L222.37292,33.80690856933592L222.43956,38.536862386067696L222.57828,37.162977396647136L222.67212,38.930076090494794L222.75576,40.702769877115884L223.15152,39.929614969889315L223.2814,45.696960550944L223.42012,43.934963531494134L223.53368,42.12499628702798L223.74788,40.108485921223945L223.89068,38.59426640828451L224.0532,37.24604370117186L224.31364,35.7686902364095L224.72708,35.74358474731446L225.39212,36.70332875569662L225.54988,35.46036259969074L225.68248,38.623491261800126L225.9368,37.23495763142904L225.9946,39.89434234619142L226.1714,38.41186004638672L226.27544,36.87770914713542L226.3856,35.17537048339844L226.47740000000002,38.15049316406248L226.67528000000001,36.98863321940104L226.74192,39.43616038004558L226.89288000000002,37.63114542643228L227.00168,35.933206787109356L227.09756,34.44094212849936L227.3478,33.04541010538736L227.47632,31.81961853027343L227.64972,31.0327112833659L227.73268,33.27461878458658L227.86936,32.30988627115886L228.03663999999998,31.222256368001297L228.17332000000002,30.35440134684245L228.30931999999999,32.77031804402668L228.44872,31.43936498006184L229.02196,31.020126851399738L229.18244,29.751964670817046L229.32184,33.40670552571615L229.5544,36.93222961425781L229.66184,35.89259709676108L229.82028000000003,34.644610748291L229.93928,33.30944778442381L230.03040000000001,35.477066396077475L230.13784,34.47693450927733L230.32552,38.26261230468748L230.53428000000002,37.117306772867835L230.66891999999999,36.1655706278483L230.79132,34.89147384643553L230.9518,33.47527257283528L231.07487999999998,32.714502919514985L231.19116,31.561705576578788L231.336,30.514956970214826L231.6284,30.24596700032552L231.76032,29.16060501098633L231.90788,27.919884134928395L232.11936,26.896321665445953L232.22884,26.07449940999348L232.43624,25.631341807047534L232.56408,24.275785725911447L232.7266,23.82279144287108L232.87688,22.58580515543619L232.99248,21.687978363037104L233.12712,20.97435958862303L233.2944,19.93531555175781L233.45759999999999,18.848907877604177L233.65956,18.14625295003256L233.84792000000002,17.4208645629883L234.02132,16.323456827799475L234.18044,15.706280975341798L234.29536000000002,15.477040608723968L234.4946,14.923153584798172L234.62992,14.66425379435222L234.73668,14.061690368652364L234.87608,13.950662180582697L235.02568,13.585627644856771" style="fill: none;" fill="none"></path></g></g></g></g></g></g><g transform="translate(58, 178)" clip-path="url(#clip_1)"><clipPath id="clip_1"><rect width="271" height="21"></rect></clipPath><g><g><line x1="0" y1="0" x2="0" y2="5" style="visibility: inherit;" fill="rgb(0, 0, 0)" stroke="rgb(204, 204, 204)" stroke-width="1px"></line><line x1="34" y1="0" x2="34" y2="5" style="visibility: inherit;" fill="rgb(0, 0, 0)" stroke="rgb(204, 204, 204)" stroke-width="1px"></line><line x1="68" y1="0" x2="68" y2="5" style="visibility: inherit;" fill="rgb(0, 0, 0)" stroke="rgb(204, 204, 204)" stroke-width="1px"></line><line x1="102" y1="0" x2="102" y2="5" style="visibility: inherit;" fill="rgb(0, 0, 0)" stroke="rgb(204, 204, 204)" stroke-width="1px"></line><line x1="136" y1="0" x2="136" y2="5" style="visibility: inherit;" fill="rgb(0, 0, 0)" stroke="rgb(204, 204, 204)" stroke-width="1px"></line><line x1="170" y1="0" x2="170" y2="5" style="visibility: inherit;" fill="rgb(0, 0, 0)" stroke="rgb(204, 204, 204)" stroke-width="1px"></line><line x1="204" y1="0" x2="204" y2="5" style="visibility: inherit;" fill="rgb(0, 0, 0)" stroke="rgb(204, 204, 204)" stroke-width="1px"></line><line x1="238" y1="0" x2="238" y2="5" style="visibility: inherit;" fill="rgb(0, 0, 0)" stroke="rgb(204, 204, 204)" stroke-width="1px"></line><line x1="272" y1="0" x2="272" y2="5" style="visibility: inherit;" fill="rgb(0, 0, 0)" stroke="rgb(204, 204, 204)" stroke-width="1px"></line></g><g transform="translate(0, 8)"><text x="0" y="0" dx="0em" dy="0.95em" style="text-anchor: middle; visibility: hidden; font-family: &quot;Helvetica Neue&quot;, sans-serif; font-size: 12px; font-weight: 200;" fill="rgb(50, 49, 63)" stroke="none" stroke-width="1px">-50k</text><text x="34" y="0" dx="0em" dy="0.95em" style="text-anchor: middle; visibility: inherit; font-family: &quot;Helvetica Neue&quot;, sans-serif; font-size: 12px; font-weight: 200;" fill="rgb(50, 49, 63)" stroke="none" stroke-width="1px">0</text><text x="68" y="0" dx="0em" dy="0.95em" style="text-anchor: middle; visibility: inherit; font-family: &quot;Helvetica Neue&quot;, sans-serif; font-size: 12px; font-weight: 200;" fill="rgb(50, 49, 63)" stroke="none" stroke-width="1px">50k</text><text x="102" y="0" dx="0em" dy="0.95em" style="text-anchor: middle; visibility: inherit; font-family: &quot;Helvetica Neue&quot;, sans-serif; font-size: 12px; font-weight: 200;" fill="rgb(50, 49, 63)" stroke="none" stroke-width="1px">100k</text><text x="136" y="0" dx="0em" dy="0.95em" style="text-anchor: middle; visibility: inherit; font-family: &quot;Helvetica Neue&quot;, sans-serif; font-size: 12px; font-weight: 200;" fill="rgb(50, 49, 63)" stroke="none" stroke-width="1px">150k</text><text x="170" y="0" dx="0em" dy="0.95em" style="text-anchor: middle; visibility: inherit; font-family: &quot;Helvetica Neue&quot;, sans-serif; font-size: 12px; font-weight: 200;" fill="rgb(50, 49, 63)" stroke="none" stroke-width="1px">200k</text><text x="204" y="0" dx="0em" dy="0.95em" style="text-anchor: middle; visibility: inherit; font-family: &quot;Helvetica Neue&quot;, sans-serif; font-size: 12px; font-weight: 200;" fill="rgb(50, 49, 63)" stroke="none" stroke-width="1px">250k</text><text x="238" y="0" dx="0em" dy="0.95em" style="text-anchor: middle; visibility: inherit; font-family: &quot;Helvetica Neue&quot;, sans-serif; font-size: 12px; font-weight: 200;" fill="rgb(50, 49, 63)" stroke="none" stroke-width="1px">300k</text><text x="272" y="0" dx="0em" dy="0.95em" style="text-anchor: middle; visibility: hidden; font-family: &quot;Helvetica Neue&quot;, sans-serif; font-size: 12px; font-weight: 200;" fill="rgb(50, 49, 63)" stroke="none" stroke-width="1px">350k</text></g><line x1="0" y1="0" x2="272" y2="0" fill="rgb(0, 0, 0)" stroke="rgb(204, 204, 204)" stroke-width="1px"></line></g></g></g></g></svg>