<svg viewBox="0 0 330.0000305175781 200.00001525878906" xmlns="http://www.w3.org/2000/svg"><g><g><g><g><g><line x1="58" y1="178" x2="53" y2="178" style="visibility: inherit;" fill="rgb(0, 0, 0)" stroke="rgb(204, 204, 204)" stroke-width="1px"></line><line x1="58" y1="164.30769230769232" x2="53" y2="164.30769230769232" style="visibility: inherit;" fill="rgb(0, 0, 0)" stroke="rgb(204, 204, 204)" stroke-width="1px"></line><line x1="58" y1="150.6153846153846" x2="53" y2="150.6153846153846" style="visibility: inherit;" fill="rgb(0, 0, 0)" stroke="rgb(204, 204, 204)" stroke-width="1px"></line><line x1="58" y1="136.9230769230769" x2="53" y2="136.9230769230769" style="visibility: inherit;" fill="rgb(0, 0, 0)" stroke="rgb(204, 204, 204)" stroke-width="1px"></line><line x1="58" y1="123.23076923076923" x2="53" y2="123.23076923076923" style="visibility: inherit;" fill="rgb(0, 0, 0)" stroke="rgb(204, 204, 204)" stroke-width="1px"></line><line x1="58" y1="109.53846153846153" x2="53" y2="109.53846153846153" style="visibility: inherit;" fill="rgb(0, 0, 0)" stroke="rgb(204, 204, 204)" stroke-width="1px"></line><line x1="58" y1="95.84615384615384" x2="53" y2="95.84615384615384" style="visibility: inherit;" fill="rgb(0, 0, 0)" stroke="rgb(204, 204, 204)" stroke-width="1px"></line><line x1="58" y1="82.15384615384616" x2="53" y2="82.15384615384616" style="visibility: inherit;" fill="rgb(0, 0, 0)" stroke="rgb(204, 204, 204)" stroke-width="1px"></line><line x1="58" y1="68.46153846153845" x2="53" y2="68.46153846153845" style="visibility: inherit;" fill="rgb(0, 0, 0)" stroke="rgb(204, 204, 204)" stroke-width="1px"></line><line x1="58" y1="54.769230769230774" x2="53" y2="54.769230769230774" style="visibility: inherit;" fill="rgb(0, 0, 0)" stroke="rgb(204, 204, 204)" stroke-width="1px"></line><line x1="58" y1="41.076923076923066" x2="53" y2="41.076923076923066" style="visibility: inherit;" fill="rgb(0, 0, 0)" stroke="rgb(204, 204, 204)" stroke-width="1px"></line><line x1="58" y1="27.384615384615387" x2="53" y2="27.384615384615387" style="visibility: inherit;" fill="rgb(0, 0, 0)" stroke="rgb(204, 204, 204)" stroke-width="1px"></line><line x1="58" y1="13.69230769230768" x2="53" y2="13.69230769230768" style="visibility: inherit;" fill="rgb(0, 0, 0)" stroke="rgb(204, 204, 204)" stroke-width="1px"></line><line x1="58" y1="0" x2="53" y2="0" style="visibility: inherit;" fill="rgb(0, 0, 0)" stroke="rgb(204, 204, 204)" stroke-width="1px"></line></g><g transform="translate(48, 0)"><text x="0" y="178" dx="0em" dy="0.3em" style="text-anchor: end; visibility: hidden; font-family: &quot;Helvetica Neue&quot;, sans-serif; font-size: 12px; font-weight: 200;" fill="rgb(50, 49, 63)" stroke="none" stroke-width="1px">-300</text><text x="0" y="164.30769230769232" dx="0em" dy="0.3em" style="text-anchor: end; visibility: inherit; font-family: &quot;Helvetica Neue&quot;, sans-serif; font-size: 12px; font-weight: 200;" fill="rgb(50, 49, 63)" stroke="none" stroke-width="1px">-250</text><text x="0" y="150.6153846153846" dx="0em" dy="0.3em" style="text-anchor: end; visibility: hidden; font-family: &quot;Helvetica Neue&quot;, sans-serif; font-size: 12px; font-weight: 200;" fill="rgb(50, 49, 63)" stroke="none" stroke-width="1px">-200</text><text x="0" y="136.9230769230769" dx="0em" dy="0.3em" style="text-anchor: end; visibility: inherit; font-family: &quot;Helvetica Neue&quot;, sans-serif; font-size: 12px; font-weight: 200;" fill="rgb(50, 49, 63)" stroke="none" stroke-width="1px">-150</text><text x="0" y="123.23076923076923" dx="0em" dy="0.3em" style="text-anchor: end; visibility: hidden; font-family: &quot;Helvetica Neue&quot;, sans-serif; font-size: 12px; font-weight: 200;" fill="rgb(50, 49, 63)" stroke="none" stroke-width="1px">-100</text><text x="0" y="109.53846153846153" dx="0em" dy="0.3em" style="text-anchor: end; visibility: inherit; font-family: &quot;Helvetica Neue&quot;, sans-serif; font-size: 12px; font-weight: 200;" fill="rgb(50, 49, 63)" stroke="none" stroke-width="1px">-50</text><text x="0" y="95.84615384615384" dx="0em" dy="0.3em" style="text-anchor: end; visibility: hidden; font-family: &quot;Helvetica Neue&quot;, sans-serif; font-size: 12px; font-weight: 200;" fill="rgb(50, 49, 63)" stroke="none" stroke-width="1px">0</text><text x="0" y="82.15384615384616" dx="0em" dy="0.3em" style="text-anchor: end; visibility: inherit; font-family: &quot;Helvetica Neue&quot;, sans-serif; font-size: 12px; font-weight: 200;" fill="rgb(50, 49, 63)" stroke="none" stroke-width="1px">50</text><text x="0" y="68.46153846153845" dx="0em" dy="0.3em" style="text-anchor: end; visibility: hidden; font-family: &quot;Helvetica Neue&quot;, sans-serif; font-size: 12px; font-weight: 200;" fill="rgb(50, 49, 63)" stroke="none" stroke-width="1px">100</text><text x="0" y="54.769230769230774" dx="0em" dy="0.3em" style="text-anchor: end; visibility: inherit; font-family: &quot;Helvetica Neue&quot;, sans-serif; font-size: 12px; font-weight: 200;" fill="rgb(50, 49, 63)" stroke="none" stroke-width="1px">150</text><text x="0" y="41.076923076923066" dx="0em" dy="0.3em" style="text-anchor: end; visibility: hidden; font-family: &quot;Helvetica Neue&quot;, sans-serif; font-size: 12px; font-weight: 200;" fill="rgb(50, 49, 63)" stroke="none" stroke-width="1px">200</text><text x="0" y="27.384615384615387" dx="0em" dy="0.3em" style="text-anchor: end; visibility: inherit; font-family: &quot;Helvetica Neue&quot;, sans-serif; font-size: 12px; font-weight: 200;" fill="rgb(50, 49, 63)" stroke="none" stroke-width="1px">250</text><text x="0" y="13.69230769230768" dx="0em" dy="0.3em" style="text-anchor: end; visibility: hidden; font-family: &quot;Helvetica Neue&quot;, sans-serif; font-size: 12px; font-weight: 200;" fill="rgb(50, 49, 63)" stroke="none" stroke-width="1px">300</text><text x="0" y="0" dx="0em" dy="0.3em" style="text-anchor: end; visibility: hidden; font-family: &quot;Helvetica Neue&quot;, sans-serif; font-size: 12px; font-weight: 200;" fill="rgb(50, 49, 63)" stroke="none" stroke-width="1px">350</text></g><line x1="58" y1="0" x2="58" y2="178" fill="rgb(0, 0, 0)" stroke="rgb(204, 204, 204)" stroke-width="1px"></line></g></g><g transform="translate(58, 0)" clip-path="url(#clip_0)"><clipPath id="clip_0"><rect width="271" height="177"></rect></clipPath><g><g><g><line x1="0" y1="0" x2="0" y2="178" fill="rgb(0, 0, 0)" stroke="rgb(60, 60, 60)" stroke-width="1px" opacity="0.25"></line><line x1="38.857142857142854" y1="0" x2="38.857142857142854" y2="178" fill="rgb(0, 0, 0)" stroke="rgb(60, 60, 60)" stroke-width="1px" opacity="0.25"></line><line x1="77.71428571428571" y1="0" x2="77.71428571428571" y2="178" fill="rgb(0, 0, 0)" stroke="rgb(60, 60, 60)" stroke-width="1px" opacity="0.25"></line><line x1="116.57142857142857" y1="0" x2="116.57142857142857" y2="178" fill="rgb(0, 0, 0)" stroke="rgb(60, 60, 60)" stroke-width="1px" opacity="0.25"></line><line x1="155.42857142857142" y1="0" x2="155.42857142857142" y2="178" fill="rgb(0, 0, 0)" stroke="rgb(60, 60, 60)" stroke-width="1px" opacity="0.25"></line><line x1="194.28571428571428" y1="0" x2="194.28571428571428" y2="178" fill="rgb(0, 0, 0)" stroke="rgb(60, 60, 60)" stroke-width="1px" opacity="0.25"></line><line x1="233.14285714285714" y1="0" x2="233.14285714285714" y2="178" fill="rgb(0, 0, 0)" stroke="rgb(60, 60, 60)" stroke-width="1px" opacity="0.25"></line><line x1="272" y1="0" x2="272" y2="178" fill="rgb(0, 0, 0)" stroke="rgb(60, 60, 60)" stroke-width="1px" opacity="0.25"></line></g><g><line x1="0" y1="178" x2="272" y2="178" fill="rgb(0, 0, 0)" stroke="rgb(60, 60, 60)" stroke-width="1px" opacity="0.25"></line><line x1="0" y1="164.30769230769232" x2="272" y2="164.30769230769232" fill="rgb(0, 0, 0)" stroke="rgb(60, 60, 60)" stroke-width="1px" opacity="0.25"></line><line x1="0" y1="150.6153846153846" x2="272" y2="150.6153846153846" fill="rgb(0, 0, 0)" stroke="rgb(60, 60, 60)" stroke-width="1px" opacity="0.25"></line><line x1="0" y1="136.9230769230769" x2="272" y2="136.9230769230769" fill="rgb(0, 0, 0)" stroke="rgb(60, 60, 60)" stroke-width="1px" opacity="0.25"></line><line x1="0" y1="123.23076923076923" x2="272" y2="123.23076923076923" fill="rgb(0, 0, 0)" stroke="rgb(60, 60, 60)" stroke-width="1px" opacity="0.25"></line><line x1="0" y1="109.53846153846153" x2="272" y2="109.53846153846153" fill="rgb(0, 0, 0)" stroke="rgb(60, 60, 60)" stroke-width="1px" opacity="0.25"></line><line x1="0" y1="95.84615384615384" x2="272" y2="95.84615384615384" fill="rgb(0, 0, 0)" stroke="rgb(60, 60, 60)" stroke-width="1px" opacity="0.25"></line><line x1="0" y1="82.15384615384616" x2="272" y2="82.15384615384616" fill="rgb(0, 0, 0)" stroke="rgb(60, 60, 60)" stroke-width="1px" opacity="0.25"></line><line x1="0" y1="68.46153846153845" x2="272" y2="68.46153846153845" fill="rgb(0, 0, 0)" stroke="rgb(60, 60, 60)" stroke-width="1px" opacity="0.25"></line><line x1="0" y1="54.769230769230774" x2="272" y2="54.769230769230774" fill="rgb(0, 0, 0)" stroke="rgb(60, 60, 60)" stroke-width="1px" opacity="0.25"></line><line x1="0" y1="41.076923076923066" x2="272" y2="41.076923076923066" fill="rgb(0, 0, 0)" stroke="rgb(60, 60, 60)" stroke-width="1px" opacity="0.25"></line><line x1="0" y1="27.384615384615387" x2="272" y2="27.384615384615387" fill="rgb(0, 0, 0)" stroke="rgb(60, 60, 60)" stroke-width="1px" opacity="0.25"></line><line x1="0" y1="13.69230769230768" x2="272" y2="13.69230769230768" fill="rgb(0, 0, 0)" stroke="rgb(60, 60, 60)" stroke-width="1px" opacity="0.25"></line><line x1="0" y1="0" x2="272" y2="0" fill="rgb(0, 0, 0)" stroke="rgb(60, 60, 60)" stroke-width="1px" opacity="0.25"></line></g></g></g><g><g><line x1="0" y1="95.84615384615384" x2="272" y2="95.84615384615384" fill="rgb(0, 0, 0)" stroke="rgb(153, 153, 153)" stroke-width="1.5px"></line></g></g><g><g><line x1="38.857142857142854" y1="0" x2="38.857142857142854" y2="178" fill="rgb(0, 0, 0)" stroke="rgb(153, 153, 153)" stroke-width="1.5px"></line></g></g><g><g><g><g><g><path stroke="rgb(255, 112, 67)" stroke-width="2px" d="M38.908434285714286,97.57125278179463L38.98614857142857,100.93049239672148L39.037440000000004,102.29812272124238L39.1408,104.17364522010493L39.20297142857143,105.45702430130889L39.25581714285714,107.05084168781084L39.344411428571426,108.7929686507202L39.43611428571428,110.69546604692773L39.53170285714286,112.32566962797549L39.58765714285714,113.60682451218727L39.665371428571426,114.44795611306051L39.720548571428566,115.35122065676055L39.783497142857144,116.24736486611043L39.862765714285715,119.06719289148172L39.907062857142854,120.35017382790326L39.96224,121.46661666401192L40.01508571428572,122.07968845134432L40.07648,122.32975312143517L40.13865142857143,122.5776945054493L40.224137142857145,123.00608415749059L40.315062857142856,122.89315845895561L40.380342857142864,122.98617769994885L40.44795428571428,123.65555143070515L40.54665142857143,125.01549044423477L40.60726857142857,126.20058984397065L40.701302857142856,128.4340124074492L40.76114285714286,129.99299189764213L40.82176,131.97481616856282L40.874605714285714,132.61003651346402L40.92822857142857,132.77988879508746L40.994285714285716,132.72456422298922L41.07899428571429,132.40684792106768L41.13184,132.058066311857L41.208,131.69069398707532L41.27561142857143,132.72669863661733L41.36809142857143,133.0534638405391L41.41316571428571,132.88110761891187L41.49398857142857,133.87227287956478L41.567817142857145,134.59408217886622L41.61910857142857,135.2637762500719L41.69837714285714,135.67808658871678L41.765211428571426,135.8538471644024L41.83826285714285,137.80974234367733L41.90043428571428,139.30482471085242L41.94473142857142,139.90806782837706L42.014674285714285,140.08340753522828L42.09860571428572,140.32237544437305L42.18875428571429,140.73279296119435L42.264137142857145,140.81239912782945L42.351954285714285,141.67151228695104L42.40790857142857,141.78993000212913L42.467748571428565,142.75706461561322L42.549348571428574,144.2655173713838L42.6224,145.45665663301781L42.67369142857143,145.85153321133137L42.74596571428572,145.76464911850553L42.82756571428571,145.18384047771377L42.908388571428574,145.32031403347324L42.99853714285714,146.64944839228957L43.06070857142857,147.38805977305407L43.11588571428572,147.8347533067411L43.22701714285714,147.59062162797494L43.289188571428575,146.90773409832943L43.38166857142857,146.01496163537988L43.45005714285714,145.2058364313481L43.50756571428572,144.55473653428965L43.56118857142857,143.85268523863266L43.60937142857143,143.86079823001856L43.66610285714285,143.36930148533685L43.766354285714286,144.0159384633175L43.83785142857143,143.8175114704184L43.906240000000004,144.12399153895177L43.97385142857143,144.92961932616552L44.07021714285714,144.78203500465364L44.13782857142857,144.25431266820684L44.23030857142857,144.91085435272697L44.31579428571428,145.49006677329487L44.400502857142854,144.80538777656704L44.47744,143.8430705377852L44.54349714285715,142.8726280611026L44.64064,143.01921721752092L44.69504,142.52767287107747L44.78208,142.69221578319338L44.87611428571429,142.43346900567323L44.93362285714286,142.06838030664912L44.98336,141.360236586183L45.09449142857143,142.252761956217L45.183862857142856,143.23303816456553L45.24525714285715,143.78669064964078L45.32064,145.25089601914144L45.41389714285714,146.64509541647286L45.47606857142857,146.8934274797515L45.56310857142857,146.7399407088545L45.66336,146.30626300929708L45.734857142857145,145.6009310327417L45.839771428571424,145.37360104377365L45.886399999999995,144.8808286513543L45.99364571428572,144.1503458611852L46.091565714285714,143.3787792001546L46.17005714285714,142.51119072847618L46.25476571428571,141.9371554113946L46.32781714285714,141.83510745582115L46.39542857142857,142.60140251435806L46.467702857142854,143.13403024809801L46.527542857142855,142.74324321271098L46.59904,142.19463348396673L46.648,141.72833397033799L46.743588571428575,142.9783921903458L46.935542857142856,144.1066152796522L47.34976,145.15289211325407L47.48886857142857,145.33605434096927L47.91629714285715,144.9896896208075L48.01965714285714,145.67298395728017L48.213165714285715,146.25665162737292L48.74162285714286,148.75733512080475L48.90016,150.76310369042156L49.20402285714286,150.65296909150655L49.490788571428574,151.26585931698327L49.78610285714286,152.6529533343306L50.027794285714286,154.19425466661397L50.30445714285714,157.3118321344035L50.54537142857143,158.4461997914594L50.91218285714285,158.22439668902828L50.99766857142857,158.1383052497451L51.435199999999995,158.29207177289393L51.66057142857142,158.2921024950765L52.12763428571429,158.54699140239447L52.306377142857144,157.6161732443814L52.55739428571428,156.24879489840166L53.334537142857144,155.0563874032838L54.11168,154.05366184401356L54.88882285714286,153.15415028774828L55.47712,152.57048990972828L55.90688,152.2360886423514L56.48662857142857,151.92879429869208L57.15808,151.04307970797126L57.59017142857143,150.40461127129717L58.367314285714286,149.37468065625788L59.14445714285714,147.6586583787307L59.89828571428572,146.9955900279896L60.66299428571429,147.25844130645723L61.44013714285714,147.11132439925896L62.21728,146.32781529760825L62.99442285714286,145.8552612000493L63.097005714285714,144.89543537838296L63.87414857142858,143.53573549836392L64.65129142857143,142.19893930833325L65.42843428571429,140.7073923935937L66.20557714285714,138.9242409687584L66.31826285714286,137.5594022284906L66.63922285714285,136.54292159175182L66.74258285714285,135.96404481577827L66.79931428571429,135.07912853084315L66.85138285714285,134.36852237842174L66.95707428571428,133.71052936755785L67.39382857142857,132.995742725703L68.17097142857142,131.89622846294583L68.65202285714287,131.27676111622904L69.19446857142856,130.9652177180397L69.97161142857144,130.44952419490136L70.74875428571428,129.67694722051652L71.52589714285715,129.04422615607794L72.30304,128.40799729783848L73.08018285714286,127.60727570179503L73.85732571428572,126.48612815394961L74.63446857142857,125.46253663358071L75.41161142857143,124.49806539961958L76.18875428571428,123.47616356181202L76.96589714285714,122.50292161965932L77.74304000000001,121.77101947006783L78.52018285714286,121.00455814951366L79.05408,121.24093403333801L79.83122285714285,120.92577461584114L80.60836571428572,120.64355639735925L81.38550857142857,120.1636790138212L82.16265142857142,119.58081305545318L82.93979428571429,118.98369761579895L83.71693714285715,118.33624353755329L84.49408000000001,117.91243718135108L85.27122285714286,117.3243172892794L86.01261714285714,117.53511982068302L86.78975999999999,117.23944135229564L87.56690285714286,116.53193453981788L88.34404571428571,116.3011510333859L88.92379428571428,116.50690073120944L89.59524571428571,117.11639989447988L90.31565714285715,117.97009093203047L91.0928,118.31605399581684L91.86994285714286,118.25589222884527L92.64708571428571,117.91502265138469L92.99913142857143,116.24122787117938L93.53458285714287,116.11425904279477L94.31172571428571,116.30807377378383L94.77490285714285,116.24019171393977L95.55204571428571,116.41046976469198L96.32918857142857,115.7134467476373L96.68589714285714,114.06813507457397L96.7573942857143,113.05139436449349L97.31926857142858,111.4774922066994L97.51744000000001,110.54176334347576L97.75135999999999,108.34657857493312L97.90678857142858,107.89604353825163L98.12438857142857,106.30076255295774L98.32333714285714,103.74534171287067L98.41193142857142,102.05831002697118L98.69170285714286,102.29897519418L99.02898285714286,101.54971178605427L99.31264,99.78489932082502L99.37481142857142,99.0360668431664L99.55355428571428,97.1418982141856L99.62738285714286,96.3121735656691L99.88772571428572,94.42846890028449L100.09444571428571,92.12313736809662L100.37421714285715,89.68291949736789L100.72237714285714,87.39271072505085L101.40004571428571,85.45267462932888L101.67360000000001,83.34856289339511L101.84457142857143,81.25901202239523L102.28676571428572,79.51358441258078L102.82765714285713,77.79378599535495L103.05380571428572,75.84286678388665L103.28073142857143,74.11186496779293L103.49677714285714,72.4892481780165L103.96073142857144,71.08882392183394L104.19620571428571,69.62419044309438L104.44722285714286,68.1262496174191L104.72932571428572,66.61374397680663L104.90806857142857,64.99401829301007L105.14665142857143,63.52941775540339L105.47460571428572,62.095918400387475L105.80256,60.76719487662072L106.12585142857142,59.61756268168158L106.38075428571429,58.5707855244236L106.66285714285713,57.93986443740056L107.0063542857143,56.81448097463985L107.25581714285714,55.81452491666492L107.4944,56.72787052391723L107.76950857142856,56.74871735641764L108.06326857142857,56.36146422544914L108.28630857142856,55.79415223569016L108.53577142857144,56.59733180490569L108.83963428571428,57.03149698333404L109.3168,56.81878746283694L109.44658285714286,57.36261132610963L109.58336,58.96120132654016L109.98592,61.63161466048241L110.47552,63.16433141084774L110.74130285714286,63.41307181262941L110.94569142857144,62.74061128544423L111.21380571428571,61.824667928117506L111.71428571428571,61.04084845819263L111.97540571428571,59.93175847395402L112.21865142857143,58.670187671511854L112.41837714285714,57.41894820236625L112.62509714285714,56.46683968088489L112.92041142857143,55.4992531286932L113.08827428571429,56.00284047021471L113.25691428571429,58.434668205656465L113.48772571428572,59.0424198762184L113.87008,59.12761375340531L114.25010285714285,58.884377221394146L114.45915428571429,59.6287879727103L114.70550857142857,59.46759925598195L115.28836571428572,58.98469174634759L115.50208,60.33295640523042L115.71734857142857,60.379503372885836L115.91552,59.934167768923814L116.69266285714286,59.90113294801294L117.10299428571429,59.33995444579094L117.30505142857143,58.27865316251663L117.46669714285714,59.439257712188464L117.90345142857143,59.933363897144815L118.07753142857143,59.340186964338585L118.32310857142856,58.60928172487718L118.41248,58.834469519451545L118.58112,58.478656471286314L118.72333714285713,57.66837323223092L118.95492571428572,56.69399697118952L119.06217142857142,57.02532843361516L119.35204571428571,56.65553551419552L119.56265142857143,56.07087545139592L120.01028571428571,55.36132992077745L120.18825142857143,54.33502308768281L120.33202285714286,53.21440199864334L120.47890285714286,53.525757804504536L120.70505142857142,53.48400067504045L120.78432000000001,54.305686594176905L120.95451428571428,54.118034008038606L121.25371428571428,55.73836344869338L121.52416000000001,58.733413210817574L122.30130285714286,60.425348923711084L122.45517714285714,61.962982538196016L122.76914285714285,62.37986159135211L122.86162285714286,62.92050930569769L122.94788571428572,63.756700584169806L123.0349257142857,64.9993836411419L123.21833142857143,66.14944639374464L123.39552,68.10409702607551L123.47323428571428,69.38012877604194L123.8416,69.22918137282169L124.01334857142858,68.12062278102474L124.23094857142857,66.84489210123202L124.40114285714286,65.35371291436002L124.57988571428571,63.74101000334859L124.73142857142857,61.90005486393824L124.80370285714285,61.501991151536004L124.96224,60.46602728557306L125.20704,59.23263748011789L125.30573714285714,59.08929705012001L125.51168,58.255589498100846L125.70596571428572,57.083452406793185L126.06889142857142,55.79558783905789L126.35021714285713,54.73108521920997L126.49088,54.96197388543223L126.80173714285714,54.508677476541806L126.95250285714286,53.574362660804894L127.05042285714286,53.72943586195768L127.16077714285714,54.64046813901956L127.31775999999999,54.67478259239613L127.66358857142858,55.54687836328023L127.91382857142857,55.39311372169411L128.04205714285715,55.77592720236743L128.15318857142856,56.40192335868008L128.40886857142857,56.21454022689673L128.95986285714287,55.84258662862604L129.14870857142856,55.03484051383427L129.30569142857144,54.024905979724835L129.4572342857143,53.948417370887796L129.6118857142857,53.42614154332594L129.77741714285713,52.63778735237777L130.08283428571428,52.094272490302856L130.24525714285713,51.353901065545884L130.4986057142857,50.54507037565567L130.76749714285714,49.66413413494868L130.90738285714286,48.57417273232136L131.01773714285713,48.70989706261997L131.31149714285715,52.53260932380998L131.46614857142856,54.28196912117902L131.63323428571428,54.70071259124707L131.88813714285715,54.41852528611844L132.36141714285714,55.26297685661697L132.52384,55.0525750262298L132.66605714285714,55.75846253376672L132.87044571428572,55.62500626875763L132.97924571428572,56.53023210785915L133.1424457142857,56.30883140338736L133.36626285714286,55.63559443998915L133.59008,54.564565103747086L133.98797714285715,53.605408157801136L134.16672,52.294898477913875L134.33147428571428,52.572984064963464L134.47058285714286,52.0424704081788L134.6602057142857,51.25750556972699L134.79309714285714,50.44627984048401L135.06742857142856,49.593520871538004L135.36818285714287,50.118654984611496L135.5104,49.77106586862146L135.6448457142857,50.34221845371496L135.89197714285714,49.983864519494574L135.99689142857144,50.562531320621034L136.20438857142858,51.86619057347238L136.3520457142857,53.759691056823826L136.5098057142857,54.1546968644128L137.27373714285713,54.065799357379646L137.41517714285715,53.56307503585208L137.70194285714285,52.75980924551966L137.80841142857145,53.02766741705338L138.06642285714287,52.742601764835385L138.21330285714285,53.33314517473657L138.38194285714286,53.040205482996996L138.61430857142858,52.22031486506863L138.75108571428572,52.77560301910128L138.85366857142859,53.63658997026485L139.0122057142857,53.54656878459281L139.08758857142857,55.233025217570585L139.17929142857142,56.99081729024789L139.25312,59.21431368206639L139.54610285714287,59.631733078530715L139.64635428571427,60.44060589654751L139.80256,60.28822105370374L140.06134857142857,59.48731065580998L140.19501714285715,58.46889005559537L140.35821714285714,58.71677761809279L140.53385142857144,58.09737537118622L140.67606857142857,57.174508324424465L140.77321142857144,57.42926939143955L140.89910857142857,57.040979021432236L140.98381714285716,57.51480332707209L141.09805714285716,58.520208844199985L141.1757714285714,59.68484429127059L141.31876571428572,59.6096332687227L141.45554285714286,58.861218118535305L141.5526857142857,58.96073047674017L141.62729142857143,59.544013218435936L141.75785142857143,59.20749715506997L142.11456,58.576673304310006L142.6274742857143,57.49228804959321L142.70441142857143,57.845029605597276L142.8015542857143,59.09844404227964L143.02381714285715,59.2437464696887L143.20255999999998,58.72025635161491L143.39451428571428,57.78288482434034L143.61755428571428,56.74298780566191L143.72713142857143,56.83464315665435L143.7861942857143,57.509599389335165L143.95405714285715,57.11802413179821L144.05197714285714,57.71168422066546L144.14601142857143,58.692133842194934L144.21673142857145,60.27548940237226L144.33952,60.27728368799788L144.4933942857143,59.5894827428468L144.54390857142857,60.22241177611673L144.68223999999998,62.935017011959104L144.8197942857143,64.93193316202822L145.00864,65.49960657127043L145.1951542857143,65.29183803944196L145.44461714285714,64.48541131412492L145.55885714285714,63.10055730717987L145.76402285714286,61.56406735080432L145.83474285714286,61.47617982792549L145.9077942857143,62.01249065854918L145.99328,62.85629722340474L146.11529142857142,65.34628683201458L146.61266285714285,66.39276259650443L147.11858285714285,66.46671381353667L147.24758857142857,65.54675547036359L147.72242285714285,64.37681646581191L147.89494857142856,62.85115010710133L148.376,63.30001024530044L148.52443428571428,62.87717198439482L148.67597714285716,61.857830515606835L148.81741714285715,60.55868024295786L148.98061714285714,59.01640050980717L149.18578285714287,57.45392752042757L149.34587428571427,55.87199433902937L149.47798857142857,56.15879752739599L149.82614857142855,56.10356239564433L149.92251428571427,56.66787359649116L150.05773714285715,56.351925555130265L150.2597942857143,55.540252613727205L150.5263542857143,54.53851368512335L150.74162285714286,53.59628248992017L150.92891428571428,53.6808503608391L151.19780571428572,53.372537391233024L151.25453714285715,53.84591193293694L151.39209142857143,53.52852477394485L151.5568457142857,52.88700013705321L151.65554285714285,53.19399817793506L151.81097142857143,54.342022141436516L151.95085714285713,54.41113591106382L152.10473142857143,53.9379793230806L152.19021714285714,54.38641824664285L152.54381714285716,54.110672499968885L152.68992,53.462069778526995L152.81037714285713,52.44008852802365L153.04973714285714,51.32796291624328L153.25801142857142,50.18020822600799L153.43753142857142,49.112514828182896L153.59373714285715,47.90286740802753L153.73284571428573,46.75271268865666L153.90614857142856,45.3751246083863L154.02272,44.341039364641176L154.20224,43.41418104817171L154.36932571428574,42.37585179672155L154.53097142857143,41.43686312881417L154.68873142857143,40.45275739426566L154.8496,39.59763227610267L155.2179657142857,38.83652285649694L155.38505142857144,37.95962771254602L155.5296,37.31567360018386L155.66793142857142,36.75689204697932L155.8085942857143,36.12663678693161L156.01531428571428,35.51552051491737L156.26011428571428,35.137566966402346L156.39999999999998,34.79372493795438L156.50724571428572,34.446936510248605L156.66112,33.89092139007346L156.808,33.47722769507172L156.87172571428573,35.141226152800215L156.93933714285714,37.3138225118424L157.10098285714287,38.38482838165473L157.26262857142856,38.67123133262865L157.44525714285714,38.543744414811556L157.5820342857143,38.11220497596025L157.66285714285715,38.92191143960258L157.8711314285714,40.50448381538416L158.09572571428572,41.413821129825436L158.39958857142855,43.372223304397664L158.80525714285713,44.092984861544835L159.00498285714286,45.47566321259998L159.16429714285712,45.826047811123686L159.3554742857143,45.670736409029985L159.48448,45.10217310293001L159.62358857142857,44.447696552563315L159.75337142857143,43.6981464959911L159.91579428571427,42.96843450967401L160.06578285714284,45.89649980210848L160.2041142857143,47.07332968144539L160.40850285714285,51.08827939690809L160.53206857142857,54.11067363649222L160.7154742857143,55.245633937003504L160.84992,55.24050047938961L161.01312000000001,54.595738895656595L161.14290285714287,53.55751787540477L161.27424,52.54692180171523L161.42034285714288,51.44347421985124L161.6208457142857,50.31451836980138L161.77238857142856,49.19048012118972L161.89828571428572,48.122344826019116L162.09801142857143,47.229600067186L162.3101714285714,46.34569190629716L162.45860571428574,45.45992365114009L162.62491428571428,44.50914914636314L162.77334857142858,43.50217695025776L162.91401142857143,42.62491131964384L163.1261714285714,43.228110497465394L163.3725257142857,44.8339156524456L163.50230857142856,45.431970241076726L163.62354285714287,45.46518614479626L163.78829714285715,46.398712854996774L163.96470857142856,47.7701582831603L164.51026285714286,48.11461711157287L164.59186285714287,49.23171554188363L164.71309714285715,49.266458975070066L164.9967542857143,48.76810048269829L165.14285714285714,47.96846540154809L165.30994285714286,47.16365417332068L166.00704,46.102745463727985L166.1243885714286,45.065374310237985L166.2425142857143,43.94854097361275L166.40649142857143,42.87420366695011L166.7072457142857,42.15985107637198L166.79506285714288,42.660496264062374L167.10436571428573,42.81573187802877L167.29554285714286,42.642379687965104L167.64758857142857,42.2792474679774L167.77426285714284,41.75041134887536L167.89394285714286,41.001867170653355L168.0159542857143,40.292952859483364L168.17293714285714,39.646285969746515L168.32681142857143,40.37544409536952L168.52731428571428,40.57318987218565L168.6469942857143,40.401502583918386L168.82806857142856,41.18162065717195L169.19021714285714,41.32643637417095L169.39693714285715,41.12849672158791L169.5663542857143,42.43717272120395L169.7458742857143,42.90465059411059L169.88576,42.834661375096175L169.99456,42.34889466910818L170.09170285714285,42.849372183075474L170.34272,42.83904120347509L170.54477714285716,42.66441987683265L170.67067428571428,42.169747253623626L171.08489142857144,42.04736516031721L171.44548571428572,41.79584731884657L171.93275428571428,41.261135813934146L172.13170285714287,40.55257859247706L172.34541714285714,39.838829400828786L172.448,40.73407547252853L172.61819428571428,40.99080157858921L172.73088,42.204767605807376L172.96324571428573,42.84863666775124L173.08448,42.74175255729136L173.29042285714286,42.534479644350796L174.0675657142857,42.73948509355159L174.21522285714286,42.49283282671388L174.37997714285717,42.157656990199L174.70870857142856,41.72470321229849L174.87035428571428,41.178841608869476L174.99158857142857,40.41396472719066L175.13380571428573,39.73325898204757L175.2674742857143,39.069253034210504L175.6614857142857,38.49745925366932L175.83634285714285,38.017899493006894L176.05161142857142,37.46652821368275L176.18061714285716,36.92561744278294L176.43940571428573,36.41829739250272L176.56141714285712,35.749559940910274L176.74637714285714,35.27761789438392L176.91501714285715,35.98210897280822L177.1792457142857,36.34513878738085L177.3455542857143,36.27078168363647L177.5577142857143,36.09616069813259L177.71702857142859,35.871707442767786L177.89888,35.97814512746956L178.12347428571428,35.87062490701055L178.35661714285715,35.79572988711499L178.52214857142857,35.59443614816445L178.6464914285714,35.19923042387464L178.77549714285715,34.70900321075507L179.02029714285715,34.49812219763692L179.14697142857145,34.255177217320124L179.37933714285714,34.02341544998342L179.56351999999998,33.90159411674489L179.68475428571426,33.72191960481257L179.89225142857143,33.475660796090665L180.05933714285712,33.350661952414015L180.39117714285712,33.29423384137027L180.5497142857143,33.0746048518474L180.74477714285715,32.80289414608441L180.96626285714285,32.64458113909296L181.10614857142855,32.40098533084159L181.24214857142857,32.061891998535L181.55145142857143,32.05091889052727L181.88795428571427,31.90818581824064L181.9827657142857,32.95034284986866L182.2703085714286,33.53091978368923L182.60992,33.77916267249719L182.75602285714285,35.067361222789174L182.9114514285714,35.55046039728529L183.05833142857142,35.62802394720532L183.20288,35.46402613214528L183.37074285714286,35.14059857817543L183.56036571428572,34.75812238683915L183.76553142857142,34.160187904008524L183.85723428571427,34.85340326974887L183.98934857142856,35.06988978711976L184.2978742857143,35.06091976845576L184.4525257142857,34.88514608057466L184.61106285714288,36.8395518347931L185.20557714285715,39.804717598021284L185.35634285714286,41.11699661199788L185.50477714285714,41.52700321810016L185.6920685714286,41.19536295099232L185.88013714285717,40.83127717188745L186.00214857142856,41.50700593654594L186.184,41.542780973285744L186.4482285714286,41.122568786795966L186.81737142857145,40.62780248376626L187.01476571428572,39.96071386706265L187.1973942857143,39.035078560622196L187.4173257142857,38.157142576577655L187.60617142857143,37.24949515006318L187.73517714285714,36.59916570857757L187.88128,35.97072322697949L188.09344000000002,38.183673400580716L188.3094857142857,39.14684904109964L188.45248,39.36731031483407L188.62345142857143,39.025532710835535L189.00658285714286,38.489505755557815L189.10528,39.81318949975898L189.60576,40.7758993706787L189.73010285714287,40.92608193385553L189.89019428571427,40.66773460953209L190.18317714285715,40.31416936773246L190.3386057142857,39.96625039993634L190.46605714285715,39.40342951430074L190.61216,38.6300518304254L190.81965714285715,37.93982970101965L191.23232000000002,37.54188416751683L191.51442285714285,37.05159256481301L191.76,36.37972084462697L192.19597714285712,36.046481733038206L192.44466285714284,35.593212188110186L192.67702857142856,35.24641745334088L192.8573257142857,34.77291175130139L193.0570514285714,34.36606561673639L193.24278857142858,33.83976301787837L193.38189714285713,33.487860308473415L193.48991999999998,34.0795940208713L193.62358857142857,34.127406408766774L193.73238857142857,35.046750711245636L193.88393142857143,35.319192666831526L194.00361142857145,35.28946125063979L194.17458285714287,35.00933414596679L194.35565714285715,34.57888772841545L194.57869714285715,33.91146190012017L194.74189714285714,33.2811671791346L194.84603428571427,33.79073893803968L195.00923428571429,33.81925789106896L195.23460571428572,33.52597741718344L195.39081142857142,33.18840914787617L195.52214857142857,32.8318731817846L195.66514285714285,32.50952630916089L195.85321142857146,32.030095705869115L196.01174857142857,31.446951259909724L196.22313142857143,30.963459292604483L196.47570285714286,30.771610431331908L196.5541942857143,31.98978957610683L197.03990857142858,32.75718091213045L197.41293714285715,33.394230103017435L197.63053714285715,33.58224345919632L198.05174857142856,33.60410760646727L198.17997714285713,33.31228810654861L198.3128685714286,32.99670651026332L198.4309942857143,32.53950512610993L198.57942857142856,31.913469827468845L198.64859428571427,32.656227047472896L198.81024,33.020852401861134L198.9446857142857,33.11442289319001L199.10322285714287,32.7645361164729L199.26331428571427,32.401379572527986L199.4032,31.938128919147772L199.49024,33.02575723430118L199.61302857142857,33.558108675015774L199.79721142857144,33.67806179455275L199.95885714285714,33.61144585077011L200.10573714285715,33.32506656019166L200.2642742857143,32.828357563068124L200.4546742857143,32.41425509147669L200.58601142857142,31.92914667342569L200.72278857142857,31.50239874248689L200.90230857142856,31.086444823166403L201.07483428571427,30.614084986598158L201.20073142857143,30.091289370865127L201.47817142857141,29.535103381383266L201.61650285714285,29.151814000734987L201.71209142857143,29.792918178085216L201.86752,30.010150771634784L201.99885714285716,30.01419082355781L202.15273142857143,29.797459374693574L202.25453714285715,30.646273420038483L202.4076342857143,30.726442049318763L202.53741714285715,30.608306710961443L202.70217142857143,30.34240372309131L202.79853714285713,31.30112332985837L202.97106285714287,31.819964581598924L203.1062857142857,31.843169272547073L203.28813714285712,31.75374959537922L203.49485714285714,31.895694543886208L203.64096,31.753477611247604L203.79250285714284,31.417749709026197L203.93705142857144,31.009437441852015L204.1018057142857,32.03544121736485L204.2432457142857,32.4974596485379L204.37613714285715,32.5547814719653L204.50281142857142,32.29291628402049L204.81833142857144,32.11964619844716L204.98463999999998,31.615311175348353L205.11364571428572,32.35989090067173L205.2822857142857,32.724382932830935L205.43849142857144,32.61084079109878L205.59702857142855,32.41040388872179L205.73147428571428,31.986336984675376L205.8371657142857,32.967010855919426L205.9444114285714,34.713327776322075L206.03145142857142,36.89567905762016L206.11538285714283,39.28912881377886L206.1853257142857,41.724692000556956L206.24982857142857,44.13185548353732L206.40914285714285,45.03870375361399L206.53659428571427,46.78718422257103L206.6088685714286,48.48610889216641L206.8272457142857,48.86852735828663L206.91817142857144,49.855599963649865L207.00365714285715,51.01841763293751L207.11323428571427,52.502556814738455L207.21970285714286,54.38329402348853L207.44740571428574,54.62550373906306L207.52045714285714,55.24280969911692L207.6028342857143,56.40777667734275L207.8352,56.64912758242728L207.9618742857143,57.446166321842185L208.08544,58.49434858742622L208.1546057142857,59.70359233492269L208.2937142857143,59.812233432053375L208.69860571428572,58.95661206944838L208.78797714285713,59.134174291699054L208.94495999999998,58.65210452243531L209.1104914285714,57.59106411445278L209.23172571428572,56.25830335749379L209.35840000000002,54.90147260569218L209.49828571428571,53.60281655620379L209.59076571428574,53.81890427041097L210.22413714285713,53.512368647733354L210.54898285714287,52.98666775189122L210.69741714285715,52.0005731796804L210.83186285714285,50.84991360056664L211.05645714285714,49.49777590973903L211.27872,48.01401077946721L211.46601142857142,46.72413421332337L211.54450285714287,46.90699170212264L211.7209142857143,46.59736590093104L211.85225142857144,45.80027869019804L211.97037714285716,44.81786295855994L212.1351314285714,43.58864913406023L212.34806857142857,42.3428574304061L212.4864,41.23848819622444L212.56644571428572,41.748399201538746L212.72576,41.70203630953503L212.96045714285714,41.37622535393015L213.1244342857143,41.00425476238814L213.3296,40.56096087275739L213.5285485714286,39.82000921596213L213.68553142857144,39.129777295652985L213.8331885714286,38.53373536777639L213.97618285714285,37.93328234897115L214.03446857142856,38.69947695896201L214.15958857142857,38.739484045719735L214.3375542857143,38.42555806565301L214.49842285714286,37.89347407466826L214.66784,37.33219141595481L214.8015085714286,36.621246753118555L214.99501714285714,35.800193739972116L215.15743999999998,35.17389646108063L215.33074285714287,34.500818514418796L215.50560000000002,34.10806666078466L215.65792,33.73412524662106L215.77449142857142,33.2945511508272L215.84754285714286,35.4149212704242L216.04105142857142,36.30548363665355L216.17549714285713,36.44694776537554L216.34569142857143,36.389949064123186L216.47780571428572,36.178919840366945L216.6386742857143,35.93408413829468L216.7715657142857,35.526779828679935L217.02880000000002,35.14760690336783L217.2192,34.711562883757466L217.56969142857142,34.16879287974365L217.74688,33.58209953343513L217.9248457142857,33.175466394490144L218.08882285714287,32.720836909260214L218.28544,32.36613769994315L218.44086857142858,31.770946442081254L218.60873142857145,31.455695851276403L218.75094857142858,31.189701765573545L218.91648,30.886919410455874L219.10765714285714,30.694758467187L219.3532342857143,30.328114789597066L219.49545142857144,30.045727629016653L219.6469942857143,29.592848517764565L220.40626285714285,29.85668717556257L220.87332571428573,30.726408714592367L221.02098285714285,31.045999300269813L221.18573714285714,30.774093871027276L221.50125714285716,30.545429110326694L221.97686857142858,30.345108916015732L222.1626057142857,29.92585386748803L222.31570285714287,29.50110952602165L222.57293714285714,29.406009296592572L222.74235428571427,29.26090354219832L222.97549714285714,29.18335885082982L223.18454857142856,28.8793558115496L223.37494857142858,28.54402200931554L223.54669714285714,28.332402069020816L223.75341714285713,28.13464528663485L223.91817142857144,27.799269330935232L224.37590857142857,27.71774782151789L224.60905142857143,27.520698253457624L224.73805714285714,27.51335581355292L224.89970285714284,27.459183691707466L225.02482285714285,27.391013895913915L225.16626285714284,27.246124356929357L225.3061485714286,27.142158820137183L225.47401142857143,27.140405399504175L225.60768,27.120929237298668L225.74912,26.973791316417675L225.86880000000002,26.589609638107788L225.9954742857143,26.183363739595478L226.2029714285714,25.7998784450794L226.29001142857143,26.84260861377237L226.57366857142858,27.483053862674467L226.6995657142857,27.799907456577046L226.84022857142858,27.913508495130117L226.9964342857143,27.922293442180234L227.12854857142855,27.80351798613148L227.31506285714283,27.608945057754596L227.5147885714286,27.346755631407575L227.7689142857143,27.048581023075315L227.9321142857143,26.925204315467795L228.36187428571426,29.08513879646216L228.49709714285714,30.29238028433764L228.86313142857142,30.83680805341507L229.0100114285714,30.93444950302262L229.1802057142857,30.75534112609239L229.36128,30.43638911450762L229.50893714285715,30.012927275044717L229.69700571428572,29.61477674137899L229.87264,29.256214114238475L230.01330285714286,28.97481292241929L230.17650285714288,28.65877822821119L230.4143085714286,28.431493536986807L230.8914742857143,28.263855388267814L230.96374857142857,29.20527683722753L231.1533714285714,29.647081122618943L231.31423999999998,29.751304149833402L231.5232914285714,29.671791973824355L231.75798857142857,29.459101720502503L231.88544,30.620718957481813L232.09993142857144,31.26254566986168L232.6454857142857,31.449850362403794L232.79314285714287,31.331907569455495L233.57028571428572,34.16976110943173L233.72338285714287,35.86813421598953L233.87026285714285,39.14454861102402L234.0249142857143,40.72717977508796L234.20598857142858,41.26368936294941L234.41115428571428,41.19366283651965L234.6637257142857,44.31624142186371L234.98546285714286,45.67106539097881L235.12768,45.95622427064498L235.42687999999998,45.58742615643746L235.64758857142857,44.91748185446946L235.78125714285713,44.13115287470089L236.3532342857143,43.810427170283305L236.58249142857144,43.12399394489833L236.8047542857143,42.498522643982284L237.02701714285715,41.632501338042005L237.18788571428573,40.86549603269299L237.37206857142857,40.340849414988384L237.58889142857143,39.719293246499035L237.74820571428572,38.91091173515903L238.01476571428572,38.20231478824087L238.16397714285714,37.53794070587719L238.35049142857142,36.84048732391693L238.49426285714284,35.91648299305811L238.6621257142857,35.19381811239134L238.91236571428573,34.65349372951414L239.06313142857144,34.05720125573734L239.8402742857143,34.98947114406741L239.98870857142856,35.40989091961353L240.19154285714285,35.34488472830054L240.3594057142857,35.23159790428801L240.5389257142857,35.02780921583005L240.68192,34.807495268830934L241.45906285714287,36.000035998437994L241.6214857142857,36.33680900891858L241.81033142857143,36.130498735429285L241.9424457142857,35.58569082404003L242.19424,35.16508764646724L242.3978514285714,34.57150280197291L242.5696,34.018733900234224L242.70171428571427,33.59369008473192L242.9309714285714,33.00565590781031L243.14857142857142,32.618512704091216L243.3280914285714,32.06286635517711L243.47497142857142,31.470364325576185L243.62340571428572,30.775642536151025L243.79826285714284,30.129683936654573L243.9334857142857,29.7189394936033L244.13243428571428,29.27323063952133L244.29874285714286,28.880625677132286L244.45417142857144,28.714928234554606L244.59172571428573,28.578108307920274L244.7797942857143,28.4353001935863L244.9220114285714,30.681220436914998L245.06733714285716,31.691091393008378L245.22898285714285,32.16559154704299L245.4240457142857,32.38678587398903L245.88022857142857,32.25487254978404L245.98825142857143,31.937957765898062L246.14134857142858,31.598884992321274L246.25170285714285,32.61534203806107L246.38770285714287,34.434227646214026L246.5501257142857,35.38156079521039L246.71021714285715,35.641138306302935L246.84854857142855,35.41000692083102L247.0101942857143,35.18881990144692L247.1322057142857,34.7240224283982L247.27753142857142,34.19209365160023L247.40576000000001,33.64732419351421L247.5565257142857,32.90018956944385L247.61170285714286,34.50686143172041L247.78112,35.40906697922452L247.8992457142857,36.73920896758278L247.97152,40.82626435666148L248.05389714285715,44.31532719873246L248.11062857142855,48.733886561126496L248.29325714285716,50.695023136345384L248.38029714285716,52.880984603712264L248.52873142857143,53.59548193184877L248.62976,55.139966348862856L248.81238857142856,55.259796985549684L248.94994285714287,54.5904588140762L249.13101714285713,53.60009336612001L249.21650285714287,53.6355648087345L249.39058285714285,52.8280669313645L249.6058514285714,51.82277747101821L249.78692571428573,50.63888247194387L249.92758857142857,49.32033256309421L250.05270857142858,47.97900150224956L250.19492571428572,46.64249438842907L250.31382857142856,45.38689369961392L250.46925714285715,44.257337466763545L250.62390857142856,43.134060514162684L250.76301714285714,42.211123996298085L250.8858057142857,41.147099653187496L251.01558857142857,40.2350762357226L251.17101714285712,39.448007786956396L251.3373257142857,38.55543526862817L251.48032,37.80350749906751L251.64662857142855,36.9155541876917L251.86578285714285,36.038234800024895L252.04141714285714,35.12515080339233L252.19373714285715,34.22826523038276L252.34838857142856,33.42046963627652L252.42610285714287,34.21880597046783L252.6133942857143,34.198596795922526L252.84032000000002,34.02658785895375L252.96854857142858,33.8452149975237L253.0812342857143,34.69366443646493L253.22422857142857,34.89967312101359L253.34624,34.67369660097356L253.5381942857143,34.27256649949638L253.83350857142858,33.915512180346866L254.41791999999998,33.62133536559995L254.60210285714288,33.102712126811895L254.72566857142857,32.49878153540206L254.87021714285714,31.96738201469074" style="fill: none;" fill="none"></path></g></g></g></g><g opacity="0.2"><g><g><g><path stroke="rgb(255, 112, 67)" stroke-width="2px" d="M38.908434285714286,97.57125278179463L38.98614857142857,102.94603616567758L39.037440000000004,103.61104783278245L39.1408,106.37925967876728L39.20297142857143,107.13260402972881L39.25581714285714,109.25566490760217L39.344411428571426,111.28423808171199L39.43611428571428,113.46932551457333L39.53170285714286,114.72990325927734L39.58765714285714,115.50919020432693L39.665371428571426,115.70202451265776L39.720548571428566,116.70120194655198L39.783497142857144,117.58865511380708L39.862765714285715,123.29141059288612L39.907062857142854,122.27313713660607L39.96224,123.1404935161884L40.01508571428572,122.99903670090896L40.07648,122.70478663517878L40.13865142857143,122.94956881009617L40.224137142857145,123.64862947904146L40.315062857142856,122.72377610426682L40.380342857142864,123.12570350060096L40.44795428571428,124.65959881122296L40.54665142857143,127.05538285475511L40.60726857142857,127.97823052039513L40.701302857142856,131.78413672814003L40.76114285714286,132.3314571439303L40.82176,134.9475495323768L40.874605714285714,133.5628664456881L40.92822857142857,133.03466712364784L40.994285714285716,132.6415773831881L41.07899428571429,131.93027353140025L41.13184,131.53489393967848L41.208,131.13963552621695L41.27561142857143,134.28070556640625L41.36809142857143,133.5436116379958L41.41316571428571,132.62257328913762L41.49398857142857,135.35902076134315L41.567817142857145,135.67679612379808L41.61910857142857,136.26831735464242L41.69837714285714,136.29955209585336L41.765211428571426,136.11748802771933L41.83826285714285,140.74358511117788L41.90043428571428,141.54744826096754L41.94473142857142,140.81293250450722L42.014674285714285,140.34641709547776L42.09860571428572,140.6808273080679L42.18875428571429,141.34841923640323L42.264137142857145,140.93180837777945L42.351954285714285,142.96018202561598L42.40790857142857,141.96755657489484L42.467748571428565,144.20776653583232L42.549348571428574,146.52819650503307L42.6224,147.24336552546575L42.67369142857143,146.4438480788011L42.74596571428572,145.6343229792668L42.82756571428571,144.31262751652645L42.908388571428574,145.5250243671124L42.99853714285714,148.64314993051383L43.06070857142857,148.49597684420073L43.11588571428572,148.50479360727164L43.22701714285714,147.22442410982572L43.289188571428575,145.88340280386117L43.38166857142857,144.67580294095552L43.45005714285714,143.99214862530047L43.50756571428572,143.57808668870192L43.56118857142857,142.79960829514724L43.60937142857143,143.87296771709737L43.66610285714285,142.6320563683143L43.766354285714286,144.98589393028846L43.83785142857143,143.51987098106972L43.906240000000004,144.5837116417518L43.97385142857143,146.13806100698616L44.07021714285714,144.5606585223858L44.13782857142857,143.46272916353666L44.23030857142857,145.89566687950722L44.31579428571428,146.35888540414663L44.400502857142854,143.77836928147536L44.47744,142.3995946796124L44.54349714285715,141.41696434607871L44.64064,143.23910095214842L44.69504,141.79035635141224L44.78208,142.9390301513672L44.87611428571429,142.04534883939303L44.93362285714286,141.52074725811298L44.98336,140.29802100548378L45.09449142857143,143.59155001126803L45.183862857142856,144.70345247708835L45.24525714285715,144.61716937725362L45.32064,147.4472040733924L45.41389714285714,148.73639451246996L45.47606857142857,147.26592557466947L45.56310857142857,146.509710552509L45.66336,145.65574645996094L45.734857142857145,144.54293306790865L45.839771428571424,145.0326060603215L45.886399999999995,144.14167006272535L45.99364571428572,143.0546216759315L46.091565714285714,142.22142920860878L46.17005714285714,141.20980802095852L46.25476571428571,141.07610243577224L46.32781714285714,141.68203552246092L46.39542857142857,143.75084510216345L46.467702857142854,143.93297184870795L46.527542857142855,142.1570626596304L46.59904,141.37171889085036L46.648,141.02888469989483L46.743588571428575,144.85347952035758L46.935542857142856,145.79894991361178L47.34976,146.72230736365685L47.48886857142857,145.61079768254206L47.91629714285715,144.4701425405649L48.01965714285714,146.69792546198917L48.213165714285715,147.13215313251203L48.74162285714286,152.5083603609525L48.90016,153.77175654484677L49.20402285714286,150.487767193134L49.490788571428574,152.1851946551983L49.78610285714286,154.73359436035156L50.027794285714286,156.50620666503906L50.30445714285714,161.98819833608775L50.54537142857143,160.14775127704326L50.91218285714285,157.89169203538162L50.99766857142857,158.0091680908203L51.435199999999995,158.5227215576172L51.66057142857142,158.29214857835035L52.12763428571429,158.9293247633714L52.306377142857144,156.21994600736178L52.55739428571428,154.19772737943208L53.334537142857144,153.26777616060696L54.11168,152.54957350510819L54.88882285714286,151.80488295335036L55.47712,151.6949993426983L55.90688,151.73448674128605L56.48662857142857,151.4678527832031L57.15808,149.71450782189004L57.59017142857143,149.44690861628607L58.367314285714286,147.82978473369892L59.14445714285714,145.0846249624399L59.89828571428572,146.000987501878L60.66299428571429,147.65271822415866L61.44013714285714,146.89064903846153L62.21728,145.1525516451322L62.99442285714286,145.14643005371093L63.097005714285714,143.45569664588342L63.87414857142858,141.49618567833534L64.65129142857143,140.19374502328725L65.42843428571429,138.47007202148438L66.20557714285714,136.2495138315054L66.31826285714286,135.51214411808894L66.63922285714285,135.01820063664363L66.74258285714285,135.09572965181792L66.79931428571429,133.7517541034405L66.85138285714285,133.30261314978966L66.95707428571428,132.72353985126202L67.39382857142857,131.92356276292068L68.17097142857142,130.2469570688101L68.65202285714287,130.34756009615384L69.19446857142856,130.49790262075572L69.97161142857144,129.67598391019382L70.74875428571428,128.5180817589393L71.52589714285715,128.09514455942008L72.30304,127.45365401047926L73.08018285714286,126.40619330772986L73.85732571428572,124.80440683218148L74.63446857142857,123.92714935302735L75.41161142857143,123.05135854867788L76.18875428571428,121.94331080510065L76.96589714285714,121.04305870643029L77.74304000000001,120.67316624568059L78.52018285714286,119.85486616868239L79.05408,121.59549785907453L79.83122285714285,120.45303548959586L80.60836571428572,120.22022906963642L81.38550857142857,119.44386293851412L82.16265142857142,118.70651411790115L82.93979428571429,118.08802445631761L83.71693714285715,117.3650624201848L84.49408000000001,117.27672764704778L85.27122285714286,116.44213745117187L86.01261714285714,117.85132361778847L86.78975999999999,116.79592364971454L87.56690285714286,115.47067432110126L88.34404571428571,115.95497577373797L88.92379428571428,116.81552527794472L89.59524571428571,118.03064863938552L90.31565714285715,119.25062748835637L91.0928,118.8349985914964L91.86994285714286,118.16564957838793L92.64708571428571,117.4037182851938L92.99913142857143,113.7305357008714L93.53458285714287,115.92380580021785L94.31172571428571,116.59879587026742L94.77490285714285,116.13836862417368L95.55204571428571,116.66588684082032L96.32918857142857,114.66791222205529L96.68589714285714,111.60016756497896L96.7573942857143,111.52628329937275L97.31926857142858,109.11663897000827L97.51744000000001,109.13817004864032L97.75135999999999,105.05380142211915L97.90678857142858,107.22024098322942L98.12438857142857,103.9078410750169L98.32333714285714,99.91221045274001L98.41193142857142,99.527762498122L98.69170285714286,102.65997294499324L99.02898285714286,100.42581667386568L99.31264,97.13768062298115L99.37481142857142,97.91281812667846L99.55355428571428,94.3006452707144L99.62738285714286,95.06758659289434L99.88772571428572,91.6029119022076L100.09444571428571,88.66514006981483L100.37421714285715,86.02259269127478L100.72237714285714,83.95739756657528L101.40004571428571,82.54262048574594L101.67360000000001,80.19239528949444L101.84457142857143,78.12468571589544L102.28676571428572,76.89544299785908L102.82765714285713,75.21408836951623L103.05380571428572,72.9164879666842L103.28073142857143,71.51536224365235L103.49677714285714,70.05532299335187L103.96073142857144,68.9881875375601L104.19620571428571,67.42724022498498L104.44722285714286,65.87933837890625L104.72932571428572,64.34498551588791L104.90806857142857,62.56442976731519L105.14665142857143,61.33251694899339L105.47460571428572,59.94566936786359L105.80256,58.77410959097055L106.12585142857142,57.89311438927284L106.38075428571429,57.00061978853665L106.66285714285713,56.99348280686597L107.0063542857143,55.1264057804988L107.25581714285714,54.314590829702524L107.4944,58.09788893479568L107.76950857142856,56.77998760516827L108.06326857142857,55.7805845289964L108.28630857142856,54.94318425105169L108.53577142857144,57.80210115872897L108.83963428571428,57.68274475097657L109.3168,56.499723182091344L109.44658285714286,58.17834712101862L109.58336,61.359086327186006L109.98592,65.63723466139572L110.47552,65.46340653639572L110.74130285714286,63.78618241530198L110.94569142857144,61.73192049466647L111.21380571428571,60.45075289212741L111.71428571428571,59.865119253305295L111.97540571428571,58.26812349759615L112.21865142857143,56.77783146784854L112.41837714285714,55.54208899864783L112.62509714285714,55.03867689866287L112.92041142857143,54.04787330040564L113.08827428571429,56.75822148249701L113.25691428571429,62.08240980881912L113.48772571428572,59.954047382061304L113.87008,59.2554045691857L114.25010285714285,58.51952242337741L114.45915428571429,60.74540409968451L114.70550857142857,59.22581618088941L115.28836571428572,58.260330481896034L115.50208,62.355353393554694L115.71734857142857,60.44932382436899L115.91552,59.266164362980774L116.69266285714286,59.85158071664664L117.10299428571429,58.49818669245792L117.30505142857143,56.68670123760516L117.46669714285714,61.180164536696225L117.90345142857143,60.67452317457932L118.07753142857143,58.450421565129204L118.32310857142856,57.512923865685096L118.41248,59.17225121131311L118.58112,57.94493689903845L118.72333714285713,56.45294837364783L118.95492571428572,55.232432579627414L119.06217142857142,57.52232562725361L119.35204571428571,56.10084613506611L119.56265142857143,55.19388535719651L120.01028571428571,54.29701162484976L120.18825142857143,52.795562838040865L120.33202285714286,51.53347036508414L120.47890285714286,53.99279151329627L120.70505142857142,53.42136498084436L120.78432000000001,55.53821547288162L120.95451428571428,53.83655512883112L121.25371428571428,58.168857609675484L121.52416000000001,63.225987854003904L122.30130285714286,62.963252493051385L122.45517714285714,64.26943295992338L122.76914285714285,63.00518017108624L122.86162285714286,63.73148087721604L122.94788571428572,65.01098750187799L123.0349257142857,66.86340822660006L123.21833142857143,67.87454052264874L123.39552,71.03607297457181L123.47323428571428,71.29417640099159L123.8416,69.00276026799128L124.01334857142858,66.45778489332932L124.23094857142857,64.93129608154297L124.40114285714286,63.11694413405198L124.57988571428571,61.32195563683143L124.73142857142857,59.13862215482271L124.80370285714285,60.90489558293268L124.96224,58.91208148662861L125.20704,57.382552771935096L125.30573714285714,58.8742864051232L125.51168,57.00502817007211L125.70596571428572,55.32524676983172L126.06889142857142,53.863790987454934L126.35021714285713,53.13433128943811L126.49088,55.30830688476563L126.80173714285714,53.82873286320614L126.95250285714286,52.17289043719953L127.05042285714286,53.962045663686894L127.16077714285714,56.00701655461239L127.31775999999999,54.726254272460935L127.66358857142858,56.85502201960638L127.91382857142857,55.16246675931491L128.04205714285715,56.35014742337741L128.15318857142856,57.340917593149044L128.40886857142857,55.93346552922175L128.95986285714287,55.28465623121994L129.14870857142856,53.82322134164663L129.30569142857144,52.51000417856069L129.4572342857143,53.8336844576322L129.6118857142857,52.642727801983185L129.77741714285713,51.45525606595554L130.08283428571428,51.2790001971905L130.24525714285713,50.243343928410454L130.4986057142857,49.33182434082033L130.76749714285714,48.34272977388824L130.90738285714286,46.939230628380415L131.01773714285713,48.913483558067924L131.31149714285715,58.266677715594966L131.46614857142856,56.906008817232575L131.63323428571428,55.32882779634916L131.88813714285715,53.995244328425485L132.36141714285714,56.529654212364775L132.52384,54.73697228064904L132.66605714285714,56.81729379507212L132.87044571428572,55.42482187124399L132.97924571428572,57.88807086651141L133.1424457142857,55.97673034667969L133.36626285714286,54.62573899489182L133.59008,52.95802109938401L133.98797714285715,52.16667273888221L134.16672,50.32913395808292L134.33147428571428,52.99011244553785L134.47058285714286,51.2466999230018L134.6602057142857,50.08005831204929L134.79309714285714,49.22944124661959L135.06742857142856,48.31438241811901L135.36818285714287,50.90635615422177L135.5104,49.24968219463642L135.6448457142857,51.19894733135517L135.89197714285714,49.44633361816406L135.99689142857144,51.4305315223107L136.20438857142858,53.82167945274939L136.3520457142857,56.59994178185096L136.5098057142857,54.74720557579627L137.27373714285713,53.93245309682993L137.41517714285715,52.808988553560695L137.70194285714285,51.55491056002103L137.80841142857145,53.42945467435396L138.06642285714287,52.315003286508414L138.21330285714285,54.21896028958834L138.38194285714286,52.60079594538763L138.61430857142858,50.99047893817608L138.75108571428572,53.60853525015024L138.85366857142859,54.92807039701022L139.0122057142857,53.41153700608474L139.08758857142857,57.76270986703726L139.17929142857142,59.627505399263825L139.25312,62.54955826979416L139.54610285714287,60.25786217322717L139.64635428571427,61.653915123572716L139.80256,60.0596437894381L140.06134857142857,58.28594505896936L140.19501714285715,56.94125915527344L140.35821714285714,59.08860896183893L140.53385142857144,57.16827200082632L140.67606857142857,55.79020775428185L140.77321142857144,57.811410991962134L140.89910857142857,56.458543466421276L140.98381714285716,58.22553978553185L141.09805714285716,60.028317119891824L141.1757714285714,61.4317974618765L141.31876571428572,59.49681673490085L141.45554285714286,57.738595393254215L141.5526857142857,59.109999014047474L141.62729142857143,60.41893733097956L141.75785142857143,58.70272306002103L142.11456,57.63043752817008L142.6274742857143,55.86571016751803L142.70441142857143,58.37414193960336L142.8015542857143,60.97856569730318L143.02381714285715,59.46170011080228L143.20255999999998,57.935021174504215L143.39451428571428,56.3768275334285L143.61755428571428,55.18314227764422L143.72713142857143,56.97212618314303L143.7861942857143,58.522033738356356L143.95405714285715,56.530661245492794L144.05197714285714,58.60217435396635L144.14601142857143,60.162808274489194L144.21673142857145,62.650522742638216L144.33952,60.279975116436304L144.4933942857143,58.5577813251202L144.54390857142857,61.17180532602164L144.68223999999998,67.00392486572265L144.8197942857143,67.9273073871319L145.00864,66.3511166851337L145.1951542857143,64.98018524169922L145.44461714285714,63.275771226149345L145.55885714285714,61.02327629676232L145.76402285714286,59.259332416240994L145.83474285714286,61.34434854360727L145.9077942857143,62.816956904484684L145.99328,64.1220070706881L146.11529142857142,69.08127124492938L146.61266285714285,67.9624762432392L147.11858285714285,66.57764063908505L147.24758857142857,64.16681795560397L147.72242285714285,62.62190795898438L147.89494857142856,60.562650569035455L148.376,63.97330045259916L148.52443428571428,62.242914593036346L148.67597714285716,60.32881831242487L148.81741714285715,58.609954833984375L148.98061714285714,56.70298091008112L149.18578285714287,55.11021803635818L149.34587428571427,53.4990945669321L149.47798857142857,56.58900230994591L149.82614857142855,56.020709698016816L149.92251428571427,57.514340397761416L150.05773714285715,55.878003493088954L150.2597942857143,54.322743201622586L150.5263542857143,53.035905292217535L150.74162285714286,52.18293569711538L150.92891428571428,53.807702167217556L151.19780571428572,52.91006793682392L151.25453714285715,54.55597374549279L151.39209142857143,53.05244403545673L151.5568457142857,51.92471318171573L151.65554285714285,53.65449523925781L151.81097142857143,56.06405808668872L151.95085714285713,54.51480656550481L152.10473142857143,53.22824444110577L152.19021714285714,55.05907663198617L152.54381714285716,53.69705387995792L152.68992,52.48916569636417L152.81037714285713,50.90711665226864L153.04973714285714,49.659774498572716L153.25801142857142,48.45857619065504L153.43753142857142,47.510974731445316L153.59373714285715,46.08839627779449L153.73284571428573,45.02748060960036L153.90614857142856,43.308742487980766L154.02272,42.78991149902342L154.20224,42.02389357346755L154.36932571428574,40.81835791954629L154.53097142857143,40.028380126953124L154.68873142857143,38.9765987924429L154.8496,38.314944598858176L155.2179657142857,37.69485872708833L155.38505142857144,36.644284996619575L155.5296,36.34974243164061L155.66793142857142,35.91871971717248L155.8085942857143,35.18125389685997L156.01531428571428,34.59884610689605L156.26011428571428,34.5706366436298L156.39999999999998,34.27796189528246L156.50724571428572,33.9267538686899L156.66112,33.056898709810696L156.808,32.85668715256912L156.87172571428573,37.637223839393016L156.93933714285714,40.57271705040566L157.10098285714287,39.99133718637319L157.26262857142856,39.100835759089534L157.44525714285714,38.35251403808596L157.5820342857143,37.46489581768327L157.66285714285715,40.1364711350661L157.8711314285714,42.878342379056505L158.09572571428572,42.77782710148739L158.39958857142855,46.30982656625599L158.80525714285713,45.17412719726562L159.00498285714286,47.54968073918269L159.16429714285712,46.35162470890924L159.3554742857143,45.43776930588942L159.48448,44.24932814378005L159.62358857142857,43.46598172701323L159.75337142857143,42.5738214111328L159.91579428571427,41.87386653019831L160.06578285714284,50.288597740760224L160.2041142857143,48.83857450045073L160.40850285714285,57.110703970102165L160.53206857142857,58.64426499586838L160.7154742857143,56.94807438777042L160.84992,55.23280029296875L161.01312000000001,53.6285965200571L161.14290285714287,52.000186345027046L161.27424,51.03102769118088L161.42034285714288,49.78830284705529L161.6208457142857,48.62108459472657L161.77238857142856,47.50442274827225L161.89828571428572,46.52014188326322L162.09801142857143,45.89048292893631L162.3101714285714,45.019829664963936L162.45860571428574,44.13127126840445L162.62491428571428,43.08298738919771L162.77334857142858,41.99171865609975L162.91401142857143,41.30901287372296L163.1261714285714,44.13290926419771L163.3725257142857,47.242623384915845L163.50230857142856,46.329052124023434L163.62354285714287,45.51501000037561L163.78829714285715,47.79900292029748L163.96470857142856,49.82732642540566L164.51026285714286,48.63130535419171L164.59186285714287,50.90736318734976L164.71309714285715,49.31857412484976L164.9967542857143,48.02056274414062L165.14285714285714,46.7690127798227L165.30994285714286,45.956437330979554L166.00704,44.51138239933894L166.1243885714286,43.509317580003L166.2425142857143,42.27329096867487L166.40649142857143,41.26269770695612L166.7072457142857,41.08832219050481L166.79506285714288,43.41146404559794L167.10436571428573,43.04858529897837L167.29554285714286,42.382351402869574L167.64758857142857,41.73454913799577L167.77426285714284,40.95715717022236L167.89394285714286,39.87905090332032L168.0159542857143,39.22958139272836L168.17293714285714,38.67628563514123L168.32681142857143,41.46918128380409L168.52731428571428,40.86980853740985L168.6469942857143,40.14397165151743L168.82806857142856,42.35179776705229L169.19021714285714,41.54365994966946L169.39693714285715,40.83158724271334L169.5663542857143,44.400186720628L169.7458742857143,43.60586740347057L169.88576,42.72967754657452L169.99456,41.62024461012621L170.09170285714285,43.600088454026434L170.34272,42.82354473407452L170.54477714285716,42.40248788686898L170.67067428571428,41.4277383188101L171.08489142857144,41.86379202035758L171.44548571428572,41.418570556640645L171.93275428571428,40.45906855656551L172.13170285714287,39.48974276029145L172.34541714285714,38.76820561335637L172.448,42.076944580078106L172.61819428571428,41.375890737680294L172.73088,44.025716646634635L172.96324571428573,43.814440260667055L173.08448,42.58142639160158L173.29042285714286,42.2235702749399L174.0675657142857,43.046993267352775L174.21522285714286,42.12285442645734L174.37997714285717,41.65489323542667L174.70870857142856,41.07527254544772L174.87035428571428,40.360049203725964L174.99158857142857,39.26664940467248L175.13380571428573,38.71220036433294L175.2674742857143,38.073244112454944L175.6614857142857,37.639768582857556L175.83634285714285,37.29855985201323L176.05161142857142,36.639471294696506L176.18061714285716,36.1142512864333L176.43940571428573,35.65731731708232L176.56141714285712,34.74645376352163L176.74637714285714,34.56970482459434L176.91501714285715,37.03884559044471L177.1792457142857,36.889683509239774L177.3455542857143,36.15924602801982L177.5577142857143,35.83422921987682L177.71702857142859,35.53502755972053L177.89888,36.137801654522235L178.12347428571428,35.70934457632211L178.35661714285715,35.68338735727164L178.52214857142857,35.29249553973858L178.6464914285714,34.60642183743991L178.77549714285715,33.97366239107572L179.02029714285715,34.18180067795973L179.14697142857145,33.890759746844964L179.37933714285714,33.67577279897836L179.56351999999998,33.71886211688701L179.68475428571426,33.45240783691406L179.89225142857143,33.10627258300781L180.05933714285712,33.163163686899026L180.39117714285712,33.20959167480467L180.5497142857143,32.7451613675631L180.74477714285715,32.39532808743991L180.96626285714285,32.407111628605776L181.10614857142855,32.03559161846454L181.24214857142857,31.553252000075133L181.55145142857143,32.03445922851563L181.88795428571427,31.694086209810678L181.9827657142857,34.51357839731068L182.2703085714286,34.40178518442008L182.60992,34.15152700570914L182.75602285714285,36.99965904822716L182.9114514285714,36.275109159029455L183.05833142857142,35.74436927208535L183.20288,35.2180294095553L183.37074285714286,34.65545724722057L183.56036571428572,34.18440809983474L183.76553142857142,33.263286179762616L183.85723428571427,35.89322631835938L183.98934857142856,35.394619563176065L184.2978742857143,35.04746474045973L184.4525257142857,34.621485548753014L184.61106285714288,39.77116046612079L185.20557714285715,44.25246624286359L185.35634285714286,43.08541513296274L185.50477714285714,42.14201312725362L185.6920685714286,40.697902550330525L185.88013714285717,40.285148503230175L186.00214857142856,42.520599083533654L186.184,41.59644352839544L186.4482285714286,40.4922505070613L186.81737142857145,39.88565302922174L187.01476571428572,38.96008094200721L187.1973942857143,37.64662560096153L187.4173257142857,36.840238600510816L187.60617142857143,35.888024010291474L187.73517714285714,35.62367154634916L187.88128,35.02805950458233L188.09344000000002,41.50309866098257L188.3094857142857,40.59161250187802L188.45248,39.69800222543569L188.62345142857143,38.51286630483776L189.00658285714286,37.68546532264122L189.10528,41.79871511606069L189.60576,42.2199641770583L189.73010285714287,41.1513557786208L189.89019428571427,40.280213623046876L190.18317714285715,39.783821505033046L190.3386057142857,39.44437194824221L190.46605714285715,38.55919818584735L190.61216,37.46998530461238L190.81965714285715,36.904496506911045L191.23232000000002,36.944965867262624L191.51442285714285,36.316155160757205L191.76,35.37191326434794L192.19597714285712,35.54662306565504L192.44466285714284,34.91330787071814L192.67702857142856,34.72622535118691L192.8573257142857,34.0626531982422L193.0570514285714,33.755796414888806L193.24278857142858,33.05030911959136L193.38189714285713,32.960006244365985L193.48991999999998,34.967194589468164L193.62358857142857,34.19912499060996L193.73238857142857,36.42576716496393L193.88393142857143,35.72785560021035L194.00361142857145,35.244864126352155L194.17458285714287,34.58914348895732L194.35565714285715,33.93321810208835L194.57869714285715,32.91032315767728L194.74189714285714,32.33572509765625L194.84603428571427,34.55509657639723L195.00923428571429,33.86203632061296L195.23460571428572,33.08605670635518L195.39081142857142,32.68205674391527L195.52214857142857,32.29706923264723L195.66514285714285,32.02600600022535L195.85321142857146,31.310949800931496L196.01174857142857,30.572234590970567L196.22313142857143,30.238221341646636L196.47570285714286,30.483837139423088L196.5541942857143,33.81705829326924L197.03990857142858,33.90826791616587L197.41293714285715,34.34980388934795L197.63053714285715,33.864263493464534L198.05174857142856,33.6369038273738L198.17997714285713,32.87455885667066L198.3128685714286,32.523334115835326L198.4309942857143,31.85370304987981L198.57942857142856,30.974416879507203L198.64859428571427,33.77036287747896L198.81024,33.56779043344349L198.9446857142857,33.254778630183296L199.10322285714287,32.23970595139724L199.26331428571427,31.856644756610592L199.4032,31.243252939077536L199.49024,34.65719970703125L199.61302857142857,34.35663583608772L199.79721142857144,33.85799147385816L199.95885714285714,33.51152193509614L200.10573714285715,32.89549762432392L200.2642742857143,32.08329406738281L200.4546742857143,31.79310138408954L200.58601142857142,31.20148404634915L200.72278857142857,30.862276846078714L200.90230857142856,30.4625139441857L201.07483428571427,29.905545231745805L201.20073142857143,29.307095947265623L201.47817142857141,28.70082439716046L201.61650285714285,28.57687992976261L201.71209142857143,30.754574444110574L201.86752,30.335999661959136L201.99885714285716,30.020250901442296L202.15273142857143,29.47236220139723L202.25453714285715,31.919494488055904L202.4076342857143,30.84669499323917L202.53741714285715,30.431103703425492L202.70217142857143,29.943549241286064L202.79853714285713,32.739202740009006L202.97106285714287,32.59822645920974L203.1062857142857,31.87797630896935L203.28813714285712,31.619620079627396L203.49485714285714,32.108611966646635L203.64096,31.540152212289655L203.79250285714284,30.9141578556941L203.93705142857144,30.396969041090756L204.1018057142857,33.574446880634014L204.2432457142857,33.19048729529749L204.37613714285715,32.64076420710637L204.50281142857142,31.900118502103368L204.81833142857144,31.859741070087154L204.98463999999998,30.85880864070012L205.11364571428572,33.47676048865685L205.2822857142857,33.271120981069714L205.43849142857144,32.44052757850059L205.59702857142855,32.10974853515626L205.73147428571428,31.350236628605757L205.8371657142857,34.438021662785445L205.9444114285714,37.332803156926104L206.03145142857142,40.169205979567295L206.11538285714283,42.87930344801683L206.1853257142857,45.37803678072416L206.24982857142857,47.742600708007814L206.40914285714285,46.39897615872897L206.53659428571427,49.40990492600662L206.6088685714286,51.034495896559505L206.8272457142857,49.44215505746695L206.91817142857144,51.33620887169471L207.00365714285715,52.762644136868985L207.11323428571427,54.72876558743991L207.21970285714286,57.20439983661359L207.44740571428574,54.98881831242487L207.52045714285714,56.16876863919772L207.6028342857143,58.15522714468149L207.8352,57.011153940054086L207.9618742857143,58.641724430964544L208.08544,60.066621985802286L208.1546057142857,61.51745795616736L208.2937142857143,59.97519507774939L208.69860571428572,57.67318002554086L208.78797714285713,59.40051762507511L208.94495999999998,57.92899986853966L209.1104914285714,55.99950350247897L209.23172571428572,54.259162222055295L209.35840000000002,52.866226477989784L209.49828571428571,51.654832481971155L209.59076571428574,54.14303584172177L210.22413714285713,53.052565213716946L210.54898285714287,52.198116408128016L210.69741714285715,50.52143132136419L210.83186285714285,49.12392423189604L211.05645714285714,47.46956937349759L211.27872,45.78836308405948L211.46601142857142,44.78931936410757L211.54450285714287,47.1812779353215L211.7209142857143,46.13292719914364L211.85225142857144,44.60464787409856L211.97037714285716,43.34423936110278L212.1351314285714,41.7448283973107L212.34806857142857,40.47416987492488L212.4864,39.58193434495192L212.56644571428572,42.51326570951022L212.72576,41.63249197152945L212.96045714285714,40.88750892052283L213.1244342857143,40.446298875075115L213.3296,39.89602003831129L213.5285485714286,38.708581730769225L213.68553142857144,38.094429415189296L213.8331885714286,37.63967247596153L213.97618285714285,37.03260282076323L214.03446857142856,39.84876887394833L214.15958857142857,38.79949467585638L214.3375542857143,37.95466909555287L214.49842285714286,37.095348088191116L214.66784,36.49026742788462L214.8015085714286,35.55482975886417L214.99501714285714,34.568614220252414L215.15743999999998,34.23445054274339L215.33074285714287,33.49120159442609L215.50560000000002,33.518938880333536L215.65792,33.17321312537561L215.77449142857142,32.63519000713643L215.84754285714286,38.59547644981973L216.04105142857142,37.641327185997596L216.17549714285713,36.65914395845854L216.34569142857143,36.304451012244584L216.47780571428572,35.86237600473257L216.6386742857143,35.566830585186295L216.7715657142857,34.91582336425782L217.02880000000002,34.578847515399644L217.2192,34.057496854341935L217.56969142857142,33.354637873722965L217.74688,32.70205951397236L217.9248457142857,32.565516686072726L218.08882285714287,32.03889268141526L218.28544,31.83408888596756L218.44086857142858,30.878159555288477L218.60873142857145,30.982819965069098L218.75094857142858,30.79071063701923L218.91648,30.432745877779467L219.10765714285714,30.406517052283647L219.3532342857143,29.778149273212136L219.49545142857144,29.622146888146034L219.6469942857143,28.91352985088642L220.40626285714285,30.25244516225962L220.87332571428573,32.030991023137005L221.02098285714285,31.525385178786053L221.18573714285714,30.366235727163456L221.50125714285716,30.202431969275835L221.97686857142858,30.04462862454926L222.1626057142857,29.296971294696505L222.31570285714287,28.863993013822096L222.57293714285714,29.263358952448925L222.74235428571427,29.043244910606973L222.97549714285714,29.067041813777053L223.18454857142856,28.423351252629203L223.37494857142858,28.041021305964534L223.54669714285714,28.01497215857873L223.75341714285713,27.8380101130559L223.91817142857144,27.29620539738582L224.37590857142857,27.595465557391833L224.60905142857143,27.22512390136717L224.73805714285714,27.502342153695906L224.89970285714284,27.377925508939313L225.02482285714285,27.28875920222356L225.16626285714284,27.02879004845252L225.3061485714286,26.986210514948937L225.47401142857143,27.13777526855469L225.60768,27.091714993990365L225.74912,26.753084435096156L225.86880000000002,26.01333712064303L225.9954742857143,25.573994891826914L226.2029714285714,25.2246505033053L226.29001142857143,28.40670386681191L226.57366857142858,28.44372173602764L226.6995657142857,28.275187847430885L226.84022857142858,28.083910052959737L226.9964342857143,27.93547086275541L227.12854857142855,27.625354802058297L227.31506285714283,27.317085665189296L227.5147885714286,26.953471491887L227.7689142857143,26.601319110576924L227.9321142857143,26.740139254056487L228.36187428571426,32.32504051795371L228.49709714285714,32.10324251615083L228.86313142857142,31.653449707031257L229.0100114285714,31.080911677433903L229.1802057142857,30.48667856069713L229.36128,29.957961097130408L229.50893714285715,29.377734515850364L229.69700571428572,29.017550940880426L229.87264,28.71837017352763L230.01330285714286,28.552711134690497L230.17650285714288,28.18472618689904L230.4143085714286,28.09056650015026L230.8914742857143,28.012398165189296L230.96374857142857,30.617409010667075L231.1533714285714,30.30978755070612L231.31423999999998,29.907638690655034L231.5232914285714,29.552523709810686L231.75798857142857,29.140066340519837L231.88544,32.363144812950736L232.09993142857144,32.225285738431495L232.6454857142857,31.730807401216936L232.79314285714287,31.154993380033034L233.57028571428572,38.426541419396045L233.72338285714287,38.41569387582632L233.87026285714285,44.05917020357572L234.0249142857143,43.101126521183886L234.20598857142858,42.06845374474159L234.41115428571428,41.088623046875L234.6637257142857,49.000109299879796L234.98546285714286,47.703301344651436L235.12768,46.38396259014422L235.42687999999998,45.03422898512619L235.64758857142857,43.91256540151744L235.78125714285713,42.951659405048076L236.3532342857143,43.32933861365686L236.58249142857144,42.0943441068209L236.8047542857143,41.560315692608185L237.02701714285715,40.3334693791316L237.18788571428573,39.71498807466946L237.37206857142857,39.553879488431505L237.58889142857143,38.78695899376504L237.74820571428572,37.698339468149044L238.01476571428572,37.13941936786358L238.16397714285714,36.54137958233173L238.35049142857142,35.794307250976544L238.49426285714284,34.530476496769836L238.6621257142857,34.10982079139123L238.91236571428573,33.84300715519831L239.06313142857144,33.16276254507213L239.8402742857143,36.3878759765625L239.98870857142856,36.040520582932686L240.19154285714285,35.247375441331144L240.3594057142857,35.06166766826922L240.5389257142857,34.72212618314302L240.68192,34.47702434833232L241.45906285714287,37.788847092848556L241.6214857142857,36.84196852463941L241.81033142857143,35.821033325195316L241.9424457142857,34.76847895695613L242.19424,34.534182880108176L242.3978514285714,33.68112553523136L242.5696,33.18958054762621L242.70171428571427,32.956124361478345L242.9309714285714,32.12360464242789L243.14857142857142,32.03779789851262L243.3280914285714,31.2293968318059L243.47497142857142,30.581611281174872L243.62340571428572,29.73355985201323L243.79826285714284,29.160746037409865L243.9334857142857,29.10282282902645L244.13243428571428,28.604667358398444L244.29874285714286,28.291718233548693L244.45417142857144,28.4663820706881L244.59172571428573,28.372878417968735L244.7797942857143,28.221088022085326L244.9220114285714,34.05010080190806L245.06733714285716,33.20589782714842L245.22898285714285,32.877341778094944L245.4240457142857,32.71857736440805L245.88022857142857,32.057002563476544L245.98825142857143,31.462585590069096L246.14134857142858,31.09027583195612L246.25170285714285,34.140027606670685L246.38770285714287,37.1625560584435L246.5501257142857,36.80256051870492L246.71021714285715,36.03050457294171L246.84854857142855,35.0633098426232L247.0101942857143,34.85703937237079L247.1322057142857,34.02682621882511L247.27753142857142,33.394200486403236L247.40576000000001,32.8301700063852L247.5565257142857,31.779487633338334L247.61170285714286,36.9168692251352L247.78112,36.762375300480755L247.8992457142857,38.73442195012018L247.97152,46.95684744027943L248.05389714285715,49.548921461838944L248.11062857142855,55.361725604717535L248.29325714285716,53.63672799917367L248.38029714285716,56.159926804762605L248.52873142857143,54.66722792405349L248.62976,57.45669297438401L248.81238857142856,55.439542940579926L248.94994285714287,53.586451556865995L249.13101714285713,52.114545194185695L249.21650285714287,53.688771972656255L249.39058285714285,51.61682011530951L249.6058514285714,50.314843280498806L249.78692571428573,48.86303997333232L249.92758857142857,47.34250769981972L250.05270857142858,45.96700491098255L250.19492571428572,44.637733717698325L250.31382857142856,43.503492666391224L250.46925714285715,42.563003117487995L250.62390857142856,41.44914508526142L250.76301714285714,40.8267192195012L250.8858057142857,39.55106313852164L251.01558857142857,38.867041109525246L251.17101714285712,38.26740511380709L251.3373257142857,37.21657649113581L251.48032,36.675615844726565L251.64662857142855,35.583624220627996L251.86578285714285,34.72225571852465L252.04141714285714,33.75552480844351L252.19373714285715,32.88293687086838L252.34838857142856,32.20877624511721L252.42610285714287,35.4163104717548L252.6133942857143,34.168283034104576L252.84032000000002,33.768574453500605L252.96854857142858,33.57315570537861L253.0812342857143,35.96633859487682L253.22422857142857,35.208686147836545L253.34624,34.334731820913476L253.5381942857143,33.67087134728064L253.83350857142858,33.37993070162261L254.41791999999998,33.180070143479554L254.60210285714288,32.324777268629816L254.72566857142857,31.59288564828728L254.87021714285714,31.170282733623793" style="fill: none;" fill="none"></path></g></g></g></g></g></g><g transform="translate(58, 178)" clip-path="url(#clip_1)"><clipPath id="clip_1"><rect width="271" height="21"></rect></clipPath><g><g><line x1="0" y1="0" x2="0" y2="5" style="visibility: inherit;" fill="rgb(0, 0, 0)" stroke="rgb(204, 204, 204)" stroke-width="1px"></line><line x1="38.857142857142854" y1="0" x2="38.857142857142854" y2="5" style="visibility: inherit;" fill="rgb(0, 0, 0)" stroke="rgb(204, 204, 204)" stroke-width="1px"></line><line x1="77.71428571428571" y1="0" x2="77.71428571428571" y2="5" style="visibility: inherit;" fill="rgb(0, 0, 0)" stroke="rgb(204, 204, 204)" stroke-width="1px"></line><line x1="116.57142857142857" y1="0" x2="116.57142857142857" y2="5" style="visibility: inherit;" fill="rgb(0, 0, 0)" stroke="rgb(204, 204, 204)" stroke-width="1px"></line><line x1="155.42857142857142" y1="0" x2="155.42857142857142" y2="5" style="visibility: inherit;" fill="rgb(0, 0, 0)" stroke="rgb(204, 204, 204)" stroke-width="1px"></line><line x1="194.28571428571428" y1="0" x2="194.28571428571428" y2="5" style="visibility: inherit;" fill="rgb(0, 0, 0)" stroke="rgb(204, 204, 204)" stroke-width="1px"></line><line x1="233.14285714285714" y1="0" x2="233.14285714285714" y2="5" style="visibility: inherit;" fill="rgb(0, 0, 0)" stroke="rgb(204, 204, 204)" stroke-width="1px"></line><line x1="272" y1="0" x2="272" y2="5" style="visibility: inherit;" fill="rgb(0, 0, 0)" stroke="rgb(204, 204, 204)" stroke-width="1px"></line></g><g transform="translate(0, 8)"><text x="0" y="0" dx="0em" dy="0.95em" style="text-anchor: middle; visibility: hidden; font-family: &quot;Helvetica Neue&quot;, sans-serif; font-size: 12px; font-weight: 200;" fill="rgb(50, 49, 63)" stroke="none" stroke-width="1px">-50k</text><text x="38.857142857142854" y="0" dx="0em" dy="0.95em" style="text-anchor: middle; visibility: inherit; font-family: &quot;Helvetica Neue&quot;, sans-serif; font-size: 12px; font-weight: 200;" fill="rgb(50, 49, 63)" stroke="none" stroke-width="1px">0</text><text x="77.71428571428571" y="0" dx="0em" dy="0.95em" style="text-anchor: middle; visibility: inherit; font-family: &quot;Helvetica Neue&quot;, sans-serif; font-size: 12px; font-weight: 200;" fill="rgb(50, 49, 63)" stroke="none" stroke-width="1px">50k</text><text x="116.57142857142857" y="0" dx="0em" dy="0.95em" style="text-anchor: middle; visibility: inherit; font-family: &quot;Helvetica Neue&quot;, sans-serif; font-size: 12px; font-weight: 200;" fill="rgb(50, 49, 63)" stroke="none" stroke-width="1px">100k</text><text x="155.42857142857142" y="0" dx="0em" dy="0.95em" style="text-anchor: middle; visibility: inherit; font-family: &quot;Helvetica Neue&quot;, sans-serif; font-size: 12px; font-weight: 200;" fill="rgb(50, 49, 63)" stroke="none" stroke-width="1px">150k</text><text x="194.28571428571428" y="0" dx="0em" dy="0.95em" style="text-anchor: middle; visibility: inherit; font-family: &quot;Helvetica Neue&quot;, sans-serif; font-size: 12px; font-weight: 200;" fill="rgb(50, 49, 63)" stroke="none" stroke-width="1px">200k</text><text x="233.14285714285714" y="0" dx="0em" dy="0.95em" style="text-anchor: middle; visibility: inherit; font-family: &quot;Helvetica Neue&quot;, sans-serif; font-size: 12px; font-weight: 200;" fill="rgb(50, 49, 63)" stroke="none" stroke-width="1px">250k</text><text x="272" y="0" dx="0em" dy="0.95em" style="text-anchor: middle; visibility: hidden; font-family: &quot;Helvetica Neue&quot;, sans-serif; font-size: 12px; font-weight: 200;" fill="rgb(50, 49, 63)" stroke="none" stroke-width="1px">300k</text></g><line x1="0" y1="0" x2="272" y2="0" fill="rgb(0, 0, 0)" stroke="rgb(204, 204, 204)" stroke-width="1px"></line></g></g></g></g></svg>